<svg id="Camada_1" data-name="Camada 1" xmlns="http://www.w3.org/2000/svg" viewBox="0 0 560.44 1487.6"><defs><style>.cls-1{fill:#747e7b;}.cls-2{fill:#ebc0a4;}.cls-3{fill:#978f8a;}.cls-4{fill:#3a4442;}.cls-5{fill:#c38368;}.cls-6{fill:#bb785b;}.cls-7{fill:#6d6e6c;}.cls-8{fill:#cc8c71;}.cls-9{fill:#a7a19a;}.cls-10{fill:#dba086;}.cls-11{fill:#ce9075;}.cls-12{fill:#54605d;}.cls-13{fill:#f3c6af;}.cls-14{fill:#495553;}.cls-15{fill:#b67456;}.cls-16{fill:#c48668;}.cls-17{fill:#ce8e70;}.cls-18{fill:#e3d6d1;}.cls-19{fill:#505859;}.cls-20{fill:#5d6a67;}.cls-21{fill:#ce967a;}.cls-22{fill:#ce8f71;}.cls-23{fill:#cc9075;}.cls-24{fill:#efc5b1;}.cls-25{fill:#e8c1ad;}.cls-26{fill:#b4b2b1;}.cls-27{fill:#f6d5c0;}.cls-28{fill:#bf7f63;}.cls-29{fill:#888479;}.cls-30{fill:#bd7c61;}.cls-31{fill:#c58367;}.cls-32{fill:#948280;}.cls-33{fill:#f0c4ac;}.cls-34{fill:#8b8480;}.cls-35{fill:#929797;}.cls-36{fill:#d49c82;}.cls-37{fill:#c78769;}.cls-38{fill:#fbddc8;}.cls-39{fill:#a86447;}.cls-40{fill:#c2856a;}.cls-41{fill:#ad7259;}.cls-42{fill:#e1ae93;}.cls-43{fill:#d59b81;}.cls-44{fill:#a39d96;}.cls-45{fill:#c68266;}.cls-46{fill:#bb7a5c;}.cls-47{fill:#807873;}.cls-48{fill:#c17f64;}.cls-49{fill:#5d6e6d;}.cls-50{fill:#cc957c;}.cls-51{fill:#cc8d70;}.cls-52{fill:#ae7054;}.cls-53{fill:#53605d;}.cls-54{fill:#877c79;}.cls-55{fill:#fad9c1;}.cls-56{fill:#daa087;}.cls-57{fill:#edc2ab;}.cls-58{fill:#dda387;}.cls-59{fill:#604435;}.cls-60{fill:#dfa689;}.cls-61{fill:#b27458;}.cls-62{fill:#7d6f6a;}.cls-63{fill:#dda388;}.cls-64{fill:#deab97;}.cls-65{fill:#8e4029;}.cls-66{fill:#f7cfbb;}.cls-67{fill:#9c9796;}.cls-68{fill:#e8b6a1;}.cls-69{fill:#f9d5bd;}.cls-70{fill:#dea68b;}.cls-71{fill:#768688;}.cls-72{fill:#8f8f91;}.cls-73{fill:#9e674a;}.cls-74{fill:#ecbca5;}.cls-75{fill:#8d3f28;}.cls-76{fill:#9b4d34;}.cls-77{fill:#9a9c9c;}.cls-78{fill:#cf9377;}.cls-79{fill:#6d7e7d;}.cls-80{fill:#c0896e;}.cls-81{fill:#f9d3bd;}.cls-82{fill:#515c5c;}.cls-83{fill:#7c311e;}.cls-84{fill:#c8bdb9;}.cls-85{fill:#a26f53;}.cls-86{fill:#9f5d41;}.cls-87{fill:#ac6c4f;}.cls-88{fill:#e4b098;}.cls-89{fill:#9f9b9e;}.cls-90{fill:#544335;}.cls-91{fill:#9a5740;}.cls-92{fill:#c18a71;}.cls-93{fill:#b4b1b2;}.cls-94{fill:#d0ad9c;}.cls-95{fill:#d5ac9c;}.cls-96{fill:#9c533d;}.cls-97{fill:#a66345;}.cls-98{fill:#bc7c63;}.cls-99{fill:#edbda4;}.cls-100{fill:#adafb0;}.cls-101{fill:#dcb49b;}.cls-102{fill:#aa6242;}.cls-103{fill:#ca9277;}.cls-104{fill:#6f7575;}.cls-105{fill:#adaaac;}.cls-106{fill:#676e6b;}.cls-107{fill:#f2cdb5;}.cls-108{fill:#b07760;}.cls-109{fill:#aa6444;}.cls-110{fill:#ac6f50;}.cls-111{fill:#e4b397;}.cls-112{fill:#948690;}.cls-113{fill:#d69e87;}.cls-114{fill:#daa68f;}.cls-115{fill:#6e7d79;}.cls-116{fill:#ebc1ad;}.cls-117{fill:#d9a38a;}.cls-118{fill:#717a76;}.cls-119{fill:#e6b299;}.cls-120{fill:#f3c3ad;}.cls-121{fill:#828f8e;}.cls-122{fill:#ebbca4;}.cls-123{fill:#f0e3df;}.cls-124{fill:#878d8a;}.cls-125{fill:#d8cfca;}.cls-126{fill:#b8b8b2;}.cls-127{fill:#6b6b6a;}.cls-128{fill:#455050;}.cls-129{fill:#b5b3ae;}.cls-130{fill:#787c7d;}.cls-131{fill:#6f6866;}.cls-132{fill:#646261;}.cls-133{fill:#7c7775;}.cls-134{fill:#818b8a;}.cls-135{fill:#5a5558;}.cls-136{fill:#616462;}.cls-137{fill:#b6b8b2;}.cls-138{fill:#7f7e7b;}.cls-139{fill:#e2a58a;}.cls-140{fill:#c6c1bd;}.cls-141{fill:#776b64;}.cls-142{fill:#374042;}.cls-143{fill:#4a5856;}.cls-144{fill:#dccfc6;}.cls-145{fill:#908e8c;}.cls-146{fill:#5e6867;}.cls-147{fill:#e0aa90;}.cls-148{fill:#dfa68f;}.cls-149{fill:#9c5134;}.cls-150{fill:#f2c3ab;}.cls-151{fill:#a9958e;}.cls-152{fill:#6d797a;}.cls-153{fill:#746866;}.cls-154{fill:#9b9995;}.cls-155{fill:#afa8a2;}.cls-156{fill:#75756f;}.cls-157{fill:#c37d5e;}.cls-158{fill:#fad5bf;}.cls-159{fill:#f5d0bd;}.cls-160{fill:#fbeddd;}.cls-161{fill:#efc2ac;}.cls-162{fill:#4e5b59;}.cls-163{fill:#555c5c;}.cls-164{fill:#c6c8c4;}.cls-165{fill:#ba866e;}.cls-166{fill:#2a2d2c;}.cls-167{fill:#918881;}.cls-168{fill:#f3f3ef;}.cls-169{fill:#d2d3d1;}.cls-170{fill:#4d4b4a;}.cls-171{fill:#584f4c;}.cls-172{fill:#939491;}.cls-173{fill:#d9c7bd;}.cls-174{fill:#202829;}.cls-175{fill:#8c9996;}</style></defs><path class="cls-1" d="M75.58,8.11c4.56-5.2,11.9-4.49,17.2-8.11h9.44c14,4.11,28.12,7.62,39,18.48,5.77,5.78,11.07,11.8,14.73,19.16.51,2.71-1.56,2.39-2.82,2-5.34-1.71-10.19-3.57-14.77-7.74-7.47-6.81-15.49-14-26.7-14.52-12-5.08-23-2.79-33.26,4.61-.9.52.29-.07-.64.43-3.34,1.79-7.53,5.06-10.12.7-2.34-3.95-.77-8.33,4.79-9.94C74.46,12.58,74.66,9.92,75.58,8.11Z"/><path class="cls-2" d="M0,326.2a2.13,2.13,0,0,1,1.28-.29c4.59,10.64,4.34,21.29.15,32A13.9,13.9,0,0,0,0,357.72Z"/><path class="cls-3" d="M196.84,336.93c1.89,2.42,1.27,5.31,1.47,8,.91,6.69-4.11,12.2-3.71,18.78.05.88-1.34,2.37-.2,2.48,10.25,1,5.76,10.56,9.14,15.49.49.71.05,2,.94,2.79.56,3.08,1.11,6.17,1.67,9.26.5,3.44,1.89,6.77-1.12,10.09-1.85,2,1.44,3.62,2.07,5.52,3.27,9.91,3.5,20.45,6.79,30.29q11,62.16,22,124.3c3.38,19,6.84,38,10.22,57,.36,2,.4,4.13.6,6.2-3.4,2-4.67-.59-5.78-2.89s-1.47-5-2.8-7.19c-2.54,6.22,2.7,12.82-.88,19a9.42,9.42,0,0,1-1.36,1.73,8.77,8.77,0,0,0-4.5,9c.24,2.5.26,5.17-1.59,7.33a3.44,3.44,0,0,1-2.28.19c-3.66-2-4.47-5.35-4.61-9.1.18-7.63-.86-15.32.62-22.92,1-4.81-3.57-5.64-5.77-8.18.24-8.7.79-17.13-5.3-24.89-2.79-3.56.69-6,5.1-5.1,2.82,1.67,4.14,4.58,6.35,8,1.9-7,2.64-13.27,1-19.68-4.16-16.53-7-33.32-10.27-50-.94-4.87-1.64-9.9-5.84-13.37a6.18,6.18,0,0,1-2.1-4.89c-.94-28.74-5.61-57-9.54-85.47-2-14.4-4.64-28.09-11.17-41.33a53.58,53.58,0,0,1-4.8-31.36C186.88,343.84,190.77,338.53,196.84,336.93Z"/><path class="cls-4" d="M185.46,535.8c-6.71-30.37-13.67-60.69-20.09-91.12-10.25-48.57-19.33-97.39-31.59-145.51a405.38,405.38,0,0,0-39.4-98.68,4.31,4.31,0,0,1-.15-1.55c-1.24-5.66,1.29-6.53,5.64-4.13,3.47,1.91,5.09,5.54,6.81,8.94,2.81,4.66,5,9.85,11.38,10.92,1.26.21,2.66,1.58,2.3,2.82-3.1,10.69,3.77,19.6,5,29.48,1.47,6.72,5.68,11.73,10.24,16.52,3.2,1.9,1.18,5.09,1.9,7.62.4,3.92-.05,8,2.53,11.45a8.48,8.48,0,0,1,1.08,1.9c2.18,9.75,1.36,20.39,8.8,28.58,1.42,1.57.45,4,.55,6.1a24.92,24.92,0,0,0,10.32,19.58,3.89,3.89,0,0,1,.31,3.23c-6.36,2.67-5.76,7.38-3.57,12.48a37.92,37.92,0,0,1,2.5,9.71c.41,10,5.13,19.23,5.64,29.23.47,10.34,5,19.73,7.56,29.5,2,7.39,1.45,14.83,3.26,22.19,2.55,10.35,3.87,21.23,7.12,31.27,3,9.28,1.39,20.52,10.33,27.71,3.29,2.65-1.49,5.34-.56,8.64,4.05,14.32,6.52,29.05,10.78,43.34,1.78,6,4,11.9,4.25,18.24-4,7-4.74,7.07-8.91,1.18-1-1.43-3-.88-4-2.18-3.24-4.3-4-9.22-3.6-14.42,1.21-6.1-2.88-10.7-4.5-16C185.31,540.91,187.48,537.76,185.46,535.8Z"/><path class="cls-3" d="M250.17,652.16c4.67,24.92,9.46,49.82,14,74.77,9.74,54.07,17.2,108.54,28,162.43a51.54,51.54,0,0,1,.5,7c.15,3.67-.87,6.74-4.34,8.55-4.32-1.89-5.84-5.84-8.2-9.61-3.92-6.27-3.72-13.93-8.05-19.82a5.22,5.22,0,0,1-.87-5.25c4.43-2.87,2.48-5.46-.37-8,1.47-8.59-5.16-15.61-4.65-24,.08-1.27-.72-2.6-.56-3.85,1.47-11.07-1.55-21.45-4.69-31.82-3.2-13.75-6.24-27.65-6.67-41.69-.35-11.32-4.67-21.36-7.06-32q-7.86-35-15-70.13c-1.44-7.12-3.76-15.69,3.49-22l.2-.14c7.89,4.31,5.65,12.39,7.59,18.9-1.47.59.44,1.63-.38,1-.35-.28-.2-.41.28-.69,3.8-2.16,7.79-.78,4.9,3-6.66,8.79,0,16.32.35,24.36C249.63,672.87,246.82,662.35,250.17,652.16Z"/><path class="cls-5" d="M34.35,398.72c5.59,44,20.43,85,40.43,124.3,1.89,3.69,3.53,7.5,5.29,11.26-.95,3.69,2.56,5.36,3.63,8.11,1.43,3.68,1.75,6.37-4,6.15-9-.35-17.08-2.38-23.15-9.58-1.27-.7-1.42-1.91-1.45-3.17,1.61-5.25-2.18-7.81-5.31-10.69a425.78,425.78,0,0,1-28.06-72.4c-1.52-6.9,4.5-7.32,8.28-9.36,4.95-2.67,3.41,3.81,7.87,5.85-5.33-10.88-3.06-23-13.94-29.5-1.69-4.4-1.64-8.13,3.79-9.75,3.94-1.18,2.56-4.5,2.73-7.1S30.19,397.4,34.35,398.72Z"/><path class="cls-6" d="M67.92,227.45c-16.22,34.77-26.2,71.43-32.4,109.18-1.3,8-1.83,16.09-2.72,24.14-3.72-3.25-9.72-3-11.34-9.8-1.56-6.51-2.11-11,5.34-13.34,1.6-.5,2.76-2.48,1.58-3.8-3.71-4.18-.36-9.94-3.55-14.17-.89-1.18.53-2.17,1.05-3.3,2-4.29-.22-4.58-3.61-3.24-1.87,1-3.72,1.19-4.4-1.24-2.08-7.36-5.54-14.14-8.46-21.14-1.35-3.23-3.06-7.59,1.13-9.94s7.42.45,10.25,3.48c.82.87,1,2.42,3,2.67,0-5.71-3.11-10.52-3.92-15.82s-4.41-11,.18-16.45c2.54-1.34,5.59-1.59,7.29.5,5.76,7,8.14,2.35,10.63-2.67,2.26-2.39,2.92-4.88,2.45-8.4-.4-3.06-.51-8.67,5.82-4.61,3,1.9,3.4-.38,4-2.5,1-3.37.37-6.57-.41-9.89-1.2-5.13.22-8.76,6.34-8.77a5.87,5.87,0,0,1,2.25,2.2c1.36,2,3.59,1.85,5.59,2.34C66.36,223.45,68.76,224.09,67.92,227.45Z"/><path class="cls-7" d="M349,1224.52a2.71,2.71,0,0,1,.25,1.51c-1.32,10.41-1.31,20.63,4.67,29.9l-.06,0c-.67,12.31,2.83,24,4.93,36,1.71,9.68,1.63,19.47-1.83,28.94-6.48-5.89-6.31-14.41-8-21.93-5.17-23.49-9.85-47.1-14.76-70.65-2.4-11.49-4.56-23-7.08-34.49-2.08-9.52-6.37-18.22-8.51-27.67-3.59-15.85-5.46-32-8.76-47.89-1.73-8.14-2.13-16.42-2.9-24.67-.56-5.93,1.58-13.53-5.44-18-1.58-1-1.84-3.66-2.28-5.7-1.59-7.25.64-9.48,8.7-8.74,3.67,3.27,5.1,8.23,8.67,11.59a20.18,20.18,0,0,1,2.85,11.94c-.29,4.2-.86,8.81,2.89,12.39,1.52,1.45,1.62,4,1.24,6-2.6,14,4,26.64,6.07,39.94,1.09,7,3.49,13.69,3.48,20.85,0,3.08,2.49,5.14,3.35,7.89,3.89,14.56,3.83,29.92,9,44.22C346.52,1218.86,346.66,1222.13,349,1224.52Z"/><path class="cls-8" d="M22,312c.32-2.81,1.8-3.75,4.28-2.37,2.81,1.57,3.61,4.14,3.58,7.31-.06,4.26-3.62-.75-4.31,2.1,2.12,1.56,4.94,3,2.46,6.68-.62.92-.4,2.69.81,4.25,4.23,5.39,3,9-3.94,10.75-3.88.95-2.4,3.07-2.26,6.48.31,7.84,7.94,8.35,10.16,13.56.56,12.65-.28,25.36,1.55,38-2.67.27-2,1.78-2,3.79-.13,3.79,2.73,9.49-5.6,9.44-3.48,0-1.86,4.56-1.6,7.26-6.21-2-12.06-4.38-13.53-11.81a27.67,27.67,0,0,1,0-5.46,4.31,4.31,0,0,1,3.33-3.9c2-.5,3.42.69,4.72,2.07,2,2.12,2.31,5.17,5.07,8.64,1.35-6.48-5.07-9.85-3.69-14.85a3.93,3.93,0,0,1,1.44-2.65c1-.68,2-1.68,3.44-.81-.72-1.63-2.07,0-3.08-.61-1.55-.87-2-2.31-2.37-3.81a10.48,10.48,0,0,0-2.65-4.65c-1.74-1.8-4.08-3-6.24-2.34-1.42.42,1.06,2.63.08,4.25a8.34,8.34,0,0,1-2.28,3c-2,.32-1.73,2.95-3.45,3.59-1.84-10.62-4.67-21.1-4.47-32l-.15-32C2.14,315,2.76,304,4.89,293.22c5.72,2.71,2.72,7.93,3.3,12,.42,3-.6,6.58,3.35,7.75C15.06,314.07,18.91,316.23,22,312Z"/><path class="cls-9" d="M111.66,15.75c12.53.16,20.62,8.46,29.06,16a21.24,21.24,0,0,0,15.19,5.85l4.78,8c-.05,5.46-1.79,10.24-6.55,13.15-1.92,1.17-5,1.39-6.77-.24-5.83-5.27-7.77-2.08-9,3.65A3.62,3.62,0,0,1,135.93,65c-3.23-5.31-9-9.23-6.19-17.32C131.66,42,124,37.62,115,38.57c-3.21,0-5-2.72-7.6-3.92C101.2,34.14,96.3,39,90.18,38.71c-.75,0-1.29.71-1.6,1.49C85,49.33,78.13,57.36,77.49,67.43c-.87,13.67-1.23,27.43.41,41.12.19,1.55.86,3.13.56,4.64-1.43,7.34,1.9,11.93,8.26,14.87,2,2.36,4.46,4.26,6.62,6.45,1.77,2.53,4.1.11,6.09.67a4,4,0,0,1,2,2.41c-1,4.15-2,8.27-7.81,6.68-11.49-2.47-18.58-10.42-24.57-19.76-3.4-3.61-5.34-7.57-3.94-12.77.68-2.54-.28-5.19-.78-7.76-1.94-10-3.51-20,.27-30.1,1.1-2.92,2.09-6.87.43-9.19-5.4-7.53-.61-12.43,3.47-17.74C72.7,37.16,81,30.78,88.45,24c7-6.42,20.81-4.61,27.06,2.33,1.71,1.89,3.64,3.35,6,3.32,6.3-.08,11.05,2.57,15,7.25-5.93-5.56-11.16-11.88-18.83-15.27C115,20.39,111.24,20.2,111.66,15.75Z"/><path class="cls-10" d="M339.63,384.53q3.27,39.38,6.51,78.75a62.59,62.59,0,0,1-.09,6.27c-3.2,6.66.54,12.68,1.77,18.93,2,3,.9,6.24.93,9.4-3.09,0-1.61-2.33-2.05-3.75,1.32,5.12-.34,10.26.32,15.45.76,6-3,8.39-8.24,9.36-2.44.44-4.43.13-4.07-2.91.39-3.39-1.51-6-2.36-9-1.44-5-3.47-6.3-7.24-1.92a3,3,0,0,1-3.48,1.1c-1.75-.77-1.87-2.42-1.4-4,1.15-4-2-8.72,2.41-12.35.86-.72-.29-3.81-1.51-5.66-3.36-5.07-1.79-8.29,4-9.63,5.32.21,8.29,3.65,10.77,7.79-4.91-7.72-13.2-12.55-17.73-20.61-.85-14.29-2.38-28.51-4-42.73,6.37-2.91,9.92,2.58,14.37,5.06,2.54,1.42,4.15,4.27,6.52,6-2.14-2.3-5.58-3.79-5.29-7.87.25-.47.71-.8.94-1.22,1.58-3,6.21,2.43,6.82-2.29s.95-9.88-2.85-13.26c-4.39-3.91-6.39-7.17-1.7-12.2,1.64-1.75,1.32-4-.87-6.15-2.49-2.39-5.43-5.19-2.76-9.35,4.39-.71,6.22,2.91,8.81,5.24C338.66,383.49,339.14,384,339.63,384.53Z"/><path class="cls-11" d="M339.63,384.53a12.09,12.09,0,0,1-1.21.09c-4-4.46-5.86-10.27-9.37-15.14A67.62,67.62,0,0,0,313,353.88c-7.45-5.3-8.34-5.11-12.74,2.45l-7.65-47.55c7.19-1.23,11.15,4.71,16.12,7.86A72.6,72.6,0,0,1,322.81,329c.47,3.85-2.69,7-1.8,11.13.67,3.06,2.16,5.19,4.88,5.19,3.23,0,1.37-3.21,1.92-4.92,2-6.29-.54-12.46-1.68-18.35-1.2-6.17-1.55-12.39-2.45-18.55-.61-4.16-1.94-6.4-6-8-4.27-1.63-8.16-4.42-11.8-7-.09-1.33-1.54.21-.64-.32,2.63,4.78-.89,5.8-4.23,6.95-.13.05-.19.34-.24.46,2.93,3.17,11.57,2.43,7.07,10.6-5.65-1.51-11.47-2.47-16.78-5.07q-3.87-16.61-7.72-33.23c5.13-1.58,10.17-4,15.69-1.51,3,1.28,5.29,3.65,8.05,5.32,3.91,3.06,7,6.93,10.63,10.3,5.18,0,5.67,6.11,9.77,7.51,4.73,20.82,6.32,42.1,9,63.21C337.81,363.27,338.59,373.92,339.63,384.53Z"/><path class="cls-12" d="M308.1,1062.06c-2.57.61-6.41-1.46-7.42,2.4-1.11,4.24.29,9.23,3.2,11.58,3.33,2.7,3.56,4.45,4.17,8.66,1.33,9.33-.32,18.9,2.57,28a29.1,29.1,0,0,1,.68,4.61,5.28,5.28,0,0,1-4.53,2.27,6.48,6.48,0,0,1-4.52-2.38c-8.56-40.82-17.34-81.59-25.54-122.48-2.54-12.73-6.79-25.12-7.65-38.19a8.27,8.27,0,0,0,.57-3c0-3.12.93-6.42,4.22-6.39,3.9,0,2.2,3.81,2.41,6.13a11.34,11.34,0,0,0,3.83,7.42c2.71,4.27,2.85,9.37,4.59,14,.26.74.24,1.73.72,2.22,10,10.37,8,24.26,10.66,36.76,1.14,5.38,4.82,9.82,5.41,15.36C305.27,1039.69,309.2,1050.37,308.1,1062.06Z"/><path class="cls-13" d="M142.94,696.57c-15.14-33.42-35.57-63.86-53.49-95.71A30.8,30.8,0,0,1,88,597.31c2.26-1.19,4,.21,5.54,1.42,5.88,4.76,13.14,6.7,19.75,10a13.84,13.84,0,0,1,2.56,2.2,222.4,222.4,0,0,1,17.81,20.85c1.6,2.07,3.45,4.66,1.85,7.14-1.8,2.8-4.73.91-7.14.31-4-1-7.52-3.15-11.6-4.07,9.23,8.14,19.67,14.38,30,20.81a21.66,21.66,0,0,1,3.73,4.16c2.17,3.26,2.69,7.4,5.65,10.27,1.74,1.69,3.23,4,1.68,6.3-1.87,2.82-4.73,1.19-7.17.63-2.06-.46-3.61-2-6.18-3.62,4.6,4.93,9.77,7.28,14.87,9.46,10.61,4.52,13.2,14.38,16,23.84,1.31,4.35-2.09,4.77-5.27,3.15-3.51-1.79-6.47-4.51-9.32-7.15C155.63,698.2,149.91,695.82,142.94,696.57Z"/><path class="cls-14" d="M306.67,1118.87l4.63-1.54c2.58,13,5.83,25.85,7.5,38.93,1.19,9.31,4.65,17.81,7.11,26.62,3.38,12.1,6.68,24.15,8.86,36.55,2.62,14.93,6.27,29.69,8.79,44.63,2,12,6.36,23.5,7.43,35.8.61,7,3.85,13.85,5.9,20.77a3.08,3.08,0,0,1,.74,2c-.05,1.58.45,3.15.3,4.7-.39,3.86-3.23,4.85-5.15,2.14-2.71-3.84-7.38-7-6.92-12.53.41-4.78-1.49-8.54-4.3-12.08q-1.05-6.12-2.08-12.26c.9-13.43-2.63-25.94-7.94-38.07q-10.77-50.49-21.52-101c.57-5.57-.92-10.73-3.12-15.75-.16-.92-.32-1.84-.47-2.76,3.32-3.08.21-5.42-.91-8C304.93,1124.16,303.64,1121.21,306.67,1118.87Z"/><path class="cls-15" d="M266.83,222.38l-2.73-4.77c-1.07-3.89-2.52-7.53-6.41-9.5-16.52-20.79-36.72-37.22-59.54-50.55-2.21-5.28,1.51-13.58,8.18-15.32s13.18-5.2,20.49-3.76c3.06.59,6.12,1.22,8.29,3.78,3.71,6.67-1.16,8.54-6.53,10.4,2.9.75,5,1.81,7.31,2.21,3.87.71,6,2.59,6.31,6.71.34,5.12,3.3,9,6.59,12.63,2.48.59,3.6,2.95,5.57,4.21,3.94,2.83,8.82,1.8,13.09,3.24a12.51,12.51,0,0,1,4.9,2.38c1.29,5.38-1.44,5.86-5.61,4.63-1.55-.46-3.3-.74-4.28.77s.87,2.78,1.21,4.19c1.06,4.41,6.2,4.89,7.94,9.2,2.24,5.55,2.39,11,2.46,16.63,0,2.07.63,4.36-1.57,5.66C269.4,226.94,268.84,223.07,266.83,222.38Z"/><path class="cls-16" d="M142.94,696.57c6.05-4.28,11.13-1.4,16,2.3s8.88,8.57,15.71,11.46c-3.93-12.93-8-24.06-21.76-28.3-5.41-1.68-9.67-5.63-13-11.42,7.05-.64,10.14,7.66,17.37,5.43-2.08-5.44-7.27-9.48-8.16-15.54,2.68-1.66,5.57,2.65,8.21-.28,16.92,27.69,34.35,55.16,43.09,86.9,1.52,5.52,1.87,11.36,2.77,17a5.36,5.36,0,0,1,.43,3.07c-.31,1.83,1.22,4.63-1.92,5.12-2.23.35-3.88-1.2-5.11-3-.59-.87-.23.28-.34-.68-2.41-20.07-20.18-26.38-33-37.09-2-1.68-4.18-3.14-5.72-5.31-2.22-2.75-4.73-5.34-4.83-9.2,3.75-3.18,7.42-1.45,10.81.48,5.79,3.27,11.42,6.82,17.3,10-11.85-9.49-23.49-19.27-36.1-27.8C144.1,698.69,143.52,697.63,142.94,696.57Z"/><path class="cls-17" d="M320.56,591.28c-2.72-8.67-1.05-17.68-2-26.53-1.48-13.78-1.64-27.71-2.36-41.58,5.76,1.59,10.18,4.63,11.84,10.77.18.65-.88,1.66,1,1.95,11.72,1.82,16.51,10.64,20.1,20.55,5,12.59,4.39,26,6.1,39.15-7.16-5.79-8.76-9.32-6-14-5.18,2.52-1.91,5.64-.33,7.51,4,4.68,5.44,10,5.69,15.87a5.25,5.25,0,0,1-1.94,3.89c-6.62,4.68-7.94,4.47-10.34-2.9-1.9-5.86-5.85-10.51-8.31-16a4.85,4.85,0,0,0-2.27-2.07c-10.1-3.88-12.22-10.29-7-20.55-3.69,4.85-1.69,10.64-2.23,16C322.19,586.14,323.32,589.14,320.56,591.28Z"/><path class="cls-18" d="M135.18,64.49c1.57-.94,1.39-2.58,1.76-4.08,2.29-9.37,2.22-9.21,10.08-3.85,3,2.07,7.2,2,8.74-1.55,1.42-3.3,3.91-5.94,4.93-9.37,1.66,4.17,4.74,7.86,4.29,12.75-.58,1.09-2.21,2.22-1.34,3.36,4.36,5.67,2.53,13,5.44,19.09,2.28,4.77-1.06,9-2,13.38-1.8,6.73-2,13.76-4,20.45a5.22,5.22,0,0,1-3.85,2.8c-2.77,0-4.06-1.89-5-4.16-.6-1.43-1-3.51-2.43-3.8-10.23-2.05-10.38-10.83-12.49-18.31-.73-2.56-2.47-4.52-3.7-6.78-2.47-4-3-8.8-4.62-13.14a8.47,8.47,0,0,1-.14-3.58C131.57,65.65,132.57,64,135.18,64.49Z"/><path class="cls-19" d="M174.71,182.88c-.86,36.63,10.1,71.64,14.64,107.53,1.18,9.31,2.81,18.56,4.23,27.84,1.16,4.69-1.73,4.76-4.76,3.8s-4.1-3.67-5.06-6.48a104.19,104.19,0,0,1-4.12-17.4c-2.06-13-6.29-25.47-8.84-38.33a10.24,10.24,0,0,1-.31-2.2c.61-4.6,1.29-9.22-1.74-13.36a40.12,40.12,0,0,1-1.85-5.34c-.57-2.74-.58-5.4,1.18-7.78,6.82-3,.45-9.57,3.39-13.73,0-.05-2.75.26-4-.71-2.67-3.13-2.11-6.69-1.41-10.29-.63-1.35,4.45-1,1-2.78-3.08-1.63-3.43-3.61-3.73-6.82-.8-8.44.15-16.65,1.4-24.94.73-4.83,3.05-6.33,7.56-4.84C178.07,171.59,174.62,177.5,174.71,182.88Z"/><path class="cls-20" d="M341.56,1304.82c4.3,2.52,7.2,4.92,5.69,11.27-1.21,5.08,5.4,8.27,7.12,13.12a2.77,2.77,0,0,0,1.94-.34,2.24,2.24,0,0,0,.2-2.13c-1.39-1.78-2.69-3.35.47-4.59,6,1.87,2.44,7.42,4.24,10.9q4.56,21,9.28,42c3.48,15.56,5,31.41,8.47,46.94.67,4.3-.58,8.32-2.13,12.16-1.25,3.08-3.33,5.53-7.19,3.05q-12.76-60.08-25.52-120.15Q342.83,1310.93,341.56,1304.82Z"/><path class="cls-21" d="M502.89,1183.71c-32.51-41.82-59.45-87-81.78-135-7.32-15.73-15.53-31.09-20.39-47.88a3.07,3.07,0,0,1,2-.95c4.21.72,4.78,4.45,6,7.5,2.5,6.15,7.77,11.26,6.76,18.77-.39,2.89.78,0,.81,0,4-1.45,5.49,1.86,7.6,4a89.68,89.68,0,0,1,8.19,14.86,41.43,41.43,0,0,0,9.36,13c2,3.73,1.51,8,2.56,11.9,2.12,7.44,4.5,14.77,8.72,21.34,1.58,3.54,3.75,6.94,3,11.11-.58,3.36,2.25,2.75,4,3.46,6.08,5.85,6.86,14.49,11.18,21.28,1.53,2.4,2.56,5.12,4,7.61,4.82,4.93,7.93,11.15,12.48,16.29,6.2,10.07,15,18.34,20.21,29.08C507.39,1183,506.51,1185.13,502.89,1183.71Z"/><path class="cls-22" d="M402.59,1000.67l-1.87.12c-.46-.55-.92-1.09-1.37-1.64-1.29-11-6.12-20.86-9.52-31.19-4-9.65-8.46-19.18-8.5-30,5.14-2.53,8.49-7.27,13-10.61,6,.42,9,5.19,12.83,8.73l8.2,22c.78,5.31-1.85,3.68-4.13,1.9a98.84,98.84,0,0,1-16.76-17.39c1.46,12,9.29,20.76,18.4,28.78,4.48,3.94,8.79,8.17,11.82,13.45L431,999.1c-1.11,7.13-5.15,2.75-7,1.19-4.11-3.54-7.14-8.23-11-11.71,1.33,4.19,6.43,7.62,4.34,13.31-3.36,2.17-5.35-.24-6.93-2.48C406.78,994.22,404.53,996,402.59,1000.67Z"/><path class="cls-23" d="M325.67,475.8c-10.93,2.9-2.18,8.79-.85,11.9s2.58,3.74-1.4,4.86c-2.45.69-4.15,2.17-.85,4.79,3,2.4-2.66,4.69-.44,7.92,3.19-1.59,5.87-9.14,9-5s7.77,10.1,4.63,17.63c7.08-2,12.34-3.42,8.62-13-1-2.58,1.45-8.64,1.66-13.61,2.59,2,.46,5.13,2.72,6.62l1,13.13c.37,8.7,0,17.4.17,26.09-1.64,2.75.3,7.85-3.81,8.49-3.57.57-5.11-3.87-7.32-6.27-6.33-6.91-12.07-14.31-19.19-20.57-3.71-3.26-2.06,2.43-3.78,1.52-.9-10.92-1.85-21.85-2.69-32.78-.58-7.57-1-15.14-1.51-22.72C317.38,467,323.19,469.28,325.67,475.8Z"/><path class="cls-24" d="M157.49,726.24c5.86,1.18,9.47,6.1,14.43,8.87,6.44,3.6,11,9.84,17.8,13.48,4.61,2.46,6.05,8.79,6.69,14.36.42,3.7.83,7.33,5.89,8.13.29-2.38.58-4.65.86-6.91,3.47,5.69.39,11.76.66,17.62.44,9.47-1,19-2.58,28.76-6.14-16.81-17.71-30.43-24.83-46.48,4.13-2,5.66,2.58,9.47,3.65-4.19-8.18-7.66-16-17.63-17.58C164.21,742.38,159.89,734.74,157.49,726.24Z"/><path class="cls-25" d="M379.1,808.35c2,12.25,4,24.5,5.93,36.77a502.54,502.54,0,0,0,16.43,70c.38,1.23.55,2.51.81,3.77-7.8-.88-10.85-7.36-14.9-12.67-1.11-4.31-4.67-7.85-4-12.71,4.09-2.68,4.72-8.7,1.62-15.19-1.11-2.32-3.38-4-3.92-6.62-.41-5.22-.88-10-6.85-12.69a7,7,0,0,1-3.77-9.18c3.6-2.13,5.47,1.31,7.91,2.31.63,1.12,1.44-.43.63.25-.12.1-.25-.12-.58-.51a5.72,5.72,0,0,1-1.6-4.19c.53-4.56-.7-9-2.14-13.07a52.41,52.41,0,0,1-3.41-16.75,14.82,14.82,0,0,0-4-10c-1.25-1.33-2.52-2.93-4.62-2.23s-2.27,2.72-2.41,4.55c-.29,3.86.74,7.91-1.81,11.41a2.91,2.91,0,0,1-2.6,1.42c-6.79-6-5.27-14.77-7-22.38-.91-4-.69-8.3-1.09-12.46,2.7-6.26,4.91-7,8.81-2,5.83,7.61,14.74,12.33,19.18,21.15C376.32,808.61,377.76,808.66,379.1,808.35Z"/><path class="cls-26" d="M334.79,1171.05c-4.6-2.8-2.83-7.32-3.58-11.42-2.67-14.54-6-29-9.84-43.28-.67-2.52-.23-4.36,0-6.52.55-5.84,1-11.37-3.72-16.33-2.48-2.63-1-7.67-.53-10.49.67-4.28-1.93-6.47-2.46-9.67,1.86-5.62-2.53-10-3.07-15.38-.61-6.11,1.85-12.37-1-18.27-.05-4,3.23-5.6,5.7-7.76,3.57,19.94,7.17,39.87,10.68,59.81q6.21,35.33,12.29,70.68a31.07,31.07,0,0,1,.17,3.87C337.86,1167.87,338.67,1171.74,334.79,1171.05Z"/><path class="cls-27" d="M506.27,1178.89a219.53,219.53,0,0,1-20.21-27c3-2.89,3-3,6.4-1.51,9.51,4.13,16.88,11.14,24.11,18.28,1.83,1.8,2.95,4.33,5.57,5.3q13.35,20.51,26.69,41c-9.29,4-13.74,3.1-20-4.14C520.28,1200.94,512.24,1190.65,506.27,1178.89Z"/><path class="cls-28" d="M266.83,222.38c4.37,2.5,5.94,3,5.63-3.72-.27-5.94-.89-12.16-3.62-16.53-1.76-2.82-5.72-5.25-7.65-8.91-1-1.84-4.81-3.8-1.87-5.39,1.73-.92,4.92-4.06,7.94-1.17,3.37,3.21,4.31,1.07,4.74-2.17,8.66,1,15.77,5.24,22.23,10.81l0,0c1.07,7.23-5.28,7-9.24,8.88-1.94.93-4.66-.45-7.09,1.94,3.45,3.1,4.94,7.83,9.06,10.5,2.59,3.48,9.72,6.51,1,11.21-.7.37-1.86,3.39.32,4.84,6.3,4.18,3.75,6.77-1.5,9.08-.91.4-1.31,1.58-2,3.29,7.39-.56,9.38,7.34,15.37,9.21,2.2,2.56,5.92,4.48,3.73,8.89-3.17,1.58-5.58-.38-7.68-2.11-5.6-4.63-11.89-8.16-18-12Q272.55,235.68,266.83,222.38Z"/><path class="cls-29" d="M193.14,557.93c-.36,5.56,2,10.5,3.58,15.6,4.65,11.69,6.86,24.09,9.79,36.21,7.22,29.94,11.21,60.51,16,90.91,1.94,12.19,5.07,24,10.46,35.15,1.91,6.51,4.42,13,1,19.81-1.62,1.15-2.73,2.88-4.39,4-5.79-21.38-9.37-43.24-13.74-64.93-6.28-31.19-12.13-62.47-18.26-93.7-3.86-19.68-7.91-39.32-11.8-59a43.52,43.52,0,0,1-.33-6.17c2.88,1.28.84,4.85,3,6.46C189.92,547.52,192.6,552.41,193.14,557.93Z"/><path class="cls-30" d="M384,893.45c1.09,4.34,4.58,7.8,4.6,12.53.66,4-1.17,6-5.12,6.08a5.38,5.38,0,0,1-2.07-.85c-1.56-.79-1.91-3.41-4.41-3.32-.19,3.47,2.75,3.37,4.32,4.64,2.71,4.09,5.07,8.39,10.21,10.21,2.08.74,4.07,2.5,3.21,5.45-3.68,3.89-5.33,10.52-12.68,9.5-4.22-1-4.21-5.06-5.44-8-1-2.31-1.43-4.78-3.47-6.48-5.84-21.26-12.84-42.22-16.41-64.06-1.18-4.13.7-4.26,3.73-2.88a10.75,10.75,0,0,1,4.78,6.89c1.81,9.76,7.71,16.77,14.72,23.21C382,888.2,384.48,890.05,384,893.45Z"/><path class="cls-31" d="M334.85,739.29c-1.53-2-1.54-4.28-1.22-6.62,7.3-10.13,7.36-11.93.2-23.1-1.68-2.62-.9-6.26-3.68-8.34-.4-2.08-.79-4.16-1.19-6.24,4.31,0,8.21,5.12,12.84,1,4.43.68,6.12,4.22,7.91,7.64,3,5.66,5,11.79,8.77,17.05,4.44,7.31,9.62,14.28,10.82,23.11.18.58.37,1.16.55,1.74.27,3.91,2.2,7.53,2,11.51-.08,1.7.64,3.94-1.94,4.47-1.88.39-2.58-1.25-3.56-2.47-6.26-7.77-15.06-13.4-18.54-25.21-3.35,9.87,2.33,17.62-1.07,25.21-5.31,1.6-3.85-3.31-5-5.46C339.29,748.92,340.41,742.5,334.85,739.29Z"/><path class="cls-32" d="M174.71,182.88c-.07-3.28-.33-6.57-.17-9.84s-1.6-4.49-4.56-4.56c-.81-.68-1-2.18-1.9-2.41-7.73-2-10.29-6.84-8.87-14.67.63-3.44.27-6.56-5.61-5.73-6.53.92-9-5-10.66-10.26a18.52,18.52,0,0,0-1.55-4.29,117,117,0,0,1-3.54-19.74c.18-8.75-2.53-17.26-2.21-26a3.31,3.31,0,0,1,1.51-2,26.1,26.1,0,0,1,4.71,9.7c1.64,5.87,1.34,13.46,10.79,14,5.39.32,1.44,8.11,6.18,9.74-1.72,4.72-2.38,9,3.64,11.36,2.88,1.16,4,4,4.14,7.08a7.08,7.08,0,0,1-.38,2.14,6.33,6.33,0,0,1-1.4,1.81c7.53,3.86,5,10.25,4.13,16.27a2.34,2.34,0,0,0,1.44,2.58c3,.79,1.17-6.45,5.58-3.63C175.44,163.9,177.36,173.49,174.71,182.88Z"/><path class="cls-33" d="M345.89,759.55c1-9.67-3.8-19.29-.25-30,3.24,4.53,6.07,8.21,8.48,12.41,2.31,4,4,9,9.88,10,4.28.77,3.11,5.89,5.63,9.38,3-5.94-1.15-10.93.22-15.8,3.8,8,3.86,16.43,2.84,25a4,4,0,0,1-2.54-2.36s-.38.26-.31.57c.34,1.48,1.78,1.39,2.8,1.91.43,9.6,4.95,18.51,4.76,28.22a1.72,1.72,0,0,1-2.13-.27C366,786,354.9,775,345.17,762.76A3.23,3.23,0,0,1,345.89,759.55Z"/><path class="cls-34" d="M273.46,874.62c1.62,2,3.82,3.22,3.36,7-.24,1.93-1.25,8,4.84,7.77.36,0,1.26,1.4,1.09,1.75-3.12,6.33,3.19,9,5,13.46-4.4,2.31-1.36,6.69-2.67,9.82-1,.48,1.07,1.19.2.6-.22-.15-.08-.24.25-.49,6.14-4.65,7.58,3,11.43,4.35.13,1,.25,1.92.37,2.88.89,1.15-.1,2.34,0,3.6,1,9.14-.69,10.54-9.81,8.49.06,6.78,0,13.44,1.09,20.3,1.08,6.63,3.27,11.09,8.95,14.11-3.19,4.93-7.12,8.42-13.58,6.95-6.22-31-13-61.87-12.88-93.71C271.18,878.81,270.45,876.14,273.46,874.62Z"/><path class="cls-35" d="M377.35,1421.48c-5-15-4.58-31.15-9.18-46.34-3.15-10.43-3.06-21.67-7-32-1.19-3.1-2.33-6.39-1.2-9.87l1-.48c7.68,3.06,6.24,11,8.69,16.76.55,1.31.27,3,1.54,4.14,4.21,23.13,8.51,46.24,12.58,69.39,2.21,12.58,4,25.22,6,37.83-3.6,2.91-6.19.32-8.93-1.62-3.55-2.52-2.85-4.42.24-7,.84-.7-.54-3.88-.89-5.92C378.74,1438.12,377.33,1429.89,377.35,1421.48Z"/><path class="cls-36" d="M294.23,195.3,272,184.49c-1.7-.2-3.61.18-4.76-1.65-3.8-4.93-9.26-2.61-14.05-3.22l-4.68-4.78c-.74-2.32,2-3.2,2-5.59-.09-9,1.13-9.61,9.82-6.34.55.21,1,.22,2-.43-2.94-6.27-6.83-11-14.22-12.81-3.64-.86-8.85-.55-9.52-6.37,1.42-2,1.74-5.17,5.29-4.76C265.05,153.55,282.58,171.8,294.23,195.3Z"/><path class="cls-37" d="M364.47,685.58c.1,6.86,2.93,13.45,1.95,20.41-3.21,2.12-4.95-.45-7-2.16A84.93,84.93,0,0,1,345,683.43c-2.31-4.52-4.2-9.77-9.74-11.77-5.9-6-5.18-14.39-7.77-21.58-1.06-2.92.62-5.53,4-6.43,7,1.59,10.4,7.55,14.28,12.57s7.95,10.29,10.06,16.64c1,2.89,2.43,6.28,5.57,7.17C364.86,681,363.52,683.74,364.47,685.58Z"/><path class="cls-38" d="M440.34,1058.94c-9.52-7.11-12-18.53-17.27-28.26,0-.36,0-.72,0-1.08.39-2.83.3-5.91,3.58-7.32a3.43,3.43,0,0,1,2.06.39c4,1.82,5.76,6,9.28,8.35,5.72,3.34,8.07,9.91,13.23,13.78q7.92,16.54,15.85,33.08a2.25,2.25,0,0,1-3.44.08C457.11,1070.06,447.34,1066.2,440.34,1058.94Z"/><path class="cls-39" d="M56.56,539c5.56-3.25,5.24,4.11,9.11,5.36,5.65,1.82,11.66-.15,16.8,2.89,4.85-5.36-9.62-7.12-2.4-12.93q10.31,18,20.63,36.09c-2,3.67-4.9,6.06-9.19,6.51-9.84-4.53-17.39-12.13-25.38-19.14C62.88,551.52,58.51,545.85,56.56,539Z"/><path class="cls-40" d="M226.53,140.19c-6.5-1.61-12.26,1.92-18.2,3.24-6.4,1.42-10.17,6.95-10.18,14.13l-4.83-2.71c-2.63-3.07-4.83-5.88-1.09-10,2.87-3.14,1.28-5.65-2.58-6.79a16.16,16.16,0,0,1-8.78-5.88c-1.07-2.49-2.08-5-.48-7.64,4.48-1.36,7.21,2,10.44,3.94,2.21,1.35,4.06,3.41,6.73,3.83,1.65.26,3.25-.3,3.49-2.25.2-1.63-.88-2.33-2.43-2.19-2.16.19-4.4.45-4.59-2.64-.17-2.76,1.64-4.31,3.87-5.34,3.4-1.58,6.8-2.33,10.51-.48a36.72,36.72,0,0,0,10.25,3.42l9.09,5.11C225.66,131.87,223.91,135.81,226.53,140.19Z"/><path class="cls-41" d="M345.89,759.55c.14,1,.27,1.91.4,2.87-2.82,3.91-3.87,8-.06,11.78,3.58,3.56.09,8.56,2.85,12.18,1.57,9.91,3.18,19.81,4.66,29.73.39,2.59.32,5.25,3.15,6.61a5.61,5.61,0,0,1,2.85,3.71c.09,5.51-1.18,11-.12,16.53a4.11,4.11,0,0,1-1.07,2.21,3.62,3.62,0,0,1-4.6-.58c-4.56-12.58-6.12-25.85-8.72-38.87-4.39-22-8.68-44-10.38-66.43.29-1.22.23-3.18.93-3.5,1.4-.65,2.07,1,2.47,2.14C340.84,745.12,343.35,752.34,345.89,759.55Z"/><path class="cls-42" d="M506.27,1178.89c3.15,1.61,5,4.2,6.61,7.34,5.26,10,13.2,18,20.48,26.53,4.56,5.32,10.39,1,15.47,2.23,2.88,3.68,5.68,7.44,8.66,11s4.19,8.23,1.3,11.41-6.68-.21-9.58-2.26c-14-9.87-24.69-23.07-35.16-36.4-3.86-4.92-7.44-10-11.16-15.08C505.8,1183.35,506.64,1181.55,506.27,1178.89Z"/><path class="cls-43" d="M12.53,406.65c1.86,6.55,8.92,7.85,12.6,12.56,5.68,4.9,14.48,8.24,9.19,18.59,5.7,3,4,8.37,4.32,13.55-3.64-1.17-10.37,1.07-3.56-9.58-6.21,5.38-12.66,4.44-13.33,10.93A274.21,274.21,0,0,1,9.68,409.61C10.69,408.68,9.67,405.78,12.53,406.65Z"/><path class="cls-44" d="M297.22,967.6c-7.16,2.16-9.48-3.39-9.26-7.92.35-7.51-7-14.5-1.21-22.17,2-2.61-8.13-2.39-1.63-6.12,2.73-1.57,4.9,1.94,7.82,1.94,2.21,0,2.59-.86,3-2.45.53-1.87,2.3-3.7-.18-5.54-.71-.51.46-3,1.57-3.63,3.77,18.27,6.83,36.65,8.87,55.19-2.46.27-3.69-1.52-5.06-3.06-1.87-1.45.88-4.93-2.52-5.7A1.33,1.33,0,0,1,297.22,967.6Z"/><path class="cls-45" d="M67.92,227.45c-1-3.71-4.31-3.15-6.74-3.15s-4,.21-4.35-2.52c.26-.46.36-1,.63-1.42,6.32-10,6.54-20.83,5-32.1-1.17-8.47,3.36-14.93,8.54-21l2.81-3.61c6.66,1.34,8.49,3.71,5.62,9-3,5.45-3,11.45-4.61,17.11-.6,2.09-1.2,4.75,2,5.75,4.92-.69,9.82-1.3,9.59,6.11l-10.67,13c-3.64-1-3.79-4.57-5.87-8-.52,3.95-.56,7.2-1.28,10.29-.87,3.69,2.15,2.78,3.66,3.7Z"/><path class="cls-46" d="M91,575.35c4-.17,6.55-3.17,9.71-5l20,31.66c-4.52,3.66-8.24-.94-12.86-1.47,1.4,3.71,7.4,4.47,5.28,9.5-9.45-2.16-17.38-7.31-25.17-12.75l-4.73-7.9c-1.55-4.19,1.08-3.68,3.59-3.15,3.27.68,5.65,3.54,9.14,3.93C95.68,584.67,88.65,581.6,91,575.35Z"/><path class="cls-47" d="M171.47,258.43c2.14,5.89,5.44,12,6.16,17.62,1.73,13.3,5.56,26,8,39.08.53,2.9,1.72,5,4.31,6,2.43.94,3.11-1.05,3.67-2.87a66.37,66.37,0,0,1,3.25,18.69c-.78,1.73.68,5.43-3.54,4.16a4.16,4.16,0,0,0-5.45,3c-1.23,5.4-3.73.09-5.37.95a2.78,2.78,0,0,1-.62-3.08c9.91-7.59,9.83-8.26-1.65-15.61a6.11,6.11,0,0,1-2.39-3c-2.05-10.63-6.33-20.76-7-31.7.24-7.48-.14-14.86-2.2-22.14C167.51,265.5,167.36,261.31,171.47,258.43Z"/><path class="cls-48" d="M146,657.42c-10.17-4.75-18.76-12-28.18-18-2.13-1.35-6.83-3.19-4.83-6.59,1.51-2.58,5.29-.26,7.79,1a45.33,45.33,0,0,0,14.38,5c-4.9-11.2-14.32-18.07-20.6-27.3,3.38-3,7.71,1.12,11.14-1.5,7.93,11.69,15.94,23.32,22.63,35.8-2.51,1.58-6.19,2.64-2.62,6.72C147,654,147.88,655.7,146,657.42Z"/><path class="cls-49" d="M261.24,920.32q-5.48-27.57-11-55.14c3.73,1.46,4.7-5.79,8.93-2.85,4.26,5.56,3.45,12.53,5.2,18.79a36.4,36.4,0,0,0,3.84,17.24c4.54,8.77,4.47,18.52,5.57,28a8.34,8.34,0,0,1-1.06,3.66c-1.19,1.92-2.19,4.66-4.85,4.26-2.35-.36-2.41-3.06-2.64-5A16.41,16.41,0,0,0,261.24,920.32Z"/><path class="cls-50" d="M306.44,408.33l-5.94-50.75a40,40,0,0,1,17.74,8.83c.39,2.37.64,4.83-1.05,6.77-5.26,6-3,10.2,2.77,14.1,3.93,2.68,5.86,5.82,1.33,10.13-3,2.89-4,7.34-6.33,10.82C312.14,409.57,309.29,408.47,306.44,408.33Z"/><path class="cls-51" d="M298.81,255.3c-2.25-2.59-7.53-.8-8-6.84-.21-2.7-6.08,0-9.76-1.88,4.2-1.25.28-10.15,8.38-7.74.23.07,1.15-1.05,1.16-1.62,0-2.15-1.71-2.17-3.24-2.48-2.12-.43-4.6-3.32-3.49-3.54,3.64-.71-1.23-7.79,4.74-5.62,2.73,1,2.51-1.22,1.78-2.53a47.16,47.16,0,0,0-4.16-5.57c6.2-1.24,10.87,2.41,15.29,5.59,2.47,1.77,4.16,1.89,6.51.81a45.69,45.69,0,0,1,6.7,17.05c.14,4.25-3.24,2.17-5,2.61-2.26.56-4.8-.64-7,0-3.22,1-8.19,1.6-3.41,7C301,252.42,300.67,252.7,298.81,255.3Z"/><path class="cls-52" d="M331.78,644.54c-3.91,2.66-4.42,5.3-.45,8.58,1.89,1.56,6.76,4.25-.47,5.52-.25,0-.26,3.39-.11,3.41,5.71.91,3.71,6.23,5.44,9.35,2.31,1.42,2.82,3.88,2.64,6.13-.57,6.63,1.81,12.83,2.33,19.27-.19,4.55-3.11,4-5.73,2.7-2.34-1.13-4.33-3-6.47-4.51-2.45-19.87-4.53-39.77-5.13-59.79.32-2.3,1.65-4.3,2-6.59.39-2.65,1.76-4.36,4.58-3.94s6.49-.1,6.14,4.62c-2.81,2.6-4.17,5.66-3.41,9.59C333.51,640.88,333.61,643,331.78,644.54Z"/><path class="cls-31" d="M349.08,786.38c-1.72-.19-5.12-.41-4.2-2,4.86-8.36-6.07-13.3-3.46-21.11,1.19-.61,3.63,2.07,4.87-.84a268.37,268.37,0,0,1,31.11,36.45q.84,4.74,1.7,9.48c-.84,4.54-2.88,4.8-4.68.8-4.4-9.79-14.71-14.21-20.24-22.94C352.75,784,350.67,782.9,349.08,786.38Z"/><path class="cls-53" d="M229.59,759.6c.28-2-.24-4.62,3.09-4.61,5.46,1,7.37,4.22,9.21,9.66,4.81,14.18,3.07,29.35,7.83,43.41a13,13,0,0,1,.5,2.4,14.09,14.09,0,0,1,0,3.89c-.41,2.88-.85,6.19-4.17,6.78-3.12.55-4-2.66-5.36-4.84Q235.15,788,229.59,759.6Z"/><path class="cls-54" d="M250.17,652.16c-.74,9.75.94,19.38,1.27,29.08.09,2.67.6,6-2.87,6.16-4.91.19-1.71-3.41-1.93-5.51-.24-2.29-.47-4.81-1.56-6.75-2.94-5.18-4.88-9.89,1-14.53,1-.76,3.46-2.73,1.05-4.45-2.59-1.84-2.75,2.1-4.51,2.58-2.19-7.44-1.83-15.56-6.63-22.13,2.4-6-1.61-11.94-.34-18.13.41-2-.11-4.19,1.31-6,6.2,3.09,2.21,12.68,9.8,14.69C248.23,635.48,250.14,643.69,250.17,652.16Z"/><path class="cls-55" d="M473.44,1136q-7.1-14.88-14.2-29.75c3.61-4.32,6.7-1,9,1.24,6.05,6.09,13.31,10.66,19.57,16.46,1.72,1.59,3.37,3.28,6,2.77,4.16,6,8.22,12.06,11,18.87-1.59,1-3.09.22-4.41-.49C491.93,1140.56,482.73,1138.18,473.44,1136Z"/><path class="cls-56" d="M298.81,255.3c1.36-1,1.45-2.28,0-3-3.59-1.74-5.56-5.8-3.75-7.94a10,10,0,0,1,9.46-2.73c3,.77,6.95,1.47,10.19-.71a221.55,221.55,0,0,1,8.95,30.29c-2.45,6.23-6.44,2.47-9,.74-3.19-2.15-5.95-4.91-9.78-6-1-.59-1.73-1.33-1.46-2.62C304.78,259,299.89,258.22,298.81,255.3Z"/><path class="cls-57" d="M331.78,644.54c-.34-2.49-1.21-5-.9-7.45.46-3.55-.95-8.85,5.65-8.44a5.38,5.38,0,0,1,3.14,3c7.62,11.78,14.84,23.83,23.44,35-.48,6.4,2.65,12.54,1.36,19-12.47-9.06-14.61-25.76-26.17-35.49C336.11,648.25,334,646.39,331.78,644.54Z"/><path class="cls-58" d="M308,223.88c-.64,4.75-4.14,4.87-6.26,2.34-4.23-5-10.54-5.56-15.54-8.74-5.84-.66-5.24-9.06-11.31-9.44,1.59-2.85,1.79-7.19,7-6,6,1.32,9.9-1.47,12.41-6.73C300.84,203.84,305.12,213.53,308,223.88Z"/><path class="cls-59" d="M105.18,204.85c-1.81-2.65-2.81-5.72-5.34-8-3.78-3.47-5-2-5.61,2.14l-2.64-1.62c-6.63-2.22-7.1-3.64-3.43-8.72a79.33,79.33,0,0,1,14.81-16c2.26-1.8,4-3.71,4.61-6.92.9-4.81,4-7.24,9.2-5.59,3.54,3.58,10,5.28,8.2,12.39-2.82,3.14-5.71-.68-8.6-.05-1.58,3.08,2.32,4.45,2,7-1,3.12-4.4,3-6.47,4.69a11.07,11.07,0,0,0-2.36,3.16c-1.2,3.44-2.67,6.72-1.86,10.61A6.57,6.57,0,0,1,105.18,204.85Z"/><path class="cls-60" d="M473.44,1136c12.06-2,21.4,4.84,31.39,9.59L522.14,1174c-7.48-2.11-11.34-9-17-13.4-4.77-3.75-10-6.42-15.05-9.6a2.65,2.65,0,0,0-4,.93C480.72,1147.51,479,1140.27,473.44,1136Z"/><path class="cls-61" d="M320.56,591.28c-.31-6.68,1.57-13.28.44-20-.68-4.15,1.32-6.37,5.79-5.6.6,2.07-1.07,3.26-1.8,4.84-3.65,8-1,13.27,7.59,14.89,2.77.52,3.37,1.88,2.58,4.31-.93,13.16,2.79,25,10,35.87.4.6.14,1.53,0,2.3-.49,1.1-1.64,1.83-2.43,1.08-6-5.68-15.44-8.07-17.21-17.84l-3.38,2C320.1,605.94,321,598.56,320.56,591.28Z"/><path class="cls-62" d="M181.34,124.47c-1,2.84,1.06,5.28,1,8-.77,1.16-.26,3-1.84,3.71-1,.37-2.43.7-3,0-4-5-8.06-3.48-12.26-.5-.75-3-1.62-5.27-5.21-6.71-7-2.79-7.19-7.21-1.26-12.14,1-.64,2-1.27,3-1.9,1.71-1.35,1.8-3.69,3.16-5.25,2.46-2.85,4.54-7.17,8.72-1.53,1.48,2,2.44-.76,3.67-1.27a2.38,2.38,0,0,1,2.08-.09l2.8,2.2C183.68,114.23,183.73,119.42,181.34,124.47Z"/><path class="cls-63" d="M493.82,1126.74c-1.14,5.26-4.22,2.18-5.43.7-6.16-7.56-15.47-11.41-21.63-18.93-1.83-2.23-4.3-3.93-7.52-2.24-3,.73-6.92.43-5.6-3.3,1.67-4.71-2.11-7.19-2.33-10.87,3.66-3.12,7.26-1.48,10.78.24,8.93,4.39,16.78,10.1,22.32,18.58Z"/><path class="cls-64" d="M181.34,124.47c-.24-5.2-1.74-10.47.88-15.5,13.28,1.64,24.69,8.21,36.44,13.88-3.8.64-7.24-.9-10.56-2.22-3.91-1.56-7.15.17-10.56,1.22a3,3,0,0,0-2.24,3.66c.51,2,2.07.75,3.12.43,3.22-1,4.78,1.65,6.36,3.31,1.35,1.42-.61,2.9-1.85,3.58-2.35,1.27-4.51,3.75-7.71,1.36C190.7,130.81,186,127.69,181.34,124.47Z"/><path class="cls-65" d="M317.32,367.38c-5.19-4-11.95-5.27-16.82-9.8a3,3,0,0,1-.27-1.25c1.18-2.77-1.62-7,2-8.52s6.83,1,9.79,3.05c12.42,8.41,22.67,18.54,26.44,33.76l-8-6.53C325.38,375.38,320,373,317.32,367.38Z"/><path class="cls-66" d="M424.68,984.82c-8.7-8.16-18.2-15.66-25.78-24.76-4.16-5-5.08-12.68-7.59-19.51,4.1-.31,6.08,1.77,7.57,4.1,3.69,5.79,9.41,9.62,13.79,14.74,2,2.33,2.26.12,2.68-1.31C418.64,966.93,422.9,975.44,424.68,984.82Z"/><path class="cls-67" d="M301.89,973.87c2.32-.25,3,1.84,4.34,3,4.5,18.14,7.49,36.54,10,55,1.23,4.38-4.66,4.48-4.8,8-5.37,1.12-7.7-.22-6.83-6.47.7-5-.82-10.3,1.09-15.32-1.57-8.2,1.24-17-3.52-24.74-2.42-5.49-1.1-11.59-2.79-17.21a4.68,4.68,0,0,1,.48-2.2A1.49,1.49,0,0,1,301.89,973.87Z"/><path class="cls-68" d="M91,575.35l9.52,17.91c-5.2.45-8.29-2.65-12-4.22-1.59-.67-3.89-4.16-5.28.37-6-10.42-12.55-20.49-17.12-31.66C75.69,561.81,82.53,569.73,91,575.35Z"/><path class="cls-69" d="M484.41,1110.92c-7.13-5.3-13.2-11.94-21.38-16-3.87-1.91-7.52-3.08-11.72-2.84-5.21-6.39-6.6-14.41-9.31-21.87,3.66-1.56,5.66,1.35,8.16,3,9.09,6,16.09,14.64,25.38,20.4A59.16,59.16,0,0,1,484.41,1110.92Z"/><path class="cls-70" d="M475.54,1093.63c-5.83.69-8.53-4-12.13-7.11-6.79-5.9-13.47-11.93-21.41-16.3q-.83-5.64-1.66-11.28c10.46,4.11,18.33,11.9,26.71,18.94Z"/><path class="cls-71" d="M377.35,1421.48c.75.67,2.26,1.57,2.14,2-2.85,9,4,17,2.87,25.8-.24,1.87,2.42,4.24-1.82,5-1.48.25-1.84,1.85.63,2.85,2.88,1.17,4.67,4.82,8.58,3.84,0,.52.06,1,.1,1.56-4.1,3.75-8.3,7.06-14.14,3.26-2.81-9.35-4.46-18.94-6.06-28.54C378.92,1435.25,375.8,1427.21,377.35,1421.48Z"/><path class="cls-72" d="M359.93,1333.25c-3.2-3.11.42-8-2.95-11.1a9.69,9.69,0,0,0-.09-1.52c1.07-16.2.88-32.24-4.39-47.89-1.89-5.6-.2-11.26,1.32-16.76a562.25,562.25,0,0,1,11,59.85c-3.22,1.75-1.18,4.56-1.36,6.9-.26,3.69,1.19,7.88-3.07,10.37Z"/><path class="cls-73" d="M116.28,160.73c-4.3.25-8.1,1.22-6.72,6.85,1.17,4.74-3.62,6.34-5.4,7.18-7.59,3.55-10.33,11.36-16,16.51-3.15,2.86,1.68,4.28,3.43,6l-5.19,4.34c-1.59-4.75-5.13-5.65-9.52-4.85-1.8-3.28.5-5.53,2.33-7.48,4.23-4.51,7.64-9.75,12.21-13.94,3.67-6.82,10.16-10.84,15.89-15.49C109.79,157.88,113.85,154.79,116.28,160.73Z"/><path class="cls-74" d="M144.67,699.75c16.43,6.71,28.64,18.67,40.22,31.47-11.4-3.65-19.3-14.36-32.23-14.18Q148.67,708.4,144.67,699.75Z"/><path class="cls-53" d="M257.84,862c-.78.65-2.2,1.26-2.25,2-.49,6.44-2.71,4.5-5.32,1.23-2.39-11.48-5.44-22.83-6.63-34.55-.46-2.25.12-5,2.36-4.68,3.16.48,6.58,2.07,7.28,6,.76,4.35,1.41,8.72,3.48,12.71C258.15,850.4,261.83,856,257.84,862Z"/><path class="cls-75" d="M322.35,329.32c-10.42-6.12-18.3-15.94-29.77-20.54A12.46,12.46,0,0,1,291,301.1a23,23,0,0,1,17.11,4.75C316.86,310.39,323.16,320.8,322.35,329.32Z"/><path class="cls-76" d="M315.78,520.27c.77-7.19,4.18-4,6.84-1.53a204.59,204.59,0,0,1,21.74,24.57,12.73,12.73,0,0,0,1.53,1.43c2.8-1.13-1.81-5.85,3.07-5.65,2.4,4.57-.45,9.74,1.63,14.35l-1.4,3a103.84,103.84,0,0,0-13.06-16.36c-2.89-3-6.28-3.41-10.06-3,2.29-5-1.43-7-4.61-9.29-1.88-1.38-3.51-3.1-5.25-4.66C316.07,522.21,315.92,521.24,315.78,520.27Z"/><path class="cls-77" d="M334.79,1171.05l4.62-4.76q4.41,25.67,8.79,51.32c.38,2.28.51,4.61.76,6.91-7.19-2-5.35-9-7-13.68C337.47,1198.06,337.3,1184.31,334.79,1171.05Z"/><path class="cls-78" d="M363.11,666.59c-1.14.36-2.81,2.06-3.37.72-5.45-12.93-16.05-22.72-21.44-35.65,1.68-3.37,5.11-.87,7.39-2.24,4.74,1.57,5,6.53,7.51,9.84,1.18,5,6.68,6.88,8.19,11.62C360.34,656.3,364,661.19,363.11,666.59Z"/><path class="cls-79" d="M261.24,920.32c7.22,1.6,5.35,7.9,6.48,13.71l4.32-5.79c2.46-.31,3.28,1.59,3.61,3.28,1.72,8.94,3.7,17.85,4.14,27a3.76,3.76,0,0,1-1.35,2.73c-5.37-3.06-4-8.11-3.5-13-5.94.25-1.09,7.59-5.88,8.28C264.94,944.8,264,932.37,261.24,920.32Z"/><path class="cls-80" d="M314.56,419.31c5.4,8.24,2.6,18.23,5.28,27.25,1,3.33,1,10-.49,15-3.8,2-5.83-1.28-8.42-2.87-1.36-.5-1.09-1.16-.18-1.88,4.88-6.38.2-13.13.7-19.68.06-.77-1.27.14-1.81-.41l0-.06a51.47,51.47,0,0,1,1.17-15.13c-1,.19-.06,3.72-2.77,2.53-1.86-4.65-1.52-9.5-1.37-14.33C312.3,410.46,314.47,414,314.56,419.31Z"/><path class="cls-81" d="M416.65,1002.25c.07-6.79-5.89-11.22-7.13-18.54,5.12,4.92,10.94,7.7,14.07,13.81,1,1.93,3.92,6,7.41,1.58,3.35,6.51,6.37,13.15,7.81,20.4-3.68.57-5.5-2.44-7.73-4.33a66.31,66.31,0,0,0-13.71-8.84C416.13,1005.15,415.41,1003.88,416.65,1002.25Z"/><path class="cls-82" d="M375.71,1465.71c5.23,1.17,9.29-2.75,14.14-3.26,3.2,8.43-.57,16.28-1.65,25.15C380.48,1481.66,375.19,1475.36,375.71,1465.71Z"/><path class="cls-5" d="M12.53,406.65l-2.85,3A68.35,68.35,0,0,1,5.9,389.89c1.19-1-1.39-4,2.07-3.73,5.41,1.28,9.52,4.93,14.05,7.81,2.07,2.68.55,7.46,5.34,8.69,1.18.31,2.09,2.2,1.36,4-.95,2.35-3.29,2.2-5.11,2.87-2.8,1-1.37-1.83-2.18-2.71s-1.13-2.32-1.82-3.42c-1.15-1.84-1.57-5-4.79-3.89-2.86,1-1.37,3.35-1.15,5.31C13.73,405.38,12.93,406,12.53,406.65Z"/><path class="cls-21" d="M418.28,1005.47c8.67,2,14.12,8.72,20.53,14a24.37,24.37,0,0,1,4.76,9.39c.62,6.46-3.4,4-6.5,3.42-4.13-2.14-6.7-5.84-9.45-9.38-.19-1-.27-2.53-1-2.79C419.37,1017.71,419.39,1011.29,418.28,1005.47Z"/><path class="cls-83" d="M303.4,263.3l1.52,1.58c2.73,1.56,6.08,2.63,5.5,6.86-.94,1.81-2.3,2.06-4,1.08l-7.77-4.88c-5.09-4-12.74-2.48-17.19-7.93a30.78,30.78,0,0,1-3.22-11c7-1,10.46,5,15.55,7.74C297.2,258.55,300.22,261.08,303.4,263.3Z"/><path class="cls-84" d="M179.42,106.77l-1.71.43c-1.85,2.23-3.15,3.71-5.59,0-3-4.49-2.49-10.54-6.94-14.18,6.11-8.75-1.54-17.37-.34-26.09.09-.63-1.08-1.72-1.89-2.13-1.84-.94-4.31-1.46-3.3-4.27.86-2.41,3.22-2.22,5.33-2.16a236.31,236.31,0,0,1,9.5,39.18C175.06,101.12,175.67,104.84,179.42,106.77Z"/><path class="cls-85" d="M180.77,135.63c.12-1.28.31-2.51,1.62-3.17,3.73.74,6.1,4.11,10.56,4.31,3,.14,4.52,5.72,1.72,8.1-4,3.41-1.87,6.56-1.35,10l-14.18-6.48C178.45,144,177.87,139.57,180.77,135.63Z"/><path class="cls-86" d="M344.88,630.09c-1.56,3.18-4.66-.11-6.58,1.57l-1.77-3c-4-2.56-8.35-6.26-9.29,2.62-.2,1.82-1.66,3.14-3.41,3.93l0,0c-1.9-4.09,1.89-8.75-1.28-12.71l-.42-9.37a3.08,3.08,0,0,0,1.54-3.27c-.25-1.86-2.67-4.67.09-5.36,3.08-.77,3.54,2.69,3.18,4.92-.85,5.37,3.18,8.12,6.32,10.25,4,2.73,6.94,6.65,11.06,9.13A1.13,1.13,0,0,1,344.88,630.09Z"/><path class="cls-87" d="M330.15,701.23c.52,0,1.18-.18,1.53.07,6.42,4.57,10.37,15.9,9,23.47-.81,4.4-2.93,6.81-7,7.9C331.85,722.26,330.23,711.83,330.15,701.23Z"/><path class="cls-88" d="M226.53,140.19c-5.71-4.13-5.25-8.75,1.22-12.23,5.56,3.24,11.4,6.07,16.13,10.58-2.15,1.12-1.41,5.12-4.89,4.92a3.07,3.07,0,0,1-4.57-.22Z"/><path class="cls-89" d="M297,918.83c-1.49.71-3,1.08-4.1-.55-5-7.15-6.66-3.95-8.77,2.53-.34-5.07-1.09-10.14-.91-15.19.14-3.68,2.8-1.63,4.57-1.07l4.89-8.13C295.49,903.62,295.49,911.37,297,918.83Z"/><path class="cls-90" d="M180.77,135.63c-.77,4.22,2,8.89-1.64,12.74l-2.82,1.47c-3.45,1-4.71-1.79-5.44-4-1.18-3.5-3.53-6.06-5.64-8.86,0-.45.05-.91.06-1.37,2-1.11,1.79-3.56,2.69-4.82,2-2.79,6.21-3.36,7.37.57C176.37,134.87,178.61,134.73,180.77,135.63Z"/><path class="cls-91" d="M314.56,419.31c-2.45-3.34-4.29-7.19-7.86-9.61a2.61,2.61,0,0,1-.26-1.37c2.64-3.33,5.33-1.43,8-.1,5.95,3.91,12.07,7.63,15.7,14.14l11.32,12.2c-5-.93-7.54-3.63-10.33-6C326.24,424.45,321.49,419.89,314.56,419.31Z"/><path class="cls-92" d="M168.25,750.14c.4-1.47.43-3.28,2.89-2.27,8.86,3.65,12.53,12,17.23,19.31.77,1.2.82,3.36-.72,4.24-1.71,1-2.74-.8-3.88-1.81-2.29-2.06-3.91-5-7.36-5.54Z"/><path class="cls-93" d="M204.48,384.51c-3-2.84-4-7.15-4.48-10.52-.92-5.91-3.21-7.3-8.18-5.42,1.16-8.5,2.84-16.34,6.49-23.6Q201.4,364.74,204.48,384.51Z"/><path class="cls-94" d="M361.39,650.88c-3.51-3.31-9-4.94-9.23-11,2-1.22,3.28-3,2.41-5.25-3.3-8.59-1.22-17.6-2.3-26.36.53-1,1.05-2.06,1.57-3.1a1.94,1.94,0,0,1,2.79-.19C359.76,620.11,359.67,635.59,361.39,650.88Z"/><path class="cls-95" d="M360.19,702.81c2.14.94,3.42,3.57,6.23,3.18-1.45,12.79,4.88,25,2.89,37.82l-12-22.21c6.09-2,5.35-6.4,3.91-11.05C360.44,708,357.87,705.75,360.19,702.81Z"/><path class="cls-96" d="M310.93,458.66c3.22-.28,5.59,2,8.42,2.87,6.74,7.34,14.31,14,20.29,24.21-6.18-3-8.59-8.69-14-9.94l-14.09-11Q311.27,461.71,310.93,458.66Z"/><path class="cls-97" d="M125.74,610.07c-2.62,8.63-7.58-.17-11.13,1.5l-1.46-1.51c-.75-3.42-3.52-4.61-6.22-6.16-1.68-1-3.22-3.4-2.32-5.26,1.31-2.69,3.55-.66,5.24.14,3.47,1.65,6.8,3.67,10.88,3.25Z"/><path class="cls-98" d="M309.82,271q-2.44-3.07-4.9-6.14c4.33-.52,7.14,2,9.63,5,2.72,3.2,5.64,3.81,9.1,1.37q1.91,9.13,3.8,18.27c-1.64,7.51-3.25-3.24-4.88,0,.92-5.3-4.51-3.7-6.42-5.93C316.68,278,312,275.19,309.82,271Z"/><path class="cls-99" d="M394.74,928.19c-.92-1.94-2.3-3.82-4.28-4.22-6.35-1.3-8.58-6-10.15-11.39-.2-1.45.35-2.15,1.87-1.91l.08.09c4.33,3.32,9,6.13,13.32,9.51,2.17,1.7,4.33,2.91,7.11,1.51a32.77,32.77,0,0,1,4.46,14.34C401.59,935.71,399.4,930,394.74,928.19Z"/><path class="cls-100" d="M360.37,1333.1a20.91,20.91,0,0,0,.61-13.72c-1-3.84.09-5,3.82-3.55,2.25,12.59,5.5,25,6.33,37.84-4.48-3.56-3.83-9.42-6.05-14C363.82,1337,362.73,1334.74,360.37,1333.1Z"/><path class="cls-101" d="M373.15,923.19c7.32,2.15,4,10.88,8.91,14.5a164.54,164.54,0,0,0,9.3,30.07c-.62,1.38-1.41,2.43-3.14,1.6C381.55,954.51,378.32,938.53,373.15,923.19Z"/><path class="cls-102" d="M146,657.42c.38-2.17-1.64-3-2.39-4.52-.91-1.83-4-3-2.11-5.94s4.4-1.69,6.83-1.09a71.15,71.15,0,0,1,8.93,14.35c-2.32,12.45-5.54-1.61-8.21.28Z"/><path class="cls-103" d="M402.69,921.78c-.55,1.82-1,5.41-3.45,3.26-5.57-4.87-13.66-6.79-17-14.28,3.86.74,5-2.14,6.33-4.78,4.62,4.24,8,9.82,13.68,12.87Z"/><path class="cls-62" d="M165.23,137c2.68.71,4.65,1.7,5.6,4.94.88,3,2,6.45,5.48,7.87l-.33,4.58c-4.6,1,.63,5.32-2.46,6.91-5.64-.48-9.26-1.92-6-9.14,2.84-6.22.32-10.91-6.66-12.49C161.79,137.13,164.68,139.27,165.23,137Z"/><path class="cls-104" d="M254.62,844.7c-2-3.66-3.36-7.66-2.88-11.76.53-4.61-5.16-2.57-5.5-5.87l-2.6,3.56a40.72,40.72,0,0,1-2.91-14.34c2.18.68,3.48,4.6,5.45,3.36,3.36-2.12,1.94-6.45,2.46-9.87.25.05.67,0,.74.18C254.83,821,257.59,832.41,254.62,844.7Z"/><path class="cls-77" d="M353.88,1255.93c-9.62-5.14-5.91-14.81-7.08-22.63-.2-1.28-3.4-6.72,2.41-7.27A125.58,125.58,0,0,1,353.88,1255.93Z"/><path class="cls-105" d="M213.89,439.67c-2.49-1.92-3.25-4.62-3.16-7.57.26-8.58-5.54-15.73-5.71-24.32,0-1.38-6.57-4.85-3.07-5.42,7.57-1.23,2.39-6.15,4.2-8.59Z"/><path class="cls-106" d="M331.54,1254.49c3.22,5.41,6.83,10.57,8.11,17a56.23,56.23,0,0,1-.17,21.09A285.62,285.62,0,0,1,331.54,1254.49Z"/><path class="cls-107" d="M388.22,969.36l3.14-1.6c3.14,10.34,10.61,19.57,8,31.39A127.77,127.77,0,0,1,388.22,969.36Z"/><path class="cls-108" d="M356.63,605l-2.79.19a45,45,0,0,0-8.07-17.88c-1.63-2.09-1-4.55,0-6.57.25-.55,3-.47,4.23.15s5.37,2.49-.46,3.09c-2.26.24-.23,3,.49,3.45,3.29,1.86,3.29,5.65,5.31,8.19C356.06,598.67,357.2,601.7,356.63,605Z"/><path class="cls-109" d="M72.24,220.61c-3,1.86-5.58,1.91-5.61-2.39,0-4.06.7-8.12,1.08-12.19a1.71,1.71,0,0,1,2-1.78c1.36,0,2.62-.08,2.68,1.8.09,3.27,2,5.8,3.39,8.57Z"/><path class="cls-10" d="M309.64,436.69c.8-.6,2.17-1.85,2.32-1.72,3.45,3,3.07,18.21-.45,21.67-.15.15-.49.1-.75.14C309.34,450.14,309.84,443.39,309.64,436.69Z"/><path class="cls-110" d="M281.47,260c5.95,2.17,12.59,2.84,17.19,7.93-3.59-.74-7.12-2.29-10.51,1-1.5,1.46-3.29-.31-4.84-1.07Q282.4,263.94,281.47,260Z"/><path class="cls-111" d="M437.07,1032.31c2.54-.43,6,.94,6.5-3.42l7.63,15.91C444.18,1043.26,442.59,1035.55,437.07,1032.31Z"/><path class="cls-112" d="M350.59,553.44c-3.12-4.49-1-9.58-1.63-14.35l.75-28.08C351.87,525.11,350.31,539.29,350.59,553.44Z"/><path class="cls-113" d="M354,844.59l4.63.11c3.54,3.4,2.53,7.7,2.33,11.84-.24.27-.48.54-.73.8-2.11-1.28-3.17-.5-3.44,1.79Z"/><path class="cls-114" d="M49.8,525.1c9,3.42,9.86,5.25,5.31,10.69C52.2,532.79,50.93,529,49.8,525.1Z"/><path class="cls-23" d="M347.82,488.48c-2.37-6.14-8.67-11.92-1.77-18.93Q346.93,479,347.82,488.48Z"/><path class="cls-12" d="M306.9,1137.76l2.3.19c-1.26,5.27,6,10.08.82,15.56Q308.46,1145.64,306.9,1137.76Z"/><path class="cls-10" d="M308.07,424l2.81-3.37c1.32,5.57,1.18,10.85-1.21,16C307.07,432.69,308.49,428.24,308.07,424Z"/><path class="cls-115" d="M306.67,1118.87a13.48,13.48,0,0,0-.08,7.83c-.46.7-.63,1.66-1.66,1.83-1.75-3.57-2.11-7.46-2.68-11.31C303.89,1117.31,305.64,1117.12,306.67,1118.87Z"/><path class="cls-12" d="M304.93,1128.53l1.66-1.83c1.06,1.65,2.79,2.59,3.32,4.89.85,3.72-.82,3.81-3.48,3.41C304.89,1133.08,305,1130.78,304.93,1128.53Z"/><path class="cls-28" d="M257.69,208.11c8-.81,6,5.15,6.41,9.5C261.6,214.69,259.06,211.79,257.69,208.11Z"/><path class="cls-52" d="M322.58,622.47c5.89,3.69.92,8.47,1.28,12.71C321.82,631.1,322.66,626.74,322.58,622.47Z"/><path class="cls-116" d="M92.91,176.5c-5.13,6.94-12.6,12-16,20.31-3.57,2.24-4.88.6-4.38-2.89,1-6.84.74-14.15,4.6-20.1,3.5-5.4,1.63-8-3.31-10.13a3.28,3.28,0,0,1,0-1.43c1.5-3.88,4.91-6.21,7.37-9.31,2.25-2.57,4.32-5.26,6.45-7.91,1.73-2.15,3.65-4,6.56-1.72,4.08.06,5.08-3.15,6.39-6,6.18-10.3,14.78-17,27.07-18.12,3.49,2.33,3,6.27,3.89,9.65.41,1.94,0,3.91.21,5.87-.06,6.55,3.66,13.22-.53,19.65-4,1.37-5.78-.62-6.56-4.28-.72-3.43-3.63-3.79-5.2-1.86-5.11,6.28-13,8.71-18.52,14.32C97.1,166.46,93.83,170.82,92.91,176.5Z"/><path class="cls-117" d="M22,312c-1.61,4.9-5.23,5.52-9.31,3.86-3.48-1.42-7.87-1.81-6.71-8.18.83-4.57,1.83-9.87-1.11-14.47a155.58,155.58,0,0,1,10.6-38c1.76-1.75,3.5-3,5.06.2-2.32,8.85,1.41,16.91,4.25,24.7,1.69,4.64.85,7.51-1.34,11.28-3.23-3.28-3.71-8.52-9-9.52-3.5-.66-5.78.27-4.6,3.62,3.22,9.17,7.12,18.09,10.81,27.09Z"/><path class="cls-45" d="M56.61,219c-4.62.94-7.07,3.1-4.83,8.17,1.4,3.17,1.9,6.4.3,9.74-1,2.13,1.41,6-2.28,6.52-2.55.37-5.39-1-6.69-4.9-2.28,5.33,2.74,11.88-3.93,15.1-8.93-7.39-10.43-17.64-10.86-28.3l1.78-3c4.55-1.46,7.53.87,10.1,4.2.95,1.54,1.53,3.3,2.74,4.68.88,1,2,2,3.34,1.28s.8-2.21.54-3.47c-2.48-11.93.91-23.56,1.85-35.31,1-1.08,2-2.15,3.08-3.23,6.65-3.58,10.81-1.81,10.13,5C61.09,203.49,60,211.57,56.61,219Z"/><path class="cls-118" d="M51.68,110.44a57.94,57.94,0,0,1-3.09-21.93c-2.24-11.81,1.24-23.36,1.53-35.06h0c2.19-1.44.71-4.63,2.82-6,3.49-2.33,5.71-1.21,6.77,2.71-1.48,16.23-2.15,32.43,1.64,48.48a10,10,0,0,1-.45,6.19C58.33,107.52,56.09,110.76,51.68,110.44Z"/><path class="cls-119" d="M28.32,225.37c3.5,9.47,5.1,19.69,10.86,28.3-.75,1.61-1.54,3.19-2.23,4.82-2.19,5.21-5.12,5.69-8,.84-2.05-3.44-4.71-4.47-8.36-3.94-1.64-1.18-3.34-.95-5.06-.2C18.11,244.53,22.8,234.77,28.32,225.37Z"/><path class="cls-120" d="M48.67,193.76a21.35,21.35,0,0,1,.51,12.85c-1.94,7.76-2.73,15.82.82,23.61a3.48,3.48,0,0,1-1.5,4.72c-2,1.18-3.77,1.44-5.58-.43-2.05-2.1-3.86-4.24-3.76-7.4-1.15-4-5.35-5.09-7.6-8C35.62,209.52,42.19,201.68,48.67,193.76Z"/><path class="cls-121" d="M58.27,49c-6.64-5.65-4.42,4.85-8.16,4.5,3-18.25,9.15-34.65,25.47-45.36-1,2.75,4.32,9-4.64,7.45-3.08-.54-2.21,4.1-2.5,6.15-.36,2.51,2.51,2,4.09,1.51a24.74,24.74,0,0,0,4.65-2.68c1.94,3.69-1.09,5.13-3.22,6.8-2.41,1.9-5.43,3.12-6.63,6.3C64.29,38.74,64.46,45.75,58.27,49Z"/><path class="cls-122" d="M56.61,219c-.55-7.08,1.62-13.75,3-20.55,1.7-8.31.48-9.43-7.87-8C56.25,181.2,63,173.72,71,167.3c-7.19,10.85-7.77,22.57-5.13,35,1.8,8.45-4.78,13.57-9,19.51C56.75,220.87,56.68,220,56.61,219Z"/><path class="cls-123" d="M81.86,154.43a23.77,23.77,0,0,1-8,7.83c-3.22-7.08-8.63-13-10.8-20.64,1.49-1,3.66-1.35,3.81-3.76.77-3.34,1.41-7.55,5.62-7.27a7.45,7.45,0,0,1,7,8C79.27,144.09,83.67,148.78,81.86,154.43Z"/><path class="cls-124" d="M67.75,138.64c-.12,1.43,2.29,3.15.31,4-1.28.57-3.33-.64-5-1-4.81-10-10-19.9-11.34-31.18,3.06-.92,3.62-5.87,7.86-4.92,4,1.39,3.62,5.15,4.42,8.23.77,2.91.18,6.15,2.08,8.81C68.23,127.75,69.28,133.06,67.75,138.64Z"/><path class="cls-121" d="M50.12,53.45c2.44,3.33,1,7.09.44,10.35a140.32,140.32,0,0,0-2,24.71C45.68,76.68,47,65,50.12,53.45Z"/><path class="cls-119" d="M31.56,219.08c4.73.58,7.38,3.16,7.61,8-2.52-2.56-6-3.26-9.07-4.73C30.58,221.28,31.07,220.18,31.56,219.08Z"/><path class="cls-125" d="M65.9,32.93c-.37-3.4,2.45-4,4.44-5.55,2.49-2,6.77-2.39,6.84-6.84,10.61-8,21.9-11,34.48-4.79,7,4.52,14.09,8.7,20.83,13.63,4.65,3.4,6.24,6.85,7.58,12.65-2-1.11-3.45-1.43-4.07-2.32-4.11-5.94-9.69-8.59-16.85-8.55a7.15,7.15,0,0,1-4.86-2.1c-8.37-9.54-20-9.07-28.77.63-5.16,5.69-11.83,10-14.78,17.58-4.53,4.23-5.91.39-5.26-2.82C66.27,40.51,65.18,36.72,65.9,32.93Z"/><path class="cls-126" d="M182.45,342c0,1,0,2.07,0,3.1.42,13.89,1.75,27.65,9.27,39.79,7,11.25,5.48,24.17,7.87,36.32,4.16,21.25,5.82,42.81,8,64.31.65,6.41,4.74,12.55,1.17,19.25-.33.62-.41,2.07-.16,2.19,10.37,5,7.44,15.6,9.59,23.78,3.62,13.83,5.4,28.09,9.06,41.95,2.3,8.7.45,17.3-3.78,25.53A43.42,43.42,0,0,0,217,584.67,445.93,445.93,0,0,1,204,529.13c-2.85-17.26-6.75-34.7-13.21-51.41-3.95-10.26-7-21.38-5.38-33,.52-3.68-1.14-7.18-2.46-10.61-4.15-10.73-7.13-21.83-10.45-32.82a130.88,130.88,0,0,1-3.61-22.27c3.8-3.8,4.94-8.35,3.89-13.57-.82-4.06-1.54-8-.31-12.29,1.07-3.73-1.23-6.34-4.73-8.37-1.66,2.67,0,9.11-6.53,6.14-1.43-2.89-2.58-5.82-.92-9,.09-1,.17-2.08.26-3.13a130.58,130.58,0,0,1-3.81-30.1c-.92-10.26-2.58-20.38-6.22-30.08-3.71-6.77-2.86-14.43-4.24-21.65-.49-2.78,2.07-5.45-.63-8.56-2.07-2.38-1.58-6.08,1.41-8.15,3.6-2.49,6.21-.55,8.21,2.66,2.18,20.44,11.34,39.37,11.58,55.72-.9-4.71-2.52-13.71-1.93-23,4.3-1.71,5.34,1.25,6.53,4.37,1.43,3.75-.22,7.86,1.55,11.52.4,11.36,6.17,21.67,6.36,33.07C181.76,330.14,183.76,335.76,182.45,342Z"/><path class="cls-127" d="M174.47,400.32c3.38,10.81,6.39,21.75,10.28,32.38A43.33,43.33,0,0,1,187.52,450c-.52,13.08,3.38,25.93,8.4,37.53,3.77,8.69,4.42,17.48,6.63,26.17,5.66,22.14,6.89,45.32,15.46,66.8a3.28,3.28,0,0,1-1,4.21c-2.85.33-5.87,1.69-3,4.5,6.82,6.6,7.95,13.85,4.71,22.34a10.68,10.68,0,0,0-.21,3.07,2.11,2.11,0,0,1-2.3,0c-3.95-12.91-11.26-25.08-8.82-39.44-2.63-12-7.43-23.47-9.42-35.73-1.8-11.12-7.43-21.71-6.28-35.19-4.06-3.38-5.17-9.95-7.19-17.62-2.38-9.06-4.34-18.57-6.71-27.73-2.6-10.07-3.8-20.65-5.24-31-1.38-9.94-5-20.22-8.58-30.05a16.79,16.79,0,0,1-.45-3.86C168.61,393.67,170.93,398,174.47,400.32Z"/><path class="cls-128" d="M207.44,575.18c1.06,13.67,7.34,26.07,9.63,39.43,3.71,5.92,3.94,12.75,4.88,19.35.54,3.78.66,7.6,2.69,11-.44,3.54,1.35,6.29,3.16,9-3.31,11.21,4.09,20.7,5,31.24.43,12.75,3.06,25.17,5.32,37.66,1.53,8.42-.51,12.4-6.9,14.49-4.12-9.71-8-19.47-9.67-30-3.56-22.57-7.42-45.08-10.93-67.66-3-19.52-9.15-38.33-13-57.64-.56-2.79-.61-5.69-.9-8.53,6.72-3.82,5,1.12,4.21,4.76A8,8,0,0,0,207.44,575.18Z"/><path class="cls-129" d="M235.75,636.75c-4.32,7.74-2.48,15.66-.85,23.63,3,14.71,5.89,29.45,8.8,44.18.2,1,0,2.24.41,3.09,7,12.64,6.09,27.33,10.5,40.83,3.64,11.16,3.9,24.23,4.6,36.51.34,6,4.33,11,3.36,17.12-5.07.15-7.67-4.29-11.59-6.25a20,20,0,0,1-1.83-11.8c.51-3.6-2.32-3-3.21-4.62-3.69-10.38-5-21.33-6.38-32.09-2.62-20.74-5.56-41.44-7.56-62.24-2.55-7.75-1.64-16.17-4.69-23.89-.91-2.3.51-5.1,2.24-7.22a70.31,70.31,0,0,0,0-7.82C229,641.18,230.58,637.84,235.75,636.75Z"/><path class="cls-130" d="M224.64,644.94c-1-.24-2.33,3.42-2.91-.31q-2.34-15-4.67-30l1.5,0c5.85-1,8.35,3.28,7.36,7.25C224,629.59,225.5,637.28,224.64,644.94Z"/><path class="cls-130" d="M229.55,654c-.61,10.15,2.65,19.9,3.07,30-.5.72-1,.77-1.54,0-3.22-6.71-3.32-14.39-6.79-21.14-1.53-3,1.58-6.15,3.51-8.85Z"/><path class="cls-131" d="M147.78,256.9c2.89,7.06.75,15.21,4.76,22-3.63.3-10.3,7.39-8.79-4,.13-.94-2-1.37-3.26-1.77a7.14,7.14,0,0,1-3.75-2.05c-2.05-.47-3.87-1-1.32-3.32,1.21-1.09,1.22-2.12-.16-3.09-.43-.28-1.24-.73-1.17-.9,2.35-6.63-4.22-11.33-3.64-17.56-2.31-.37-3.68,3.6-6.23,1.19-3.54-7.91-4.63-16.57-7.51-24.67-.78-2.2.44-1.82,1.25-2.56,2.25-2.08,1.52-4-1.19-4.22-7.08-.56-8.52-6.6-11.58-11.13,1.46-6.29-.8-13.15,2.93-19.09,2.23.53,1.33,3.66,3.57,4.36.79-2.77-.56-5-1.49-7.27,1.89-2.64,5.46-1.25,7.64-3.2,6.3,5,8,13.07,12.66,19.16,1.72,2.27,2.06,6.25,6.38,5.51,2.7-.06,3.15,4.22,6.32,3.29a7,7,0,0,1,3,2.92,11,11,0,0,1,1.32,3.09c-3,9.51-1.06,19.38-2.08,29C145,247.61,147.15,252.13,147.78,256.9Z"/><path class="cls-132" d="M158.41,307.33c-.14,10.55,4.09,20.8,2.1,31.47-9.08,2.13-9.42-7.27-10.06-10.62-1.88-9.73-5.87-18.41-8.9-27.58a43.22,43.22,0,0,1-1.76-16.73c1.77-3.38,3.59-2.21,5.11.11,1.72,2.63,3.09,5.71,2.59,8.77-1,5.94,3.78,9.38,5.5,14.11,1.09,3,1.46-.42,1.93-.69C156.71,305.15,157.75,305.39,158.41,307.33Z"/><path class="cls-133" d="M158.41,307.33c-3.95-2.4-2.81,3.67-5.51,3.33-2.92-6.82-8.88-12.36-7.8-20.94.26-2,.46-7.6-5.31-5.85l-1.34-.26c-.45-4.55-.34-9,3.1-12.55,2.24,2.11,10.35,2.18,2,7.61,3.42,2.15,6.26-2.21,9,.26C156.4,288,157.55,297.64,158.41,307.33Z"/><path class="cls-134" d="M174.47,400.32c-5.34.82-7.09-4.54-10.9-6.35.26-10.33-6.26-19.56-4.89-30.08,2.79-2-1.94-7.47,3.79-8.07,6.95,6,9.71,13.37,7.29,22.43Z"/><path class="cls-135" d="M124.22,247.43a4.05,4.05,0,0,0,3.62-2.48c1.21-2.22,2.32-.4,3.67,0,1.59.44,2.59,1.05,1.8,2.5-3.9,7.2,2.8,5.89,6.06,7.6.13,3.82-8.48,4.14-4.11,9.68C129,260.63,124.63,255.29,124.22,247.43Z"/><path class="cls-136" d="M161.88,356.09c-3.28,1.69,3.55,7.54-3.2,7.8-1.25-3.85-2.6-7.68-3.73-11.58-1.47-5.05-2-9.79,5.3-10.38.66,3.17,1.33,6.33,2,9.49A3.28,3.28,0,0,1,161.88,356.09Z"/><path class="cls-135" d="M141.55,271.06c-1.33,4.11-.37,8.79-3.1,12.55a14.1,14.1,0,0,1-1.71-12.51Z"/><path class="cls-128" d="M193.14,557.93c-3.33-4.69-3.67-10.28-4.68-15.67C190.43,547.36,195.93,551.41,193.14,557.93Z"/><path class="cls-137" d="M251.66,795.8c5.33-.84,7.08,4.54,10.91,6.31,6.69,12.25,4.26,26,6.14,39,.59,4.06.24,7.79,4.15,11s-2.69,7.4-.76,11.47c1.91,2.06,1.52,4.15,0,6.25,0,1.73-.52,3.57,1.31,4.78-1.13,13.66.17,27.26,1.92,40.75,2,15.66,5.08,31.18,7.57,46.77.7,4.35,1,8.76,1.43,13.15-.4.67-.79.66-1.16,0-3-4.2-1.67-9.86-4.78-14-2.43-10.94-1.62-22.52-6.4-33-1.12-11.8-2.13-23.66-8-34.35-2.27-4.16-1.1-8.62-1.46-12.94,2.77-.79,3.13,1.71,4.51,3.79.35-7.36.86-14.23-1.68-20.51-4-9.94-4.72-20.58-7.51-30.76-.55-2-1.45-4.51-.16-6.09,6.32-7.73.25-13.63-2.54-20C253.6,803.62,250.45,800.39,251.66,795.8Z"/><path class="cls-34" d="M272.15,869.84c0-2.08,0-4.17,0-6.25,2.77-1.61,4.39-.26,4.87,2.34C277.7,869.83,274.29,869.18,272.15,869.84Z"/><path class="cls-138" d="M306.77,1018.12c-.64,2.49,3.5,5.22-.39,7.57a7.21,7.21,0,0,0-1.27,1.26c8.53,1.2-5.86,13.63,6.36,13,1.67.25,3.34,1,2.88,2.86-2.33,9.24-.68,18.08,2.23,26.84.64,1.94-.62,2.81-1.94,3.67-4.23-2.57-5-7.12-6.54-11.28l-7.89-33c.49-3.86.39-7.47-2.35-10.78-2.45-3-1.84-7-2.32-10.53-.39-2.86.07-6.43,3.54-6.89,3.23-.43,5.69,3.22,5.57,5.42C304.43,1010.53,307.49,1014,306.77,1018.12Z"/><path class="cls-139" d="M22,394c-6.34.38-9.69-4.63-14-7.81,4.06-3.07,2.24-5.92-1.13-8.71,8.66-1.22,15-.12,15.46,9.81a1.29,1.29,0,0,0,.26.72c1.55,1.75,6.84-1.71,5.41,3.6C27.66,392.72,22.86,389.88,22,394Z"/><path class="cls-140" d="M65.9,32.93C67.57,36.45,70,39.52,67.17,44c-2.1,3.37,0,4.69,3.57,3.28.09,2.16-1.82,3-2.85,4.45-2.07,2.88-6.87,4.89-1.13,9.57,2.61,2.12,1.73,7.78.4,11.28-4.41,11.61-2.86,22.93.22,34.36.27,1,.64,2.27.26,3.08-2.67,5.71.31,10,3.21,14.45-2.55,1.32-4.27-1.18-6.49-1.41-2.7-5.54-1.64-12.12-4.82-17.53-1.08-13-3.56-25.77-3.36-38.95.09-6.09,1.88-11.7,2.09-17.6Q62.08,40.94,65.9,32.93Z"/><path class="cls-141" d="M96.11,50.68l-3.44,6c-2.81-1.87-5.13-3.93-7.1,1.41C82.7,65.91,79,73.35,82.28,81.91a3.35,3.35,0,0,1,0,3c-5.33,4.51.64,8.18.92,12.27a50.38,50.38,0,0,0,4.52,21c1.67,3.68,3.11,8-1.44,11.21-7.53-2.39-10.07-6.62-10.23-15.32-.16-8.15-1.16-17-1.81-25.14-.59-7.33.4-16,1.66-24,1.36-8.65,7.43-15.21,9.78-23,1.75-5.89,4.61-5.53,8.61-5.6,2.76-.05,4.81-1.86,7.19-2.82,2.18-.88,4.44-3.51,6.9-.38-.68,3.36-3.3,5.57-4.93,8.37C94.45,39.27,96.54,46,96.11,50.68Z"/><path class="cls-142" d="M81.63,84.85,81.75,82c1-2.44,2.54-4.82,5.34-4.82,3,0,.8,3.61,2.53,4.78Q92,99.25,94.38,116.59c.66,4.81,2,9.52,2.55,14.35.36,3,.33,6.05-4.27,4.71-2.16-2-5.24-3.14-6.36-6.25a12,12,0,0,0-.48-10.5c-3.87-7.16-4.95-14.73-4.15-22.7C81.46,92.42,76.89,88.65,81.63,84.85Z"/><path class="cls-143" d="M103.6,41.12c-1-4.22,2.4-5.82,4.8-8l6.32,5c3.68-.43,5.93,1.87,7.59,4.54,4.77,7.75,9.25,15.67,9.72,25.12l.06,3.11c-2,1.87-4.06,1.66-6.07,0C121.65,60,118.75,48,105.43,44,104.2,43.4,103.17,42.74,103.6,41.12Z"/><path class="cls-144" d="M64.36,123.05c3-3.52,4.22,1.45,6.49,1.41,3.86,4.56,7.77,9.07,11.57,13.68,2.44,3,5.75,1.81,8.77,2.14,1.78.2,4.92-.87,3,3-6.94.55-7.11,8.67-12.36,11.11-1.14-4.82-4.52-9-4-14.28.32-3.62-.5-7.28-4.2-8.19-5.2-1.28-3.47,4.76-5.85,6.68Z"/><path class="cls-145" d="M132,67.77c-2.57-5.94-5.27-11.83-7.66-17.84a23.3,23.3,0,0,0-9.65-11.82c6.9-4,20.59,2.59,17.79,8.52-3.89,8.22,4.67,11.76,2.67,17.86Z"/><path class="cls-146" d="M92.66,135.65c5.06-1.33,3.38-5.37,2.78-8.29-.74-3.6-1.42-7.1-1.06-10.77q2.28,9.43,4.55,18.88C96.88,137,94.94,142.14,92.66,135.65Z"/><path class="cls-147" d="M330.17,422.37c-5.61-4.3-11.59-8.19-15.7-14.15-.44-4.59,2.1-8.37,4.8-11.16,4.85-5,1.78-7.74-2.14-9.79-7.5-3.92-7.09-9-1.92-13.84,2.22-2.1,0-4.64,2.11-6.06,4.63,3.27,9.89,5.75,13.14,10.72-1.79,3.53.73,6.73,2.64,7.93,5.63,3.51,3.83,8,.67,10.23-4.26,3-2.15,4.41.06,6.25,5.09,4.21,8,14.09,5.46,19.94-.86,2-2.51,4.24-4.13.82C333.62,420,332,421.69,330.17,422.37Z"/><path class="cls-148" d="M322.35,329.32c-2.64-9.1-7.85-16.63-14.21-23.47,1.54-7-5.42-5.61-8.23-8.3-1.11-1.05-4.12-.34-3.48-3,.45-1.88,2.6-1.29,4.08-1.37,4.52-.27,6.06-1.86,2.52-5.65-.85-.91-2.45-1.46-.81-2.89a2,2,0,0,1,2.84.15c4.85,4.57,10.43,7.34,16.82,9.68,5.28,1.93,5.38,10.3,4.42,14.43-1.63,7,1.74,13,3.06,18.42,1.59,6.54-2.45,12.93,1.35,19,1.13,1.79-2,2.41-3.08,1.87-3.86-2-10.64-.57-8.49-9.57C319.93,335.26,319.09,331.78,322.35,329.32Z"/><path class="cls-149" d="M309.82,271c6,1.37,6.08,7.39,8.87,11.28l-2.54,1.25-9.72-10.73C307.73,272.54,309.13,272.44,309.82,271Z"/><path class="cls-133" d="M306.77,1018.12c-4.75-4.38-1.36-12.69-8.21-16.45-2.15,5.65-2.32,11.07,1.1,16.14,2.52,3.74,3.58,7.31.55,11.2-4.77-8.16-6.55-17.13-7.82-26.41-1-7.51.82-16.23-7.47-21.51-1.29-.81-1.17-3.83-1.71-5.83a11.43,11.43,0,0,0,1.17,0c4.27-2.58,9.29-3.9,12.84-7.69.51-.06,1-.09,1.55-.1,1.82,1.84,3,3.85,1.7,6.49,0,.49-.08,1-.14,1.46-6.67,2.65-3,8.19-3.3,12.48s3.31,4.43,6.29,5c2.76,2.86,4.55,5.67,3.59,10.24-.8,3.86-1.11,8.22,1.93,11.94C310.3,1016.93,308.4,1017.75,306.77,1018.12Z"/><path class="cls-37" d="M234.42,143.24l4.57.22c1,2.08,2.76,2.76,5,3.16,7.82,1.41,14.73,4.32,18.85,11.86,1.17,2.15,4.4,3.75,1.72,6.53-2.3,2.38-4.33,1.46-6.33-1.13a3.85,3.85,0,0,0-6.14-.27c-1.9,1.92-.89,3.52.58,5.38,5,6.38-4.07,2.94-4.15,5.85-.82,1.6-2.35,1.86-4.82,2.61,1.73-3.9,2.22-7.09-1.68-9.18-1-.52-2.14-2.26-1.93-3.14,2.61-11.14-7.07-7.74-11.82-9.88-1-.48-3.29.77-3.79-1.17-.63-2.48,1.9-2.82,3.4-3.43C231.36,149.25,237,150,234.42,143.24Z"/><path class="cls-28" d="M253.19,179.62c5.47-2.35,11.11-5.46,14.05,3.22C262.42,182.36,257.37,182.9,253.19,179.62Z"/><path class="cls-150" d="M352.27,608.26c1.45.75,3.24,2,2.85,3.41-2.52,9.18,1.19,17.87,1.75,26.78.38,6-2.41,3.31-4.71,1.42-3.56-2.42-3.11-7.82-7.28-9.78a10.69,10.69,0,0,0-.53-1.32c.07-2.8-1.39-5.07-3-7-8.15-9.56-9.42-20.36-6.15-32.07a46,46,0,0,1,8,13.08C346,610.14,346.13,610.09,352.27,608.26Z"/><path class="cls-151" d="M165.18,93c1.83.11,4.43-2.29,4.79,2.15.29,3.46,2,6.76,2.72,10.21.76,3.65,2.8,2.75,5,1.8-.39,2.25-.77,5.34-3.27,5.28-2.77-.07-2.15-4.14-4.08-5.86-4.05,1.57-4.08,7.29-8.57,8.29A103.63,103.63,0,0,1,165.18,93Z"/><path class="cls-152" d="M126,70.85l6.07,0c3.63,3.36,2.12,8.82,5.06,12.48a3.44,3.44,0,0,0-.78.47,16.63,16.63,0,0,0-2.17,13.91c.85,3.39,2.16,7.89-3.38,9.41C129.81,95,128.79,82.8,126,70.85Z"/><path class="cls-153" d="M146.17,212.71,144.76,211c1-1.47,2.6-2.12,3.85-3.23,2.89-3.56,1.73-6.23-1.76-8.43-3.65-2.31-4.57-5.73-3.18-9.56,1.16-3.2,1.34-6-.6-8.95-.58-.85-1.07-2.09-.5-3,5.69-8.83,2.13-16.63-2.54-24.35a3.89,3.89,0,0,1-.27-1.55c.18-4.39-.33-8.75-.23-13.12.06-3.07,0-6.31,3.49-7.9,4.58,1.85,2.35,7.07,4.9,10.58s5.05,2.61,6.66,2.73c5.76.42,8.29,2.42,6.76,8-1.7,6.17-.86,10,6.25,11,2.61.38,2.22,3.19,2.38,5.24-1.45-.19-2.76-1-3.34,1.62-2.15,9.73-1,19.65-1.94,29.44a2.42,2.42,0,0,0,2.44,2.57c1.92,0,4.87-4.75,5.38.8.3,3.39-3.2,3.5-5.89,3.53C159,216.48,154.11,218,146.17,212.71Z"/><path class="cls-154" d="M146.17,212.71c8.8,4.39,14.13-2.55,20.45-6.27l1.35,9.78c1.35,5,4.87,9.77,1.68,15.28-2.13,2.38-1.16,5.24-1.2,7.93-1.36,2.24-3.44,2.88-5.9,2.71-3-1.66-5.87-2.63-8.57.47-2.12-1-4-3.69-6.64-1-1.67,1.73-1.73,4.86-.67,5.59,4.43,3,1.05,6.45,1.11,9.65-4.64-9-2.22-19.24-4.67-28.51C141.45,222.12,146.72,218.18,146.17,212.71Z"/><path class="cls-155" d="M162,241.09l6.42-1.66c1.84,1.16,1.25,3.1,1.51,4.77,2.64,4.5.75,9.48,1.48,14.18l0,.05a18.65,18.65,0,0,0-.31,12.95c2.11,6.5,2.17,13.35,1.8,20.16-2.78-2.36-.74-5.86-2-8.56s-.93-6.89-5.46-7.26C160.28,264.58,157.8,253.17,162,241.09Z"/><path class="cls-156" d="M169.65,231.5c.78-5.24-3.85-9.89-1.68-15.28,1.73.18,5.5-.52,4.84.7C170.25,221.61,178.87,228.64,169.65,231.5Z"/><path class="cls-47" d="M171.44,258.38c-3-4.47-1.28-9.42-1.48-14.18C175,248.45,173.1,253.43,171.44,258.38Z"/><path class="cls-157" d="M418.28,1005.47c1.28,2.8,5.12,4.37,3.51,8.65-.62,1.63.88,2.93,3.31,3,4.43.08,5.39,2.27,2.52,5.84l.05,0c-6.91-.62-2.39,5.57-4.61,7.76h0c-2.8-.35-3.51-5.6-7.74-3.06-1.84,1.11-1.58-1.08-1.72-2.22-1.14-9.37-6.15-17-11-24.73-1.24-2.81-1.34-5.68,2-6.7,2.67-.83,5.54-.42,6.57,3.28.74,2.71,3.15,3.93,5.53,5C417,1003.45,416.9,1004.82,418.28,1005.47Z"/><path class="cls-158" d="M358.45,825.83c-1.32-.63-1.43-1.87-1.56-3.11,2.45-4.65.86-9.72,1.49-14.56.31-2.35.31-5,3.23-5.65,2.56-.58,4.4,1,6.19,2.63,3.85,3.6,6.15,8.47,5.63,13.21-1,9,4.8,16.19,5.25,24.63.09,1.59,2.86,4.12-1.18,4.77C370.2,841.28,360.82,836.62,358.45,825.83Z"/><path class="cls-159" d="M384,893.45c-2.62-2.86-5-6-7.89-8.53-6.37-5.65-11.06-12.19-12.42-20.79a13.92,13.92,0,0,0-3.51-6.79l.69-.12c2.35-1.42,4.11.08,5.46,1.53,4.65,5,10.54,8.36,15.73,12.62,7.36,4.75,6.26,13.19,7.94,20.08C391.18,896.29,386.31,893.34,384,893.45Z"/><path class="cls-160" d="M382.06,871.37c-6.36-.62-10.28-5.16-14.63-9.06-2.06-1.85-3.51-4.53-6.56-5.09-2.39-3.87-1.48-8.36-2.29-12.52a6.43,6.43,0,0,0,.06-1.52c5.8-1.21,9.5,1.75,12.42,6.26,0,4.26,1.83,7.62,5.69,9.15C383.14,861.12,383.4,865.82,382.06,871.37Z"/><path class="cls-113" d="M371.06,849.44l-12.42-6.26c-3.67-5.74-.44-11.56-.19-17.35,4.88,8.59,14.08,13.41,19.05,21.92l6.85,9C378,855.73,375.31,851.12,371.06,849.44Z"/><path class="cls-104" d="M231.08,684c.51,0,1,0,1.54,0,1,16.89,6,33.25,5.92,50.44,0,5.12,2.69,11.44,3.64,17.37,1.52,9.46,3.33,18.87,5,28.31,2.17,9.37,4.25,18.74,1.28,28.34C243.8,802,244,794,244.27,787.13c.34-9.37-5.63-17-5-26.22.12-1.82-4.26-3.94-6.56-5.92,2.43-6.11-.62-11.78-1.43-17.62,5.74-3.31,5.82-8.5,4.82-14.15C233.76,710.23,230.43,697.35,231.08,684Z"/><path class="cls-103" d="M382.18,910.67l-1.87,1.91c-4.09,1-5.42-2.18-6.29-4.82-.74-2.24,3.56.26,3.41-2.48C381.17,905.17,380.4,909.05,382.18,910.67Z"/><path class="cls-161" d="M360.19,702.81c.05,5,5.38,8.35,4,14.24-1.08,4.5-2.5,6.12-6.85,4.55-4.86-4.92-6.38-11.72-9.6-17.56-1.69-3.06-3.41-5.68-6.55-7.24-4.68-3.68-3.35-9.26-4.26-14.06-.7-3.7-.5-7.56-.71-11.34,3.59-2.24,4.43,1,5.67,3C347.83,684,352.78,694.18,360.19,702.81Z"/><path class="cls-162" d="M143,130.87c-3.52,7.13.16,14.75-1.5,22-2.16,2.81-1.51,7.7-6.31,8.54-3.12-1-2-3.33-1.22-5.06,2.06-4.61,1.92-9.63,2.88-14.42,1.07-5.29-4.5-5.91-7.68-8.08.35-1.56.71-3.12,1.07-4.68.08-.31.17-.63.25-.95,1.1-2.38,1.43-5,2.58-7.42,2.25-3,1.29-8.55,6.91-8.94Z"/><path class="cls-163" d="M140,111.86c-4.24,1.73-2,7.85-6.36,9.49-2.17.46-2.3-1.06-2.47-2.54-.28-1.8,3.09-3.83-.33-5.46l0-6.19c3.58-3.42,2.79-7.57,1.23-11.32-2.32-5.6-.7-9.3,4.33-12A110.86,110.86,0,0,1,140,111.86Z"/><path class="cls-31" d="M372.64,770.65c-1,.65-2.65,2.08-3,1.83-3-2.36-1.27-5.55-1.66-8.78,4.14,1.06,2.84,4.95,4.68,6.83Z"/><path class="cls-21" d="M423.06,1030.67c-1.82-7.86-.89-9.42,4.61-7.76C423.72,1024.05,426.38,1029.14,423.06,1030.67Z"/><path class="cls-34" d="M300.47,974q-.84-3.24-1.7-6.49c.18-1.27.16-3,1.61-3.22,2.05-.35,1.45,1.55,1.49,2.62.1,2.32,0,4.65,0,7A11.18,11.18,0,0,0,300.47,974Z"/><path class="cls-3" d="M182.45,342a35.66,35.66,0,0,1-3.13-17.37c1.94,2.51,5.23-.15,7.57,2.36C194.32,334.94,193.46,338.28,182.45,342Z"/><path class="cls-164" d="M248.48,808.41c-.79-9.43-2.73-18.81-1.28-28.34,1.16-.15,2.94-2.64,3.33.31.67,5.1.78,10.28,1.12,15.42,3.16,3.84,2.3,10.31,8.11,12.4-2.55,6.11,10,12.1.15,18.31-.57.35-1.23,1.47-1.06,1.94,2.79,7.52,1.56,16.15,4.57,23.13,5.36,12.4,6.71,24.68,4.83,38.7-3.47-2.82-2.41-7.49-5.65-9.33-2.44-6.11-1.58-13.05-4.75-19a45.43,45.43,0,0,0-3.23-17.28,154.93,154.93,0,0,0-6-34.92A2.78,2.78,0,0,0,248.48,808.41Z"/><path class="cls-165" d="M92.91,176.5c-.81-10.18,5.67-15.72,13.21-20.35,4-2.44,8.51-4,10.35-8.92,1.47-3.95,4.93-1.88,7.5-2.06,2.87-.2,3.59,1.7,2.68,4.18-1.28,3.46,1.86,3.73,3.51,5.08a2.72,2.72,0,0,1,1.22,2.93c-2.73,4.54-1.58,10.22-4.31,14.77a4.16,4.16,0,0,1-1.71,1.37l-1-.42c1-6.55-6.39-7.56-8-12.35-2.52-2.91-5.58-1.81-7.47.1C103.56,166.11,96.45,169.51,92.91,176.5Z"/><path class="cls-166" d="M136.88,205c-1.26,3.82-3,4.12-4.88.48-4.43-8.77-10.59-16.57-14.16-25.81-1-.84-2-1.65-2.87-2.53-2.18-2.08-2.6-4.92-1.07-7.09,1.65-2.36,3.64.32,5.43.9a53.2,53.2,0,0,1,5,2.15l.08.14c1,2.6.34,6,3,7.8,6.95,4.83,7.46,13.48,11.92,19.77C141.56,204,138.22,203.9,136.88,205Z"/><path class="cls-167" d="M110.2,182.85c3.73.11,3,3.6,4.06,5.63A3.91,3.91,0,0,1,111.7,194c-3.5.89-3-2.33-3.22-4.47-.13-1.26-.24-2.53-.36-3.8Z"/><path class="cls-34" d="M303.32,993c-5.32,5-7.2.64-8.25-3.49-.92-3.68-.88-7.65-.94-11.49-.1-5.86,4.28-1.28,6.2-2.53C304.56,980.73,301.22,987.31,303.32,993Z"/><path class="cls-153" d="M130.19,157.75l0-3.33c2.3-7,.32-13.76-1-20.57,8.05-.23,10.93,3.37,9.11,10.92-1.27,5.27-2.05,10.66-3.05,16,2.52,7.5.23,12.28-6.61,13.76C127.4,168.77,129.09,163.28,130.19,157.75Z"/><path class="cls-32" d="M130.84,113.35c1.4-.48,3.16-2.84,3.83-1.69,1.54,2.66-.78,4.71-2.62,6.54-1.5,3.55,1.34,7.58-1.23,11l-.56,0c-2.48-2.69-.23-6.86-3-9.47C128.81,117.77,130.78,116.1,130.84,113.35Z"/><path class="cls-168" d="M162,241.09c-.58,11.71,2.07,23.11,3.45,34.63,1.61,9.33,3.63,18.62,1.37,28.37-2.37-20.93-12.84-40-12.87-61.48C155.22,234.47,158.38,236.51,162,241.09Z"/><path class="cls-169" d="M161.88,356.09l.36-4.67c.62-1.35,5-.53,2-4.08-2-2.36.83-3.71,2.23-5,2.58-2.39,2.71,1,3.88,1.87,4.35,3.3,6.28,6.58,3.19,12.48-1.45,2.77,1.12,7.49,1.33,11.36.24,4.23,1.07,9.11-5.16,10.2C168.68,370.31,167.15,362.53,161.88,356.09Z"/><path class="cls-170" d="M129,174.92c4.5-3.64,6.38-8.45,6.22-14.16,2.9-2,2.58-6.54,6.27-7.89,8.1,5.46,7.71,16.27,5.34,21.16C143.74,180.5,151,186.5,145,191.8c-1.71,1.5.24,4.86,3.12,6.09,7.18,3.09,5.61,7.25,1.33,11.69a5.68,5.68,0,0,1-2.77-2.32c-2.17-4.07-2.41.15-3.47.8-5.43,5.81-3.63-3.22-6.3-3.08,3.82-3-1.38-3.44-1.51-5.35-.56-8-5.42-13.55-10.75-18.76-2.66-2.6-2-5.05-.22-7.65a2.88,2.88,0,0,1,1.24-.05l.84.62c.79,3.89,3.06,6.81,6,9.29,3.39,2,4.78-.32,5.84-2.86,1.42-3.39,1.43-6.93,1.08-10.82-4.45,3.88-.87,11.13-6.85,13.76-1.84-2.2-4.56-3.9-4.22-7.36Z"/><path class="cls-154" d="M143.18,208.06c.67-2.1-2.55-5.63.29-6.1,5.11-.86,4,5,5.95,7.62L144.76,211Z"/><path class="cls-171" d="M89.62,81.92c-2.66-6.67-5.25.39-7.87,0-7.47.39.13-6.48-3.75-7.81,3.29-6,2.62-13.41,6.9-19.05,1.67-2.21,2.91-4.86,6-5.37,2.49,2-1.41,5.35,1.76,7A86.07,86.07,0,0,0,89.62,81.92Z"/><path class="cls-172" d="M103.6,41.12,105.43,44c-3.83,1.23-6.4,4.22-9.32,6.73a17.77,17.77,0,0,1-.38-2.26c-.14-3.19-5.91-5.54-2.87-8.25C95.42,37.89,100.14,38.81,103.6,41.12Z"/><path class="cls-171" d="M81.63,84.85c-2.29,3.8,1.06,7.57,0,11.35-2.86-2.33-3.34-5.92-4.16-9.08C76.39,82.77,79.34,84,81.63,84.85Z"/><path class="cls-153" d="M130.82,129.21c.29-3.68-1.63-7.61,1.24-11,.06,1.29.32,2.47,1.58,3.15C133.66,124.31,134.16,127.45,130.82,129.21Z"/><path class="cls-173" d="M130.19,157.75c1.48,5.85-.34,11.48-1.16,17.17l-.19-.11c-1.76,1.1-2.18-.7-3.08-1.44l-.12-.2C128.39,168.39,124.81,161.74,130.19,157.75Z"/><path class="cls-174" d="M132,182.76c4.42-5.23,1.52-13.75,8.67-18.4a30.54,30.54,0,0,1-1.3,19.1c-.79,1.91-2.2,3.92-4.62,3.55-2.1-.32-2.61-2.32-2.74-4.26Z"/><path class="cls-175" d="M125.76,173.37l3.08,1.44c0,3.07,4.39,4.38,3.2,7.95h0C126.39,182,125.61,178,125.76,173.37Z"/></svg>