<svg id="Camada_1" data-name="Camada 1" xmlns="http://www.w3.org/2000/svg" viewBox="0 0 341.23 1731.15"><defs><style>.cls-1{fill:#a3a3a1;}.cls-2{fill:#efbf9c;}.cls-3{fill:#a2a4a0;}.cls-4{fill:#ddad89;}.cls-5{fill:#9e9f97;}.cls-6{fill:#cf9774;}</style></defs><polygon class="cls-1" points="115.37 261.27 267.78 1422.24 300.33 1397.13 138.77 224.91 115.37 261.27"/><path class="cls-2" d="M266.89,133.26c-2.8-51.17-29.12-90.62-70.89-115C153.43-6.55,109.36-7.14,63.1,23,23.84,48.64-.33,77,0,124.05c.36,51.77,27.88,89,68,116.66,15.61,10.75,31.24,22,47.53,32,3.49-3.12,4.07-7,3.09-11.35-5.57-10.88-16.8-15.49-25.53-22.89C85.53,232,71.76,230.09,75,215.68c4-18.16,10.52-36.28,26.12-46.86,9.29-6.32,20.34,3.42,28.46,9,8.54,5.83,3.18,14.84-2.94,19.45-19.8,15-15.66,30.68-3.26,47.4,4.86,6.37,8.56,13.86,16.39,17.42,22.22-3.4,41.77-10.07,56.13-30,10.82-15,33.48-12.86,46.91-28.85C253.67,190.25,264,179.11,265.88,162c-24.85-11.77-38.14,3.57-48.13,22.21-7.22,13.49-16,22.91-36.94,28.95,19.91-18.21,20.51-31.62-.09-39.9-14.62-5.87-15.78-17.06-17.84-30-5.3-33-21.54-44.94-49.53-37.92,2.92-13,19.53.41,22.51-11.81C134.64,74.79,118.4,76,106.48,71.31,96.64,67.44,82.77,69.94,82.71,52,82.65,31.49,97.85,40.32,107,37.27c2.7-.91,5.28-2.31,8.26-2.12-1,31.21,8.25,37.33,41.81,27.66,3.37-2.22,6.51-4.75,9.69-7.21,15-5.7,31.08-16.27,26.57,15.32-2.13,14.89,12.57,19,25.31,21,7.59,2.12,16.67,3.71,8.59,14.6-5.89,7.94-8.63,16.84-10.25,26.26-1.81,10.58.26,19.41,12.73,21.14,9.25,1.3,20.35,4,20.55-11.2C250.38,129.43,261.33,136.37,266.89,133.26Z"/><path class="cls-3" d="M243.11,1069c-9.5-66-25.17-131.93-26.33-198.1C216,826,210.12,782.27,202,739.27c-3.84-20.37,4.24-47.64-19.39-62.87C203,650.11,182,624.79,180.72,599c-2.86-56.18-14.23-111.25-21.55-166.78-4.89-37.16-10.95-75.25-9.45-113.4-13.85-13.18-16.74.17-16.59,8.68.21,13.36-3.75,26.7-.38,40,8.05,78.46,13.6,157.3,25.18,235.23,6.44,43.22,10,87.08,21.42,130,4.92,18.56.7,41.17,4.3,61.8,2,11.62-2.41,25.87,13.73,31.62,1.94.67,4.43,5.33,3.75,6.94-18.39,43.54-.56,86.6,2.54,129.57,3.26,45.22,11.5,90.1,17.56,135.12C244.3,1100.18,234.44,1077.54,243.11,1069Z"/><path class="cls-4" d="M266.89,133.26c-10.33-9-24.69-10.41-23.46,4.58,1.21,14.81-.06,13-11.23,10.6-9.44-2-14.45-5-8.87-14.41,4.31-7.27-.41-18.16,9.14-22.81,6.25-3,14.68-6.66,8.58-13.68C236.53,92.36,234,77,220.41,86.43c-3.16,10.32-5.35,18.24-17.39,5.28-12.85-13.82-19.69-34.14-40.56-39.84l-5.84,5.88c-5,13.36-4,30.66-23.07,34.66-4.43,5.33-8.58,1-12.79-.38-5.83-1.9-11.77-8-16.23,2.68-4.09,9.87-.43,16.63,6.64,22.34,7.77,6.28,13,6.94,14.8-5.87,1.56-11.27,9.67-3.35,11.85-.88,6.75,7.67,16.49,16.35,17.07,25.15,1.5,23,1.2,44.61,32,46.4-1.07,5.43,14.84,15.26-4.8,16.15-7.73.35-16.3,5.63-8.67,15.27,4.33,5.46,9,15.39,20.38,5,11.86-10.85,28.06-14.13,31.68-35.9,2.33-14,22.4-22,40.38-20.38Q266.39,147.61,266.89,133.26Z"/><path class="cls-1" d="M243.11,1069c-11.76,6.2-5.33,26.23-21.88,28.8,1.62,2.35,4.88,4.9,4.6,7C219.21,1156,238,1204.86,239,1255.41c.33,15.61-1.35,33.76,19.73,43.13,15.95,7.07,20.22,2.24,17.54-11.37-12.44-63.2-12.38-128.62-34.2-190.25C239.21,1088.75,242.62,1078.36,243.11,1069Z"/><path class="cls-5" d="M132.75,367.54c3.29-13.79,8.24-27.27,6.5-41.91-1-8.63,3.86-9.32,10.49-6.78-5.07-18.62-1.29-38.81-10-56.78-.5-8.43-3.89-15.07-11.76-18.92-13.76-.61-17.23,6-12.62,18.12,0,3.81.08,7.62.14,11.42C125.57,303.52,118.55,337.46,132.75,367.54Z"/><path class="cls-4" d="M115.37,261.27c.44-8.64,4.74-14.63,12.62-18.12-8.19-16.13-16-29.62,6.21-44.44,12.64-8.46,21.51-30.58-9.66-30.36-11.19.07-14.17-23.81-27.95-8.11-15.88,18.12-29,38.13-32.19,62.55-1.11,8.58,7,11.83,14.5,15.55C91.7,244.69,103.27,253.49,115.37,261.27Z"/><path class="cls-6" d="M133.55,92.41c36.82,7.83,23.36-17.81,23.07-34.68-12,6.37-26.33,7.06-34.36-2.12s12.37-21.5,1.79-35.35c-13.91,7-27.88,21.54-44.77,4.95-1.19,2.91-1.89,4.39-2.4,5.91C62.73,73,90.29,78.48,120.85,81.7,127,82.33,130.88,87,133.55,92.41Z"/><path class="cls-6" d="M162.46,51.87c5.85,20.77,33.77,25.4,35.43,51.16.57,8.8,18.15,3.31,25.45,0,11.39-5.2,1.07-11.37-2.93-16.6-21.74-7.75-22.19-7.93-14.49-26.3,2-4.78.05-9.76-1.68-9.25-12.05,3.43-15.73-17.27-28.39-9.51C171.05,44.33,166.91,48.34,162.46,51.87Z"/><path class="cls-3" d="M243.11,1221.87l7.95,38.51c.78,8.43,8.33,13.79,9.88,22,1.79,9.43,5.22,19-4.13,26.58h0c2.41,5.45,6.21,10.12,8.76,15.47,4.86,10.22,10.13,20.65-1.3,30.24,3,18.61,8.41,37.22,8.32,55.8s13.07,32.69,13.69,50.13c1.61,45.13,12.26,89.11,16.24,133.94,1.46,16.34,9.06,32.2,11.44,48.12,2.5,16.68,2.57,34.16,5.05,51.16,1.49,10.17,3.54,20.27,5.82,30.3.79,3.49,2.16,7.6,7.38,7,4.73-.53,4.59-3.75,5.9-7.65,8.17-24.22-2.06-47.72-4.08-71-3.18-36.78-8.53-73.64-13.35-110.4-5.48-41.71-10.76-83.46-17.39-125-4.6-28.8-5.56-58.51-9.87-87.25-3.59-24-4.26-49.32-13.84-72.12-3.46-8.26,4.22-16.14-2.15-23.18-6.33,2.17-10.87-.43-15.93-4.39S251,1220.67,243.11,1221.87Z"/></svg>