<svg width="56" height="56" viewBox="0 0 56 56" fill="none" xmlns="http://www.w3.org/2000/svg">
<circle cx="28" cy="27.5556" r="27.5556" fill="#EBC5C5"/>
<path d="M29.8497 15.1729L31.9716 19.6524H31.9714C32.2691 20.284 32.8471 20.7214 33.5151 20.821L38.2395 21.5397C38.7481 21.6155 39.2108 21.8875 39.5361 22.302C39.8616 22.7164 40.0259 23.2429 39.9967 23.7776C39.9675 24.3123 39.7468 24.816 39.3783 25.1893L35.9664 28.6811C35.481 29.1709 35.2596 29.8793 35.3746 30.573L36.1843 35.4977C36.2718 36.0256 36.1662 36.5684 35.8882 37.0189C35.6101 37.4694 35.1799 37.7946 34.6829 37.9304C34.1858 38.066 33.6579 38.002 33.2037 37.7513L28.9643 35.4327C28.3657 35.1038 27.65 35.1038 27.0514 35.4327L22.812 37.7513C22.3578 38.002 21.8299 38.066 21.3328 37.9304C20.8357 37.7946 20.4056 37.4694 20.1276 37.0189C19.8495 36.5684 19.7439 36.0256 19.8314 35.4977L20.6411 30.573C20.7561 29.8793 20.5347 29.1709 20.0493 28.6811L16.6196 25.1893C16.2506 24.8144 16.0305 24.3086 16.0029 23.7723C15.9755 23.2361 16.1427 22.7086 16.4712 22.295C16.7997 21.8814 17.2656 21.6116 17.7762 21.5398L22.5182 20.821C23.1865 20.7215 23.7644 20.284 24.0619 19.6524L26.1839 15.173C26.414 14.7002 26.8043 14.3329 27.2791 14.1427C27.7538 13.9524 28.2795 13.9524 28.7543 14.1427C29.2292 14.3329 29.6194 14.7002 29.8496 15.173L29.8497 15.1729Z" fill="white"/>
</svg>
