<svg width="56" height="56" viewBox="0 0 56 56" fill="none" xmlns="http://www.w3.org/2000/svg">
<circle cx="28" cy="27.5556" r="27.5556" fill="#F6D46F"/>
<path d="M44.4156 27.4156H40.2719C40.0063 21.0941 34.9062 15.9941 28.5844 15.7281V11.5844C28.5844 11.2656 28.3188 11 28 11C27.6813 11 27.4156 11.2656 27.4156 11.5844V15.7281C21.0941 15.9937 15.9941 21.0938 15.7281 27.4156H11.5844C11.2656 27.4156 11 27.6813 11 28C11 28.3188 11.2656 28.5844 11.5844 28.5844H15.7281C16.0469 34.9059 21.0938 39.9531 27.4156 40.2719V44.4156C27.4156 44.7344 27.6813 45 28 45C28.3188 45 28.5844 44.7344 28.5844 44.4156V40.2719C34.9059 39.9531 39.9531 34.9062 40.2719 28.5844H44.4156C44.7344 28.5844 45 28.3188 45 28C45 27.6813 44.7344 27.4156 44.4156 27.4156ZM36.9247 27.4156H28.5838V19.0747C33.0463 19.3934 36.6053 22.9528 36.9247 27.4156ZM27.4156 19.0747V27.4156H19.0747C19.3934 22.9531 22.9528 19.3941 27.4156 19.0747ZM19.0747 28.5838H27.4156V36.9247C22.9531 36.6059 19.3941 33.0466 19.0747 28.5838ZM28.5838 36.9247V28.5838H36.9247C36.6059 33.0463 33.0466 36.6053 28.5838 36.9247Z" fill="white"/>
</svg>
