<svg width="56" height="56" viewBox="0 0 56 56" fill="none" xmlns="http://www.w3.org/2000/svg">
<circle cx="28" cy="27.5556" r="27.5556" fill="#6FBBBD"/>
<g clip-path="url(#clip0_130_142)">
<path d="M17.6667 26.04C19.3385 26.04 20.6978 24.6807 20.6978 23.0089C20.6978 21.337 19.3385 19.9778 17.6667 19.9778C15.9948 19.9778 14.6356 21.337 14.6356 23.0089C14.6356 24.6807 15.9948 26.04 17.6667 26.04ZM38.8844 26.04C40.5563 26.04 41.9156 24.6807 41.9156 23.0089C41.9156 21.337 40.5563 19.9778 38.8844 19.9778C37.2126 19.9778 35.8533 21.337 35.8533 23.0089C35.8533 24.6807 37.2126 26.04 38.8844 26.04ZM40.4 27.5555H37.3689C36.5353 27.5555 35.7823 27.8918 35.2329 28.4365C37.1416 29.4831 38.4961 31.3728 38.7897 33.6178H41.9156C42.7538 33.6178 43.4311 32.9405 43.4311 32.1022V30.5867C43.4311 28.9148 42.0718 27.5555 40.4 27.5555ZM28.2756 27.5555C31.2072 27.5555 33.58 25.1828 33.58 22.2511C33.58 19.3194 31.2072 16.9467 28.2756 16.9467C25.3439 16.9467 22.9711 19.3194 22.9711 22.2511C22.9711 25.1828 25.3439 27.5555 28.2756 27.5555ZM31.9129 29.0711H31.5198C30.5347 29.5447 29.4406 29.8289 28.2756 29.8289C27.1105 29.8289 26.0212 29.5447 25.0313 29.0711H24.6382C21.6261 29.0711 19.1822 31.5149 19.1822 34.5271V35.8911C19.1822 37.1462 20.2005 38.1644 21.4556 38.1644H35.0956C36.3506 38.1644 37.3689 37.1462 37.3689 35.8911V34.5271C37.3689 31.5149 34.9251 29.0711 31.9129 29.0711ZM21.3182 28.4365C20.7688 27.8918 20.0158 27.5555 19.1822 27.5555H16.1511C14.4793 27.5555 13.12 28.9148 13.12 30.5867V32.1022C13.12 32.9405 13.7973 33.6178 14.6356 33.6178H17.7566C18.055 31.3728 19.4096 29.4831 21.3182 28.4365Z" fill="white"/>
</g>
<defs>
<clipPath id="clip0_130_142">
<rect width="30.3111" height="24.2489" fill="white" transform="translate(13.12 15.4311)"/>
</clipPath>
</defs>
</svg>
