<svg width="23" height="24" viewBox="0 0 23 24" fill="none" xmlns="http://www.w3.org/2000/svg">
<path d="M11.5 2.16094C14.5727 2.16094 14.9365 2.175 16.1449 2.23125C17.268 2.28281 17.8744 2.47969 18.2787 2.64375C18.8133 2.85938 19.1996 3.12188 19.5994 3.53906C20.0037 3.96094 20.2508 4.35938 20.4574 4.91719C20.6146 5.33906 20.8033 5.97656 20.8527 7.14375C20.9066 8.40937 20.9201 8.78906 20.9201 11.9906C20.9201 15.1969 20.9066 15.5766 20.8527 16.8375C20.8033 18.0094 20.6146 18.6422 20.4574 19.0641C20.2508 19.6219 19.9992 20.025 19.5994 20.4422C19.1951 20.8641 18.8133 21.1219 18.2787 21.3375C17.8744 21.5016 17.2635 21.6984 16.1449 21.75C14.932 21.8063 14.5682 21.8203 11.5 21.8203C8.42734 21.8203 8.06348 21.8063 6.85508 21.75C5.73203 21.6984 5.12559 21.5016 4.72129 21.3375C4.18672 21.1219 3.80039 20.8594 3.40059 20.4422C2.99629 20.0203 2.74922 19.6219 2.54258 19.0641C2.38535 18.6422 2.19668 18.0047 2.14727 16.8375C2.09336 15.5719 2.07988 15.1922 2.07988 11.9906C2.07988 8.78438 2.09336 8.40469 2.14727 7.14375C2.19668 5.97187 2.38535 5.33906 2.54258 4.91719C2.74922 4.35938 3.00078 3.95625 3.40059 3.53906C3.80488 3.11719 4.18672 2.85938 4.72129 2.64375C5.12559 2.47969 5.73652 2.28281 6.85508 2.23125C8.06348 2.175 8.42734 2.16094 11.5 2.16094ZM11.5 0C8.37793 0 7.98711 0.0140625 6.76074 0.0703125C5.53887 0.126563 4.69883 0.332812 3.97109 0.628125C3.21191 0.9375 2.56953 1.34531 1.93164 2.01562C1.28926 2.68125 0.898438 3.35156 0.601953 4.13906C0.318945 4.90313 0.121289 5.775 0.0673828 7.05C0.0134766 8.33437 0 8.74219 0 12C0 15.2578 0.0134766 15.6656 0.0673828 16.9453C0.121289 18.2203 0.318945 19.0969 0.601953 19.8563C0.898438 20.6484 1.28926 21.3188 1.93164 21.9844C2.56953 22.65 3.21191 23.0625 3.9666 23.3672C4.69883 23.6625 5.53437 23.8687 6.75625 23.925C7.98262 23.9812 8.37344 23.9953 11.4955 23.9953C14.6176 23.9953 15.0084 23.9812 16.2348 23.925C17.4566 23.8687 18.2967 23.6625 19.0244 23.3672C19.7791 23.0625 20.4215 22.65 21.0594 21.9844C21.6973 21.3188 22.0926 20.6484 22.3846 19.8609C22.6676 19.0969 22.8652 18.225 22.9191 16.95C22.973 15.6703 22.9865 15.2625 22.9865 12.0047C22.9865 8.74688 22.973 8.33906 22.9191 7.05938C22.8652 5.78438 22.6676 4.90781 22.3846 4.14844C22.1016 3.35156 21.7107 2.68125 21.0684 2.01562C20.4305 1.35 19.7881 0.9375 19.0334 0.632812C18.3012 0.3375 17.4656 0.13125 16.2438 0.075C15.0129 0.0140625 14.6221 0 11.5 0Z" fill="#333333"/>
<path d="M11.5 5.83594C8.23867 5.83594 5.59277 8.59688 5.59277 12C5.59277 15.4031 8.23867 18.1641 11.5 18.1641C14.7613 18.1641 17.4072 15.4031 17.4072 12C17.4072 8.59688 14.7613 5.83594 11.5 5.83594ZM11.5 15.9984C9.38418 15.9984 7.66816 14.2078 7.66816 12C7.66816 9.79219 9.38418 8.00156 11.5 8.00156C13.6158 8.00156 15.3318 9.79219 15.3318 12C15.3318 14.2078 13.6158 15.9984 11.5 15.9984Z" fill="#333333"/>
<path d="M19.0199 5.59238C19.0199 6.38926 18.4 7.03145 17.6408 7.03145C16.8771 7.03145 16.2617 6.38457 16.2617 5.59238C16.2617 4.79551 16.8816 4.15332 17.6408 4.15332C18.4 4.15332 19.0199 4.8002 19.0199 5.59238Z" fill="#333333"/>
</svg>
