<svg width="46" height="46" viewBox="0 0 46 46" fill="none" xmlns="http://www.w3.org/2000/svg">
<path d="M37.7199 20.7H8.2799C7.0103 20.7 6.8999 21.7281 6.8999 23C6.8999 24.2719 7.0103 25.3 8.2799 25.3H37.7199C38.9895 25.3 39.0999 24.2719 39.0999 23C39.0999 21.7281 38.9895 20.7 37.7199 20.7V20.7ZM37.7199 29.9H8.2799C7.0103 29.9 6.8999 30.9281 6.8999 32.2C6.8999 33.4719 7.0103 34.5 8.2799 34.5H37.7199C38.9895 34.5 39.0999 33.4719 39.0999 32.2C39.0999 30.9281 38.9895 29.9 37.7199 29.9V29.9ZM8.2799 16.1H37.7199C38.9895 16.1 39.0999 15.0719 39.0999 13.8C39.0999 12.5281 38.9895 11.5 37.7199 11.5H8.2799C7.0103 11.5 6.8999 12.5281 6.8999 13.8C6.8999 15.0719 7.0103 16.1 8.2799 16.1Z" fill="#6FBBBD"/>
</svg>
