<svg width="347" height="230" viewBox="0 0 347 230" fill="none" xmlns="http://www.w3.org/2000/svg">
<g filter="url(#filter0_d_130_559)">
<rect x="58" y="56.5615" width="226.061" height="109.374" rx="19" fill="white"/>
</g>
<path d="M222.047 145L223.405 147.115L225.837 147.754L224.245 149.699L224.389 152.209L222.047 151.297L219.704 152.209L219.848 149.699L218.256 147.754L220.688 147.115L222.047 145Z" fill="#F6D46F"/>
<path d="M231.44 145L232.799 147.115L235.23 147.754L233.639 149.699L233.783 152.209L231.44 151.297L229.098 152.209L229.242 149.699L227.65 147.754L230.082 147.115L231.44 145Z" fill="#F6D46F"/>
<path d="M240.834 145L242.192 147.115L244.624 147.754L243.032 149.699L243.176 152.209L240.834 151.297L238.491 152.209L238.636 149.699L237.044 147.754L239.475 147.115L240.834 145Z" fill="#F6D46F"/>
<path d="M250.227 145L251.586 147.115L254.018 147.754L252.426 149.699L252.57 152.209L250.227 151.297L247.885 152.209L248.029 149.699L246.437 147.754L248.869 147.115L250.227 145Z" fill="#F6D46F"/>
<path d="M259.621 145L260.98 147.115L263.411 147.754L261.819 149.699L261.963 152.209L259.621 151.297L257.278 152.209L257.423 149.699L255.831 147.754L258.262 147.115L259.621 145Z" fill="#F6D46F"/>
<g filter="url(#filter1_d_130_559)">
<path d="M58.0614 73C58.0614 64.1634 65.2248 57 74.0614 57V57V166V166C65.2248 166 58.0614 158.837 58.0614 150V73Z" fill="#CAC468"/>
</g>
<line x1="82.5614" y1="133" x2="82.5614" y2="70" stroke="#BDBDD1"/>
<path d="M90.9014 80.72L90.6914 77.95H91.6414L91.4514 80.72H90.9014ZM92.6114 80.72L92.4014 77.95H93.3514L93.1614 80.72H92.6114ZM95.0377 85V77.95H99.4877V78.64H95.8377V81.08H99.2777V81.77H95.8377V84.31H99.4877V85H95.0377ZM102.678 85.09C101.511 85.09 100.928 84.4467 100.928 83.16V80.14H101.738V83.15C101.738 83.5833 101.824 83.9033 101.998 84.11C102.178 84.3167 102.458 84.42 102.838 84.42C103.251 84.42 103.588 84.2833 103.848 84.01C104.108 83.73 104.238 83.36 104.238 82.9V80.14H105.048V85H104.258V84.18C104.104 84.4733 103.888 84.7 103.608 84.86C103.334 85.0133 103.024 85.09 102.678 85.09ZM111.682 86.89C111.262 86.89 110.865 86.8333 110.492 86.72C110.125 86.6133 109.798 86.45 109.512 86.23L109.782 85.64C110.082 85.8533 110.378 86.0067 110.672 86.1C110.972 86.1933 111.295 86.24 111.642 86.24C112.602 86.24 113.082 85.7467 113.082 84.76V83.9C112.942 84.2067 112.722 84.45 112.422 84.63C112.128 84.8033 111.792 84.89 111.412 84.89C110.965 84.89 110.578 84.7867 110.252 84.58C109.925 84.3733 109.672 84.09 109.492 83.73C109.318 83.3633 109.232 82.94 109.232 82.46C109.232 81.98 109.318 81.56 109.492 81.2C109.672 80.8333 109.925 80.55 110.252 80.35C110.578 80.15 110.965 80.05 111.412 80.05C111.792 80.05 112.128 80.1367 112.422 80.31C112.722 80.4833 112.942 80.72 113.082 81.02V80.14H113.872V84.65C113.872 85.3967 113.685 85.9567 113.312 86.33C112.945 86.7033 112.402 86.89 111.682 86.89ZM111.562 84.23C112.028 84.23 112.398 84.07 112.672 83.75C112.945 83.43 113.082 83 113.082 82.46C113.082 81.92 112.945 81.4933 112.672 81.18C112.398 80.86 112.028 80.7 111.562 80.7C111.102 80.7 110.735 80.86 110.462 81.18C110.188 81.4933 110.052 81.92 110.052 82.46C110.052 83 110.188 83.43 110.462 83.75C110.735 84.07 111.102 84.23 111.562 84.23ZM117.611 85.09C117.138 85.09 116.728 84.9867 116.381 84.78C116.034 84.5733 115.764 84.2833 115.571 83.91C115.384 83.53 115.291 83.0833 115.291 82.57C115.291 82.0567 115.384 81.6133 115.571 81.24C115.764 80.86 116.034 80.5667 116.381 80.36C116.728 80.1533 117.138 80.05 117.611 80.05C118.078 80.05 118.484 80.1533 118.831 80.36C119.184 80.5667 119.454 80.86 119.641 81.24C119.834 81.6133 119.931 82.0567 119.931 82.57C119.931 83.0833 119.834 83.53 119.641 83.91C119.454 84.2833 119.184 84.5733 118.831 84.78C118.484 84.9867 118.078 85.09 117.611 85.09ZM117.611 84.44C118.064 84.44 118.428 84.28 118.701 83.96C118.974 83.6333 119.111 83.17 119.111 82.57C119.111 81.9633 118.974 81.5 118.701 81.18C118.428 80.86 118.064 80.7 117.611 80.7C117.151 80.7 116.784 80.86 116.511 81.18C116.244 81.5 116.111 81.9633 116.111 82.57C116.111 83.17 116.244 83.6333 116.511 83.96C116.784 84.28 117.151 84.44 117.611 84.44ZM122.988 85.09C122.608 85.09 122.248 85.0367 121.908 84.93C121.568 84.8233 121.288 84.6733 121.068 84.48L121.328 83.91C121.568 84.1033 121.831 84.2467 122.118 84.34C122.411 84.4267 122.708 84.47 123.008 84.47C123.388 84.47 123.674 84.4 123.868 84.26C124.061 84.12 124.158 83.93 124.158 83.69C124.158 83.5033 124.094 83.3567 123.968 83.25C123.841 83.1367 123.641 83.05 123.368 82.99L122.458 82.79C121.631 82.61 121.218 82.1833 121.218 81.51C121.218 81.07 121.391 80.7167 121.738 80.45C122.091 80.1833 122.551 80.05 123.118 80.05C123.451 80.05 123.768 80.1033 124.068 80.21C124.374 80.31 124.628 80.46 124.828 80.66L124.558 81.23C124.364 81.05 124.138 80.9133 123.878 80.82C123.624 80.72 123.371 80.67 123.118 80.67C122.744 80.67 122.461 80.7433 122.268 80.89C122.074 81.0367 121.978 81.23 121.978 81.47C121.978 81.8433 122.224 82.0833 122.718 82.19L123.628 82.38C124.054 82.4733 124.378 82.6233 124.598 82.83C124.818 83.03 124.928 83.3033 124.928 83.65C124.928 84.0967 124.751 84.45 124.398 84.71C124.044 84.9633 123.574 85.09 122.988 85.09ZM128.263 85.09C127.69 85.09 127.26 84.94 126.973 84.64C126.687 84.3333 126.543 83.8933 126.543 83.32V80.77H125.593V80.14H126.543V78.65H127.353V80.14H128.893V80.77H127.353V83.24C127.353 83.62 127.433 83.91 127.593 84.11C127.753 84.3033 128.013 84.4 128.373 84.4C128.48 84.4 128.587 84.3867 128.693 84.36C128.8 84.3333 128.897 84.3067 128.983 84.28L129.123 84.9C129.037 84.9467 128.91 84.99 128.743 85.03C128.577 85.07 128.417 85.09 128.263 85.09ZM132.15 85.09C131.384 85.09 130.777 84.8667 130.33 84.42C129.884 83.9667 129.66 83.3533 129.66 82.58C129.66 82.08 129.76 81.64 129.96 81.26C130.16 80.8733 130.434 80.5767 130.78 80.37C131.134 80.1567 131.54 80.05 132 80.05C132.66 80.05 133.177 80.2633 133.55 80.69C133.924 81.11 134.11 81.69 134.11 82.43V82.74H130.45C130.477 83.2933 130.637 83.7167 130.93 84.01C131.224 84.2967 131.63 84.44 132.15 84.44C132.444 84.44 132.724 84.3967 132.99 84.31C133.257 84.2167 133.51 84.0667 133.75 83.86L134.03 84.43C133.81 84.6367 133.53 84.8 133.19 84.92C132.85 85.0333 132.504 85.09 132.15 85.09ZM132.02 80.65C131.56 80.65 131.197 80.7933 130.93 81.08C130.664 81.3667 130.507 81.7433 130.46 82.21H133.41C133.39 81.7167 133.26 81.3333 133.02 81.06C132.787 80.7867 132.454 80.65 132.02 80.65ZM135.383 78.93V78.02H136.383V78.93H135.383ZM135.483 85V80.14H136.293V85H135.483ZM140.795 85V80.14H141.585V80.96C141.732 80.6667 141.935 80.4433 142.195 80.29C142.455 80.13 142.759 80.05 143.105 80.05C143.865 80.05 144.352 80.38 144.565 81.04C144.712 80.7333 144.929 80.4933 145.215 80.32C145.502 80.14 145.832 80.05 146.205 80.05C147.285 80.05 147.825 80.69 147.825 81.97V85H147.015V82.01C147.015 81.5633 146.935 81.2367 146.775 81.03C146.622 80.8167 146.365 80.71 146.005 80.71C145.612 80.71 145.299 80.85 145.065 81.13C144.832 81.41 144.715 81.7833 144.715 82.25V85H143.905V82.01C143.905 81.5633 143.825 81.2367 143.665 81.03C143.512 80.8167 143.255 80.71 142.895 80.71C142.495 80.71 142.179 80.85 141.945 81.13C141.719 81.41 141.605 81.7833 141.605 82.25V85H140.795ZM151.26 85.09C150.093 85.09 149.51 84.4467 149.51 83.16V80.14H150.32V83.15C150.32 83.5833 150.406 83.9033 150.58 84.11C150.76 84.3167 151.04 84.42 151.42 84.42C151.833 84.42 152.17 84.2833 152.43 84.01C152.69 83.73 152.82 83.36 152.82 82.9V80.14H153.63V85H152.84V84.18C152.686 84.4733 152.47 84.7 152.19 84.86C151.916 85.0133 151.606 85.09 151.26 85.09ZM155.245 78.93V78.02H156.245V78.93H155.245ZM155.345 85V80.14H156.155V85H155.345ZM159.819 85.09C159.246 85.09 158.816 84.94 158.529 84.64C158.243 84.3333 158.099 83.8933 158.099 83.32V80.77H157.149V80.14H158.099V78.65H158.909V80.14H160.449V80.77H158.909V83.24C158.909 83.62 158.989 83.91 159.149 84.11C159.309 84.3033 159.569 84.4 159.929 84.4C160.036 84.4 160.143 84.3867 160.249 84.36C160.356 84.3333 160.453 84.3067 160.539 84.28L160.679 84.9C160.593 84.9467 160.466 84.99 160.299 85.03C160.133 85.07 159.973 85.09 159.819 85.09ZM163.537 85.09C163.063 85.09 162.653 84.9867 162.307 84.78C161.96 84.5733 161.69 84.2833 161.497 83.91C161.31 83.53 161.217 83.0833 161.217 82.57C161.217 82.0567 161.31 81.6133 161.497 81.24C161.69 80.86 161.96 80.5667 162.307 80.36C162.653 80.1533 163.063 80.05 163.537 80.05C164.003 80.05 164.41 80.1533 164.757 80.36C165.11 80.5667 165.38 80.86 165.567 81.24C165.76 81.6133 165.857 82.0567 165.857 82.57C165.857 83.0833 165.76 83.53 165.567 83.91C165.38 84.2833 165.11 84.5733 164.757 84.78C164.41 84.9867 164.003 85.09 163.537 85.09ZM163.537 84.44C163.99 84.44 164.353 84.28 164.627 83.96C164.9 83.6333 165.037 83.17 165.037 82.57C165.037 81.9633 164.9 81.5 164.627 81.18C164.353 80.86 163.99 80.7 163.537 80.7C163.077 80.7 162.71 80.86 162.437 81.18C162.17 81.5 162.037 81.9633 162.037 82.57C162.037 83.17 162.17 83.6333 162.437 83.96C162.71 84.28 163.077 84.44 163.537 84.44ZM171.892 85.09C171.458 85.09 171.078 84.9867 170.752 84.78C170.432 84.5733 170.182 84.2833 170.002 83.91C169.828 83.53 169.742 83.0833 169.742 82.57C169.742 82.05 169.828 81.6033 170.002 81.23C170.182 80.85 170.432 80.56 170.752 80.36C171.078 80.1533 171.458 80.05 171.892 80.05C172.272 80.05 172.605 80.1333 172.892 80.3C173.185 80.4667 173.402 80.6967 173.542 80.99V77.95H174.352V85H173.562V84.11C173.422 84.4167 173.205 84.6567 172.912 84.83C172.618 85.0033 172.278 85.09 171.892 85.09ZM172.062 84.44C172.515 84.44 172.878 84.28 173.152 83.96C173.425 83.6333 173.562 83.17 173.562 82.57C173.562 81.9633 173.425 81.5 173.152 81.18C172.878 80.86 172.515 80.7 172.062 80.7C171.602 80.7 171.235 80.86 170.962 81.18C170.695 81.5 170.562 81.9633 170.562 82.57C170.562 83.17 170.695 83.6333 170.962 83.96C171.235 84.28 171.602 84.44 172.062 84.44ZM178.262 85.09C177.495 85.09 176.888 84.8667 176.442 84.42C175.995 83.9667 175.772 83.3533 175.772 82.58C175.772 82.08 175.872 81.64 176.072 81.26C176.272 80.8733 176.545 80.5767 176.892 80.37C177.245 80.1567 177.652 80.05 178.112 80.05C178.772 80.05 179.288 80.2633 179.662 80.69C180.035 81.11 180.222 81.69 180.222 82.43V82.74H176.562C176.588 83.2933 176.748 83.7167 177.042 84.01C177.335 84.2967 177.742 84.44 178.262 84.44C178.555 84.44 178.835 84.3967 179.102 84.31C179.368 84.2167 179.622 84.0667 179.862 83.86L180.142 84.43C179.922 84.6367 179.642 84.8 179.302 84.92C178.962 85.0333 178.615 85.09 178.262 85.09ZM178.132 80.65C177.672 80.65 177.308 80.7933 177.042 81.08C176.775 81.3667 176.618 81.7433 176.572 82.21H179.522C179.502 81.7167 179.372 81.3333 179.132 81.06C178.898 80.7867 178.565 80.65 178.132 80.65ZM186.422 85.09C185.936 85.09 185.516 84.9867 185.162 84.78C184.809 84.5667 184.536 84.27 184.342 83.89C184.156 83.5033 184.062 83.0533 184.062 82.54C184.062 81.7667 184.272 81.16 184.692 80.72C185.112 80.2733 185.689 80.05 186.422 80.05C186.722 80.05 187.019 80.1033 187.312 80.21C187.606 80.3167 187.849 80.4667 188.042 80.66L187.762 81.25C187.569 81.0633 187.356 80.9267 187.122 80.84C186.896 80.7533 186.679 80.71 186.472 80.71C185.966 80.71 185.576 80.87 185.302 81.19C185.029 81.5033 184.892 81.9567 184.892 82.55C184.892 83.13 185.029 83.59 185.302 83.93C185.576 84.2633 185.966 84.43 186.472 84.43C186.679 84.43 186.896 84.3867 187.122 84.3C187.356 84.2133 187.569 84.0733 187.762 83.88L188.042 84.47C187.849 84.6633 187.602 84.8167 187.302 84.93C187.009 85.0367 186.716 85.09 186.422 85.09ZM191.114 85.09C190.64 85.09 190.23 84.9867 189.884 84.78C189.537 84.5733 189.267 84.2833 189.074 83.91C188.887 83.53 188.794 83.0833 188.794 82.57C188.794 82.0567 188.887 81.6133 189.074 81.24C189.267 80.86 189.537 80.5667 189.884 80.36C190.23 80.1533 190.64 80.05 191.114 80.05C191.58 80.05 191.987 80.1533 192.334 80.36C192.687 80.5667 192.957 80.86 193.144 81.24C193.337 81.6133 193.434 82.0567 193.434 82.57C193.434 83.0833 193.337 83.53 193.144 83.91C192.957 84.2833 192.687 84.5733 192.334 84.78C191.987 84.9867 191.58 85.09 191.114 85.09ZM191.114 84.44C191.567 84.44 191.93 84.28 192.204 83.96C192.477 83.6333 192.614 83.17 192.614 82.57C192.614 81.9633 192.477 81.5 192.204 81.18C191.93 80.86 191.567 80.7 191.114 80.7C190.654 80.7 190.287 80.86 190.014 81.18C189.747 81.5 189.614 81.9633 189.614 82.57C189.614 83.17 189.747 83.6333 190.014 83.96C190.287 84.28 190.654 84.44 191.114 84.44ZM196.49 85.09C196.11 85.09 195.75 85.0367 195.41 84.93C195.07 84.8233 194.79 84.6733 194.57 84.48L194.83 83.91C195.07 84.1033 195.334 84.2467 195.62 84.34C195.914 84.4267 196.21 84.47 196.51 84.47C196.89 84.47 197.177 84.4 197.37 84.26C197.564 84.12 197.66 83.93 197.66 83.69C197.66 83.5033 197.597 83.3567 197.47 83.25C197.344 83.1367 197.144 83.05 196.87 82.99L195.96 82.79C195.134 82.61 194.72 82.1833 194.72 81.51C194.72 81.07 194.894 80.7167 195.24 80.45C195.594 80.1833 196.054 80.05 196.62 80.05C196.954 80.05 197.27 80.1033 197.57 80.21C197.877 80.31 198.13 80.46 198.33 80.66L198.06 81.23C197.867 81.05 197.64 80.9133 197.38 80.82C197.127 80.72 196.874 80.67 196.62 80.67C196.247 80.67 195.964 80.7433 195.77 80.89C195.577 81.0367 195.48 81.23 195.48 81.47C195.48 81.8433 195.727 82.0833 196.22 82.19L197.13 82.38C197.557 82.4733 197.88 82.6233 198.1 82.83C198.32 83.03 198.43 83.3033 198.43 83.65C198.43 84.0967 198.254 84.45 197.9 84.71C197.547 84.9633 197.077 85.09 196.49 85.09ZM201.766 85.09C201.193 85.09 200.763 84.94 200.476 84.64C200.189 84.3333 200.046 83.8933 200.046 83.32V80.77H199.096V80.14H200.046V78.65H200.856V80.14H202.396V80.77H200.856V83.24C200.856 83.62 200.936 83.91 201.096 84.11C201.256 84.3033 201.516 84.4 201.876 84.4C201.983 84.4 202.089 84.3867 202.196 84.36C202.303 84.3333 202.399 84.3067 202.486 84.28L202.626 84.9C202.539 84.9467 202.413 84.99 202.246 85.03C202.079 85.07 201.919 85.09 201.766 85.09ZM205.232 85.09C204.065 85.09 203.482 84.4467 203.482 83.16V80.14H204.292V83.15C204.292 83.5833 204.379 83.9033 204.552 84.11C204.732 84.3167 205.012 84.42 205.392 84.42C205.805 84.42 206.142 84.2833 206.402 84.01C206.662 83.73 206.792 83.36 206.792 82.9V80.14H207.602V85H206.812V84.18C206.659 84.4733 206.442 84.7 206.162 84.86C205.889 85.0133 205.579 85.09 205.232 85.09ZM209.317 85V80.14H210.107V81.01C210.367 80.4233 210.901 80.1 211.707 80.04L211.997 80.01L212.057 80.71L211.547 80.77C211.087 80.81 210.737 80.9567 210.497 81.21C210.257 81.4567 210.137 81.7967 210.137 82.23V85H209.317ZM214.583 85.09C214.249 85.09 213.949 85.0267 213.683 84.9C213.423 84.7667 213.216 84.5867 213.063 84.36C212.909 84.1333 212.833 83.88 212.833 83.6C212.833 83.2467 212.923 82.9667 213.103 82.76C213.289 82.5533 213.593 82.4067 214.013 82.32C214.439 82.2267 215.019 82.18 215.753 82.18H216.073V81.87C216.073 81.4567 215.986 81.16 215.813 80.98C215.646 80.7933 215.376 80.7 215.003 80.7C214.709 80.7 214.426 80.7433 214.153 80.83C213.879 80.91 213.599 81.0433 213.313 81.23L213.033 80.64C213.286 80.46 213.593 80.3167 213.953 80.21C214.319 80.1033 214.669 80.05 215.003 80.05C215.629 80.05 216.093 80.2033 216.393 80.51C216.699 80.8167 216.853 81.2933 216.853 81.94V85H216.093V84.16C215.966 84.4467 215.769 84.6733 215.503 84.84C215.243 85.0067 214.936 85.09 214.583 85.09ZM214.713 84.48C215.113 84.48 215.439 84.3433 215.693 84.07C215.946 83.79 216.073 83.4367 216.073 83.01V82.71H215.763C215.223 82.71 214.796 82.7367 214.483 82.79C214.176 82.8367 213.959 82.9233 213.833 83.05C213.713 83.17 213.653 83.3367 213.653 83.55C213.653 83.8233 213.746 84.0467 213.933 84.22C214.126 84.3933 214.386 84.48 214.713 84.48ZM218.555 85V80.14H219.345V81.01C219.605 80.4233 220.139 80.1 220.945 80.04L221.235 80.01L221.295 80.71L220.785 80.77C220.325 80.81 219.975 80.9567 219.735 81.21C219.495 81.4567 219.375 81.7967 219.375 82.23V85H218.555ZM225.108 85V80.14H225.898V80.97C226.058 80.6633 226.284 80.4333 226.578 80.28C226.871 80.1267 227.201 80.05 227.568 80.05C228.721 80.05 229.298 80.69 229.298 81.97V85H228.488V82.02C228.488 81.5667 228.398 81.2367 228.218 81.03C228.044 80.8167 227.764 80.71 227.378 80.71C226.931 80.71 226.574 80.85 226.308 81.13C226.048 81.4033 225.918 81.77 225.918 82.23V85H225.108ZM233.181 85.09C232.415 85.09 231.808 84.8667 231.361 84.42C230.915 83.9667 230.691 83.3533 230.691 82.58C230.691 82.08 230.791 81.64 230.991 81.26C231.191 80.8733 231.465 80.5767 231.811 80.37C232.165 80.1567 232.571 80.05 233.031 80.05C233.691 80.05 234.208 80.2633 234.581 80.69C234.955 81.11 235.141 81.69 235.141 82.43V82.74H231.481C231.508 83.2933 231.668 83.7167 231.961 84.01C232.255 84.2967 232.661 84.44 233.181 84.44C233.475 84.44 233.755 84.3967 234.021 84.31C234.288 84.2167 234.541 84.0667 234.781 83.86L235.061 84.43C234.841 84.6367 234.561 84.8 234.221 84.92C233.881 85.0333 233.535 85.09 233.181 85.09ZM233.051 80.65C232.591 80.65 232.228 80.7933 231.961 81.08C231.695 81.3667 231.538 81.7433 231.491 82.21H234.441C234.421 81.7167 234.291 81.3333 234.051 81.06C233.818 80.7867 233.485 80.65 233.051 80.65ZM238.154 85.09C237.774 85.09 237.414 85.0367 237.074 84.93C236.734 84.8233 236.454 84.6733 236.234 84.48L236.494 83.91C236.734 84.1033 236.997 84.2467 237.284 84.34C237.577 84.4267 237.874 84.47 238.174 84.47C238.554 84.47 238.84 84.4 239.034 84.26C239.227 84.12 239.324 83.93 239.324 83.69C239.324 83.5033 239.26 83.3567 239.134 83.25C239.007 83.1367 238.807 83.05 238.534 82.99L237.624 82.79C236.797 82.61 236.384 82.1833 236.384 81.51C236.384 81.07 236.557 80.7167 236.904 80.45C237.257 80.1833 237.717 80.05 238.284 80.05C238.617 80.05 238.934 80.1033 239.234 80.21C239.54 80.31 239.794 80.46 239.994 80.66L239.724 81.23C239.53 81.05 239.304 80.9133 239.044 80.82C238.79 80.72 238.537 80.67 238.284 80.67C237.91 80.67 237.627 80.7433 237.434 80.89C237.24 81.0367 237.144 81.23 237.144 81.47C237.144 81.8433 237.39 82.0833 237.884 82.19L238.794 82.38C239.22 82.4733 239.544 82.6233 239.764 82.83C239.984 83.03 240.094 83.3033 240.094 83.65C240.094 84.0967 239.917 84.45 239.564 84.71C239.21 84.9633 238.74 85.09 238.154 85.09ZM243.168 85.09C242.788 85.09 242.428 85.0367 242.088 84.93C241.748 84.8233 241.468 84.6733 241.248 84.48L241.508 83.91C241.748 84.1033 242.011 84.2467 242.298 84.34C242.591 84.4267 242.888 84.47 243.188 84.47C243.568 84.47 243.855 84.4 244.048 84.26C244.241 84.12 244.338 83.93 244.338 83.69C244.338 83.5033 244.275 83.3567 244.148 83.25C244.021 83.1367 243.821 83.05 243.548 82.99L242.638 82.79C241.811 82.61 241.398 82.1833 241.398 81.51C241.398 81.07 241.571 80.7167 241.918 80.45C242.271 80.1833 242.731 80.05 243.298 80.05C243.631 80.05 243.948 80.1033 244.248 80.21C244.555 80.31 244.808 80.46 245.008 80.66L244.738 81.23C244.545 81.05 244.318 80.9133 244.058 80.82C243.805 80.72 243.551 80.67 243.298 80.67C242.925 80.67 242.641 80.7433 242.448 80.89C242.255 81.0367 242.158 81.23 242.158 81.47C242.158 81.8433 242.405 82.0833 242.898 82.19L243.808 82.38C244.235 82.4733 244.558 82.6233 244.778 82.83C244.998 83.03 245.108 83.3033 245.108 83.65C245.108 84.0967 244.931 84.45 244.578 84.71C244.225 84.9633 243.755 85.09 243.168 85.09ZM248.073 85.09C247.739 85.09 247.439 85.0267 247.173 84.9C246.913 84.7667 246.706 84.5867 246.553 84.36C246.399 84.1333 246.323 83.88 246.323 83.6C246.323 83.2467 246.413 82.9667 246.593 82.76C246.779 82.5533 247.083 82.4067 247.503 82.32C247.929 82.2267 248.509 82.18 249.243 82.18H249.563V81.87C249.563 81.4567 249.476 81.16 249.303 80.98C249.136 80.7933 248.866 80.7 248.493 80.7C248.199 80.7 247.916 80.7433 247.643 80.83C247.369 80.91 247.089 81.0433 246.803 81.23L246.523 80.64C246.776 80.46 247.083 80.3167 247.443 80.21C247.809 80.1033 248.159 80.05 248.493 80.05C249.119 80.05 249.583 80.2033 249.883 80.51C250.189 80.8167 250.343 81.2933 250.343 81.94V85H249.583V84.16C249.456 84.4467 249.259 84.6733 248.993 84.84C248.733 85.0067 248.426 85.09 248.073 85.09ZM248.203 84.48C248.603 84.48 248.929 84.3433 249.183 84.07C249.436 83.79 249.563 83.4367 249.563 83.01V82.71H249.253C248.713 82.71 248.286 82.7367 247.973 82.79C247.666 82.8367 247.449 82.9233 247.323 83.05C247.203 83.17 247.143 83.3367 247.143 83.55C247.143 83.8233 247.236 84.0467 247.423 84.22C247.616 84.3933 247.876 84.48 248.203 84.48ZM92.8814 95.09C92.3947 95.09 91.9747 94.9867 91.6214 94.78C91.2681 94.5667 90.9947 94.27 90.8014 93.89C90.6147 93.5033 90.5214 93.0533 90.5214 92.54C90.5214 91.7667 90.7314 91.16 91.1514 90.72C91.5714 90.2733 92.1481 90.05 92.8814 90.05C93.1814 90.05 93.4781 90.1033 93.7714 90.21C94.0647 90.3167 94.3081 90.4667 94.5014 90.66L94.2214 91.25C94.0281 91.0633 93.8147 90.9267 93.5814 90.84C93.3547 90.7533 93.1381 90.71 92.9314 90.71C92.4247 90.71 92.0347 90.87 91.7614 91.19C91.4881 91.5033 91.3514 91.9567 91.3514 92.55C91.3514 93.13 91.4881 93.59 91.7614 93.93C92.0347 94.2633 92.4247 94.43 92.9314 94.43C93.1381 94.43 93.3547 94.3867 93.5814 94.3C93.8147 94.2133 94.0281 94.0733 94.2214 93.88L94.5014 94.47C94.3081 94.6633 94.0614 94.8167 93.7614 94.93C93.4681 95.0367 93.1747 95.09 92.8814 95.09ZM97.5727 95.09C97.0993 95.09 96.6893 94.9867 96.3427 94.78C95.996 94.5733 95.726 94.2833 95.5327 93.91C95.346 93.53 95.2527 93.0833 95.2527 92.57C95.2527 92.0567 95.346 91.6133 95.5327 91.24C95.726 90.86 95.996 90.5667 96.3427 90.36C96.6893 90.1533 97.0993 90.05 97.5727 90.05C98.0393 90.05 98.446 90.1533 98.7927 90.36C99.146 90.5667 99.416 90.86 99.6027 91.24C99.796 91.6133 99.8927 92.0567 99.8927 92.57C99.8927 93.0833 99.796 93.53 99.6027 93.91C99.416 94.2833 99.146 94.5733 98.7927 94.78C98.446 94.9867 98.0393 95.09 97.5727 95.09ZM97.5727 94.44C98.026 94.44 98.3893 94.28 98.6627 93.96C98.936 93.6333 99.0727 93.17 99.0727 92.57C99.0727 91.9633 98.936 91.5 98.6627 91.18C98.3893 90.86 98.026 90.7 97.5727 90.7C97.1127 90.7 96.746 90.86 96.4727 91.18C96.206 91.5 96.0727 91.9633 96.0727 92.57C96.0727 93.17 96.206 93.6333 96.4727 93.96C96.746 94.28 97.1127 94.44 97.5727 94.44ZM102.799 95.09C102.306 95.09 101.933 94.9467 101.679 94.66C101.433 94.3667 101.309 93.9433 101.309 93.39V87.95H102.119V93.33C102.119 94.0433 102.403 94.4 102.969 94.4C103.136 94.4 103.286 94.38 103.419 94.34L103.399 95.02C103.193 95.0667 102.993 95.09 102.799 95.09ZM106.439 95.09C105.966 95.09 105.556 94.9867 105.209 94.78C104.863 94.5733 104.593 94.2833 104.399 93.91C104.213 93.53 104.119 93.0833 104.119 92.57C104.119 92.0567 104.213 91.6133 104.399 91.24C104.593 90.86 104.863 90.5667 105.209 90.36C105.556 90.1533 105.966 90.05 106.439 90.05C106.906 90.05 107.313 90.1533 107.659 90.36C108.013 90.5667 108.283 90.86 108.469 91.24C108.663 91.6133 108.759 92.0567 108.759 92.57C108.759 93.0833 108.663 93.53 108.469 93.91C108.283 94.2833 108.013 94.5733 107.659 94.78C107.313 94.9867 106.906 95.09 106.439 95.09ZM106.439 94.44C106.893 94.44 107.256 94.28 107.529 93.96C107.803 93.6333 107.939 93.17 107.939 92.57C107.939 91.9633 107.803 91.5 107.529 91.18C107.256 90.86 106.893 90.7 106.439 90.7C105.979 90.7 105.613 90.86 105.339 91.18C105.073 91.5 104.939 91.9633 104.939 92.57C104.939 93.17 105.073 93.6333 105.339 93.96C105.613 94.28 105.979 94.44 106.439 94.44ZM104.959 89.49L106.049 87.47H106.829L107.919 89.49H107.359L106.439 88.01L105.519 89.49H104.959ZM110.176 95V90.14H110.966V90.97C111.126 90.6633 111.353 90.4333 111.646 90.28C111.939 90.1267 112.269 90.05 112.636 90.05C113.789 90.05 114.366 90.69 114.366 91.97V95H113.556V92.02C113.556 91.5667 113.466 91.2367 113.286 91.03C113.113 90.8167 112.833 90.71 112.446 90.71C111.999 90.71 111.643 90.85 111.376 91.13C111.116 91.4033 110.986 91.77 110.986 92.23V95H110.176ZM115.96 88.93V88.02H116.96V88.93H115.96ZM116.06 95V90.14H116.87V95H116.06ZM120.114 95.09C119.781 95.09 119.481 95.0267 119.214 94.9C118.954 94.7667 118.747 94.5867 118.594 94.36C118.441 94.1333 118.364 93.88 118.364 93.6C118.364 93.2467 118.454 92.9667 118.634 92.76C118.821 92.5533 119.124 92.4067 119.544 92.32C119.971 92.2267 120.551 92.18 121.284 92.18H121.604V91.87C121.604 91.4567 121.517 91.16 121.344 90.98C121.177 90.7933 120.907 90.7 120.534 90.7C120.241 90.7 119.957 90.7433 119.684 90.83C119.411 90.91 119.131 91.0433 118.844 91.23L118.564 90.64C118.817 90.46 119.124 90.3167 119.484 90.21C119.851 90.1033 120.201 90.05 120.534 90.05C121.161 90.05 121.624 90.2033 121.924 90.51C122.231 90.8167 122.384 91.2933 122.384 91.94V95H121.624V94.16C121.497 94.4467 121.301 94.6733 121.034 94.84C120.774 95.0067 120.467 95.09 120.114 95.09ZM120.244 94.48C120.644 94.48 120.971 94.3433 121.224 94.07C121.477 93.79 121.604 93.4367 121.604 93.01V92.71H121.294C120.754 92.71 120.327 92.7367 120.014 92.79C119.707 92.8367 119.491 92.9233 119.364 93.05C119.244 93.17 119.184 93.3367 119.184 93.55C119.184 93.8233 119.277 94.0467 119.464 94.22C119.657 94.3933 119.917 94.48 120.244 94.48ZM128.705 95.09C128.272 95.09 127.892 94.9867 127.565 94.78C127.245 94.5733 126.995 94.2833 126.815 93.91C126.642 93.53 126.555 93.0833 126.555 92.57C126.555 92.05 126.642 91.6033 126.815 91.23C126.995 90.85 127.245 90.56 127.565 90.36C127.892 90.1533 128.272 90.05 128.705 90.05C129.085 90.05 129.418 90.1333 129.705 90.3C129.998 90.4667 130.215 90.6967 130.355 90.99V87.95H131.165V95H130.375V94.11C130.235 94.4167 130.018 94.6567 129.725 94.83C129.432 95.0033 129.092 95.09 128.705 95.09ZM128.875 94.44C129.328 94.44 129.692 94.28 129.965 93.96C130.238 93.6333 130.375 93.17 130.375 92.57C130.375 91.9633 130.238 91.5 129.965 91.18C129.692 90.86 129.328 90.7 128.875 90.7C128.415 90.7 128.048 90.86 127.775 91.18C127.508 91.5 127.375 91.9633 127.375 92.57C127.375 93.17 127.508 93.6333 127.775 93.96C128.048 94.28 128.415 94.44 128.875 94.44ZM135.075 95.09C134.308 95.09 133.702 94.8667 133.255 94.42C132.808 93.9667 132.585 93.3533 132.585 92.58C132.585 92.08 132.685 91.64 132.885 91.26C133.085 90.8733 133.358 90.5767 133.705 90.37C134.058 90.1567 134.465 90.05 134.925 90.05C135.585 90.05 136.102 90.2633 136.475 90.69C136.848 91.11 137.035 91.69 137.035 92.43V92.74H133.375C133.402 93.2933 133.562 93.7167 133.855 94.01C134.148 94.2967 134.555 94.44 135.075 94.44C135.368 94.44 135.648 94.3967 135.915 94.31C136.182 94.2167 136.435 94.0667 136.675 93.86L136.955 94.43C136.735 94.6367 136.455 94.8 136.115 94.92C135.775 95.0333 135.428 95.09 135.075 95.09ZM134.945 90.65C134.485 90.65 134.122 90.7933 133.855 91.08C133.588 91.3667 133.432 91.7433 133.385 92.21H136.335C136.315 91.7167 136.185 91.3333 135.945 91.06C135.712 90.7867 135.378 90.65 134.945 90.65ZM141.436 95V90.77H140.476V90.14H141.436V89.97C141.436 89.3233 141.596 88.8333 141.916 88.5C142.242 88.1667 142.742 87.98 143.416 87.94L143.806 87.92L143.876 88.54L143.416 88.57C143.002 88.6033 142.702 88.7267 142.516 88.94C142.336 89.1533 142.246 89.4633 142.246 89.87V90.14H143.646V90.77H142.246V95H141.436ZM146.759 95.09C145.992 95.09 145.386 94.8667 144.939 94.42C144.492 93.9667 144.269 93.3533 144.269 92.58C144.269 92.08 144.369 91.64 144.569 91.26C144.769 90.8733 145.042 90.5767 145.389 90.37C145.742 90.1567 146.149 90.05 146.609 90.05C147.269 90.05 147.786 90.2633 148.159 90.69C148.532 91.11 148.719 91.69 148.719 92.43V92.74H145.059C145.086 93.2933 145.246 93.7167 145.539 94.01C145.832 94.2967 146.239 94.44 146.759 94.44C147.052 94.44 147.332 94.3967 147.599 94.31C147.866 94.2167 148.119 94.0667 148.359 93.86L148.639 94.43C148.419 94.6367 148.139 94.8 147.799 94.92C147.459 95.0333 147.112 95.09 146.759 95.09ZM146.629 90.65C146.169 90.65 145.806 90.7933 145.539 91.08C145.272 91.3667 145.116 91.7433 145.069 92.21H148.019C147.999 91.7167 147.869 91.3333 147.629 91.06C147.396 90.7867 147.062 90.65 146.629 90.65ZM146.319 89.49L147.349 87.47H148.219L146.899 89.49H146.319ZM150.091 95V90.14H150.881V91.01C151.141 90.4233 151.675 90.1 152.481 90.04L152.771 90.01L152.831 90.71L152.321 90.77C151.861 90.81 151.511 90.9567 151.271 91.21C151.031 91.4567 150.911 91.7967 150.911 92.23V95H150.091ZM153.775 88.93V88.02H154.775V88.93H153.775ZM153.875 95V90.14H154.685V95H153.875ZM157.93 95.09C157.596 95.09 157.296 95.0267 157.03 94.9C156.77 94.7667 156.563 94.5867 156.41 94.36C156.256 94.1333 156.18 93.88 156.18 93.6C156.18 93.2467 156.27 92.9667 156.45 92.76C156.636 92.5533 156.94 92.4067 157.36 92.32C157.786 92.2267 158.366 92.18 159.1 92.18H159.42V91.87C159.42 91.4567 159.333 91.16 159.16 90.98C158.993 90.7933 158.723 90.7 158.35 90.7C158.056 90.7 157.773 90.7433 157.5 90.83C157.226 90.91 156.946 91.0433 156.66 91.23L156.38 90.64C156.633 90.46 156.94 90.3167 157.3 90.21C157.666 90.1033 158.016 90.05 158.35 90.05C158.976 90.05 159.44 90.2033 159.74 90.51C160.046 90.8167 160.2 91.2933 160.2 91.94V95H159.44V94.16C159.313 94.4467 159.116 94.6733 158.85 94.84C158.59 95.0067 158.283 95.09 157.93 95.09ZM158.06 94.48C158.46 94.48 158.786 94.3433 159.04 94.07C159.293 93.79 159.42 93.4367 159.42 93.01V92.71H159.11C158.57 92.71 158.143 92.7367 157.83 92.79C157.523 92.8367 157.306 92.9233 157.18 93.05C157.06 93.17 157 93.3367 157 93.55C157 93.8233 157.093 94.0467 157.28 94.22C157.473 94.3933 157.733 94.48 158.06 94.48ZM163.542 95.09C163.162 95.09 162.802 95.0367 162.462 94.93C162.122 94.8233 161.842 94.6733 161.622 94.48L161.882 93.91C162.122 94.1033 162.386 94.2467 162.672 94.34C162.966 94.4267 163.262 94.47 163.562 94.47C163.942 94.47 164.229 94.4 164.422 94.26C164.616 94.12 164.712 93.93 164.712 93.69C164.712 93.5033 164.649 93.3567 164.522 93.25C164.396 93.1367 164.196 93.05 163.922 92.99L163.012 92.79C162.186 92.61 161.772 92.1833 161.772 91.51C161.772 91.07 161.946 90.7167 162.292 90.45C162.646 90.1833 163.106 90.05 163.672 90.05C164.006 90.05 164.322 90.1033 164.622 90.21C164.929 90.31 165.182 90.46 165.382 90.66L165.112 91.23C164.919 91.05 164.692 90.9133 164.432 90.82C164.179 90.72 163.926 90.67 163.672 90.67C163.299 90.67 163.016 90.7433 162.822 90.89C162.629 91.0367 162.532 91.23 162.532 91.47C162.532 91.8433 162.779 92.0833 163.272 92.19L164.182 92.38C164.609 92.4733 164.932 92.6233 165.152 92.83C165.372 93.03 165.482 93.3033 165.482 93.65C165.482 94.0967 165.306 94.45 164.952 94.71C164.599 94.9633 164.129 95.09 163.542 95.09ZM171.875 95.09C171.108 95.09 170.502 94.8667 170.055 94.42C169.608 93.9667 169.385 93.3533 169.385 92.58C169.385 92.08 169.485 91.64 169.685 91.26C169.885 90.8733 170.158 90.5767 170.505 90.37C170.858 90.1567 171.265 90.05 171.725 90.05C172.385 90.05 172.902 90.2633 173.275 90.69C173.648 91.11 173.835 91.69 173.835 92.43V92.74H170.175C170.202 93.2933 170.362 93.7167 170.655 94.01C170.948 94.2967 171.355 94.44 171.875 94.44C172.168 94.44 172.448 94.3967 172.715 94.31C172.982 94.2167 173.235 94.0667 173.475 93.86L173.755 94.43C173.535 94.6367 173.255 94.8 172.915 94.92C172.575 95.0333 172.228 95.09 171.875 95.09ZM171.745 90.65C171.285 90.65 170.922 90.7933 170.655 91.08C170.388 91.3667 170.232 91.7433 170.185 92.21H173.135C173.115 91.7167 172.985 91.3333 172.745 91.06C172.512 90.7867 172.178 90.65 171.745 90.65ZM180.166 95.09C179.399 95.09 178.792 94.8667 178.346 94.42C177.899 93.9667 177.676 93.3533 177.676 92.58C177.676 92.08 177.776 91.64 177.976 91.26C178.176 90.8733 178.449 90.5767 178.796 90.37C179.149 90.1567 179.556 90.05 180.016 90.05C180.676 90.05 181.192 90.2633 181.566 90.69C181.939 91.11 182.126 91.69 182.126 92.43V92.74H178.466C178.492 93.2933 178.652 93.7167 178.946 94.01C179.239 94.2967 179.646 94.44 180.166 94.44C180.459 94.44 180.739 94.3967 181.006 94.31C181.272 94.2167 181.526 94.0667 181.766 93.86L182.046 94.43C181.826 94.6367 181.546 94.8 181.206 94.92C180.866 95.0333 180.519 95.09 180.166 95.09ZM180.036 90.65C179.576 90.65 179.212 90.7933 178.946 91.08C178.679 91.3667 178.522 91.7433 178.476 92.21H181.426C181.406 91.7167 181.276 91.3333 181.036 91.06C180.802 90.7867 180.469 90.65 180.036 90.65ZM185.218 95.09C184.051 95.09 183.468 94.4467 183.468 93.16V90.14H184.278V93.15C184.278 93.5833 184.365 93.9033 184.538 94.11C184.718 94.3167 184.998 94.42 185.378 94.42C185.791 94.42 186.128 94.2833 186.388 94.01C186.648 93.73 186.778 93.36 186.778 92.9V90.14H187.588V95H186.798V94.18C186.645 94.4733 186.428 94.7 186.148 94.86C185.875 95.0133 185.565 95.09 185.218 95.09ZM192.332 95V90.77H191.372V90.14H192.332V89.97C192.332 89.3233 192.492 88.8333 192.812 88.5C193.138 88.1667 193.638 87.98 194.312 87.94L194.682 87.92L194.732 88.55L194.312 88.57C193.898 88.5967 193.598 88.72 193.412 88.94C193.232 89.1533 193.142 89.4633 193.142 89.87V90.14H196.142V95H195.332V90.77H193.142V95H192.332ZM195.242 88.93V88.02H196.232V88.93H195.242ZM197.648 95V94.46L200.428 90.77H197.648V90.14H201.328V90.68L198.548 94.37H201.438V95H197.648ZM207.175 95.09C206.008 95.09 205.425 94.4467 205.425 93.16V90.14H206.235V93.15C206.235 93.5833 206.322 93.9033 206.495 94.11C206.675 94.3167 206.955 94.42 207.335 94.42C207.748 94.42 208.085 94.2833 208.345 94.01C208.605 93.73 208.735 93.36 208.735 92.9V90.14H209.545V95H208.755V94.18C208.602 94.4733 208.385 94.7 208.105 94.86C207.832 95.0133 207.522 95.09 207.175 95.09ZM211.28 95V90.14H212.07V90.96C212.217 90.6667 212.42 90.4433 212.68 90.29C212.94 90.13 213.244 90.05 213.59 90.05C214.35 90.05 214.837 90.38 215.05 91.04C215.197 90.7333 215.414 90.4933 215.7 90.32C215.987 90.14 216.317 90.05 216.69 90.05C217.77 90.05 218.31 90.69 218.31 91.97V95H217.5V92.01C217.5 91.5633 217.42 91.2367 217.26 91.03C217.107 90.8167 216.85 90.71 216.49 90.71C216.097 90.71 215.784 90.85 215.55 91.13C215.317 91.41 215.2 91.7833 215.2 92.25V95H214.39V92.01C214.39 91.5633 214.31 91.2367 214.15 91.03C213.997 90.8167 213.74 90.71 213.38 90.71C212.98 90.71 212.664 90.85 212.43 91.13C212.204 91.41 212.09 91.7833 212.09 92.25V95H211.28ZM221.555 95.09C221.222 95.09 220.922 95.0267 220.655 94.9C220.395 94.7667 220.188 94.5867 220.035 94.36C219.882 94.1333 219.805 93.88 219.805 93.6C219.805 93.2467 219.895 92.9667 220.075 92.76C220.262 92.5533 220.565 92.4067 220.985 92.32C221.412 92.2267 221.992 92.18 222.725 92.18H223.045V91.87C223.045 91.4567 222.958 91.16 222.785 90.98C222.618 90.7933 222.348 90.7 221.975 90.7C221.682 90.7 221.398 90.7433 221.125 90.83C220.852 90.91 220.572 91.0433 220.285 91.23L220.005 90.64C220.258 90.46 220.565 90.3167 220.925 90.21C221.292 90.1033 221.642 90.05 221.975 90.05C222.602 90.05 223.065 90.2033 223.365 90.51C223.672 90.8167 223.825 91.2933 223.825 91.94V95H223.065V94.16C222.938 94.4467 222.742 94.6733 222.475 94.84C222.215 95.0067 221.908 95.09 221.555 95.09ZM221.685 94.48C222.085 94.48 222.412 94.3433 222.665 94.07C222.918 93.79 223.045 93.4367 223.045 93.01V92.71H222.735C222.195 92.71 221.768 92.7367 221.455 92.79C221.148 92.8367 220.932 92.9233 220.805 93.05C220.685 93.17 220.625 93.3367 220.625 93.55C220.625 93.8233 220.718 94.0467 220.905 94.22C221.098 94.3933 221.358 94.48 221.685 94.48ZM230.756 95.09C230.369 95.09 230.029 95.0033 229.736 94.83C229.449 94.6567 229.233 94.42 229.086 94.12V95H228.296V87.95H229.106V90.98C229.246 90.6933 229.463 90.4667 229.756 90.3C230.049 90.1333 230.383 90.05 230.756 90.05C231.189 90.05 231.566 90.1533 231.886 90.36C232.213 90.56 232.463 90.85 232.636 91.23C232.816 91.6033 232.906 92.05 232.906 92.57C232.906 93.0833 232.816 93.53 232.636 93.91C232.463 94.2833 232.213 94.5733 231.886 94.78C231.566 94.9867 231.189 95.09 230.756 95.09ZM230.586 94.44C231.039 94.44 231.403 94.28 231.676 93.96C231.949 93.6333 232.086 93.17 232.086 92.57C232.086 91.9633 231.949 91.5 231.676 91.18C231.403 90.86 231.039 90.7 230.586 90.7C230.133 90.7 229.769 90.86 229.496 91.18C229.223 91.5 229.086 91.9633 229.086 92.57C229.086 93.17 229.223 93.6333 229.496 93.96C229.769 94.28 230.133 94.44 230.586 94.44ZM236.346 95.09C235.873 95.09 235.463 94.9867 235.116 94.78C234.769 94.5733 234.499 94.2833 234.306 93.91C234.119 93.53 234.026 93.0833 234.026 92.57C234.026 92.0567 234.119 91.6133 234.306 91.24C234.499 90.86 234.769 90.5667 235.116 90.36C235.463 90.1533 235.873 90.05 236.346 90.05C236.813 90.05 237.219 90.1533 237.566 90.36C237.919 90.5667 238.189 90.86 238.376 91.24C238.569 91.6133 238.666 92.0567 238.666 92.57C238.666 93.0833 238.569 93.53 238.376 93.91C238.189 94.2833 237.919 94.5733 237.566 94.78C237.219 94.9867 236.813 95.09 236.346 95.09ZM236.346 94.44C236.799 94.44 237.163 94.28 237.436 93.96C237.709 93.6333 237.846 93.17 237.846 92.57C237.846 91.9633 237.709 91.5 237.436 91.18C237.163 90.86 236.799 90.7 236.346 90.7C235.886 90.7 235.519 90.86 235.246 91.18C234.979 91.5 234.846 91.9633 234.846 92.57C234.846 93.17 234.979 93.6333 235.246 93.96C235.519 94.28 235.886 94.44 236.346 94.44ZM241.573 95.09C241.079 95.09 240.706 94.9467 240.453 94.66C240.206 94.3667 240.083 93.9433 240.083 93.39V87.95H240.893V93.33C240.893 94.0433 241.176 94.4 241.743 94.4C241.909 94.4 242.059 94.38 242.193 94.34L242.173 95.02C241.966 95.0667 241.766 95.09 241.573 95.09ZM244.833 95.09C244.453 95.09 244.093 95.0367 243.753 94.93C243.413 94.8233 243.133 94.6733 242.913 94.48L243.173 93.91C243.413 94.1033 243.676 94.2467 243.963 94.34C244.256 94.4267 244.553 94.47 244.853 94.47C245.233 94.47 245.52 94.4 245.713 94.26C245.906 94.12 246.003 93.93 246.003 93.69C246.003 93.5033 245.94 93.3567 245.813 93.25C245.686 93.1367 245.486 93.05 245.213 92.99L244.303 92.79C243.476 92.61 243.063 92.1833 243.063 91.51C243.063 91.07 243.236 90.7167 243.583 90.45C243.936 90.1833 244.396 90.05 244.963 90.05C245.296 90.05 245.613 90.1033 245.913 90.21C246.22 90.31 246.473 90.46 246.673 90.66L246.403 91.23C246.21 91.05 245.983 90.9133 245.723 90.82C245.47 90.72 245.216 90.67 244.963 90.67C244.59 90.67 244.306 90.7433 244.113 90.89C243.92 91.0367 243.823 91.23 243.823 91.47C243.823 91.8433 244.07 92.0833 244.563 92.19L245.473 92.38C245.9 92.4733 246.223 92.6233 246.443 92.83C246.663 93.03 246.773 93.3033 246.773 93.65C246.773 94.0967 246.596 94.45 246.243 94.71C245.89 94.9633 245.42 95.09 244.833 95.09ZM248.107 88.93V88.02H249.107V88.93H248.107ZM248.207 95V90.14H249.017V95H248.207ZM250.732 95V90.14H251.522V90.97C251.682 90.6633 251.908 90.4333 252.202 90.28C252.495 90.1267 252.825 90.05 253.192 90.05C254.345 90.05 254.922 90.69 254.922 91.97V95H254.112V92.02C254.112 91.5667 254.022 91.2367 253.842 91.03C253.668 90.8167 253.388 90.71 253.002 90.71C252.555 90.71 252.198 90.85 251.932 91.13C251.672 91.4033 251.542 91.77 251.542 92.23V95H250.732ZM256.615 95V87.95H257.425V90.94C257.585 90.6467 257.808 90.4267 258.095 90.28C258.388 90.1267 258.715 90.05 259.075 90.05C260.228 90.05 260.805 90.69 260.805 91.97V95H259.995V92.02C259.995 91.5667 259.905 91.2367 259.725 91.03C259.552 90.8167 259.272 90.71 258.885 90.71C258.438 90.71 258.082 90.85 257.815 91.13C257.555 91.4033 257.425 91.77 257.425 92.23V95H256.615ZM264.029 95.09C263.695 95.09 263.395 95.0267 263.129 94.9C262.869 94.7667 262.662 94.5867 262.509 94.36C262.355 94.1333 262.279 93.88 262.279 93.6C262.279 93.2467 262.369 92.9667 262.549 92.76C262.735 92.5533 263.039 92.4067 263.459 92.32C263.885 92.2267 264.465 92.18 265.199 92.18H265.519V91.87C265.519 91.4567 265.432 91.16 265.259 90.98C265.092 90.7933 264.822 90.7 264.449 90.7C264.155 90.7 263.872 90.7433 263.599 90.83C263.325 90.91 263.045 91.0433 262.759 91.23L262.479 90.64C262.732 90.46 263.039 90.3167 263.399 90.21C263.765 90.1033 264.115 90.05 264.449 90.05C265.075 90.05 265.539 90.2033 265.839 90.51C266.145 90.8167 266.299 91.2933 266.299 91.94V95H265.539V94.16C265.412 94.4467 265.215 94.6733 264.949 94.84C264.689 95.0067 264.382 95.09 264.029 95.09ZM264.159 94.48C264.559 94.48 264.885 94.3433 265.139 94.07C265.392 93.79 265.519 93.4367 265.519 93.01V92.71H265.209C264.669 92.71 264.242 92.7367 263.929 92.79C263.622 92.8367 263.405 92.9233 263.279 93.05C263.159 93.17 263.099 93.3367 263.099 93.55C263.099 93.8233 263.192 94.0467 263.379 94.22C263.572 94.3933 263.832 94.48 264.159 94.48ZM268.291 96.14L267.911 95.85C268.058 95.6967 268.161 95.55 268.221 95.41C268.288 95.2767 268.331 95.14 268.351 95H267.871V93.98H268.891V94.7C268.891 94.9733 268.848 95.2267 268.761 95.46C268.675 95.6933 268.518 95.92 268.291 96.14ZM92.5414 105.09C91.3747 105.09 90.7914 104.447 90.7914 103.16V100.14H91.6014V103.15C91.6014 103.583 91.6881 103.903 91.8614 104.11C92.0414 104.317 92.3214 104.42 92.7014 104.42C93.1147 104.42 93.4514 104.283 93.7114 104.01C93.9714 103.73 94.1014 103.36 94.1014 102.9V100.14H94.9114V105H94.1214V104.18C93.9681 104.473 93.7514 104.7 93.4714 104.86C93.1981 105.013 92.8881 105.09 92.5414 105.09ZM96.6469 105V100.14H97.4369V100.96C97.5835 100.667 97.7869 100.443 98.0469 100.29C98.3069 100.13 98.6102 100.05 98.9569 100.05C99.7169 100.05 100.204 100.38 100.417 101.04C100.564 100.733 100.78 100.493 101.067 100.32C101.354 100.14 101.684 100.05 102.057 100.05C103.137 100.05 103.677 100.69 103.677 101.97V105H102.867V102.01C102.867 101.563 102.787 101.237 102.627 101.03C102.474 100.817 102.217 100.71 101.857 100.71C101.464 100.71 101.15 100.85 100.917 101.13C100.684 101.41 100.567 101.783 100.567 102.25V105H99.7569V102.01C99.7569 101.563 99.6769 101.237 99.5169 101.03C99.3635 100.817 99.1069 100.71 98.7469 100.71C98.3469 100.71 98.0302 100.85 97.7969 101.13C97.5702 101.41 97.4569 101.783 97.4569 102.25V105H96.6469ZM110.35 105.09C109.583 105.09 108.976 104.867 108.53 104.42C108.083 103.967 107.86 103.353 107.86 102.58C107.86 102.08 107.96 101.64 108.16 101.26C108.36 100.873 108.633 100.577 108.98 100.37C109.333 100.157 109.74 100.05 110.2 100.05C110.86 100.05 111.376 100.263 111.75 100.69C112.123 101.11 112.31 101.69 112.31 102.43V102.74H108.65C108.676 103.293 108.836 103.717 109.13 104.01C109.423 104.297 109.83 104.44 110.35 104.44C110.643 104.44 110.923 104.397 111.19 104.31C111.456 104.217 111.71 104.067 111.95 103.86L112.23 104.43C112.01 104.637 111.73 104.8 111.39 104.92C111.05 105.033 110.703 105.09 110.35 105.09ZM110.22 100.65C109.76 100.65 109.396 100.793 109.13 101.08C108.863 101.367 108.706 101.743 108.66 102.21H111.61C111.59 101.717 111.46 101.333 111.22 101.06C110.986 100.787 110.653 100.65 110.22 100.65ZM115.322 105.09C114.942 105.09 114.582 105.037 114.242 104.93C113.902 104.823 113.622 104.673 113.402 104.48L113.662 103.91C113.902 104.103 114.165 104.247 114.452 104.34C114.745 104.427 115.042 104.47 115.342 104.47C115.722 104.47 116.009 104.4 116.202 104.26C116.395 104.12 116.492 103.93 116.492 103.69C116.492 103.503 116.429 103.357 116.302 103.25C116.175 103.137 115.975 103.05 115.702 102.99L114.792 102.79C113.965 102.61 113.552 102.183 113.552 101.51C113.552 101.07 113.725 100.717 114.072 100.45C114.425 100.183 114.885 100.05 115.452 100.05C115.785 100.05 116.102 100.103 116.402 100.21C116.709 100.31 116.962 100.46 117.162 100.66L116.892 101.23C116.699 101.05 116.472 100.913 116.212 100.82C115.959 100.72 115.705 100.67 115.452 100.67C115.079 100.67 114.795 100.743 114.602 100.89C114.409 101.037 114.312 101.23 114.312 101.47C114.312 101.843 114.559 102.083 115.052 102.19L115.962 102.38C116.389 102.473 116.712 102.623 116.932 102.83C117.152 103.03 117.262 103.303 117.262 103.65C117.262 104.097 117.085 104.45 116.732 104.71C116.379 104.963 115.909 105.09 115.322 105.09ZM120.598 105.09C120.024 105.09 119.594 104.94 119.308 104.64C119.021 104.333 118.878 103.893 118.878 103.32V100.77H117.928V100.14H118.878V98.65H119.688V100.14H121.228V100.77H119.688V103.24C119.688 103.62 119.768 103.91 119.928 104.11C120.088 104.303 120.348 104.4 120.708 104.4C120.814 104.4 120.921 104.387 121.028 104.36C121.134 104.333 121.231 104.307 121.318 104.28L121.458 104.9C121.371 104.947 121.244 104.99 121.078 105.03C120.911 105.07 120.751 105.09 120.598 105.09ZM124.315 105.09C123.842 105.09 123.432 104.987 123.085 104.78C122.738 104.573 122.468 104.283 122.275 103.91C122.088 103.53 121.995 103.083 121.995 102.57C121.995 102.057 122.088 101.613 122.275 101.24C122.468 100.86 122.738 100.567 123.085 100.36C123.432 100.153 123.842 100.05 124.315 100.05C124.782 100.05 125.188 100.153 125.535 100.36C125.888 100.567 126.158 100.86 126.345 101.24C126.538 101.613 126.635 102.057 126.635 102.57C126.635 103.083 126.538 103.53 126.345 103.91C126.158 104.283 125.888 104.573 125.535 104.78C125.188 104.987 124.782 105.09 124.315 105.09ZM124.315 104.44C124.768 104.44 125.132 104.28 125.405 103.96C125.678 103.633 125.815 103.17 125.815 102.57C125.815 101.963 125.678 101.5 125.405 101.18C125.132 100.86 124.768 100.7 124.315 100.7C123.855 100.7 123.488 100.86 123.215 101.18C122.948 101.5 122.815 101.963 122.815 102.57C122.815 103.17 122.948 103.633 123.215 103.96C123.488 104.28 123.855 104.44 124.315 104.44ZM127.981 98.93V98.02H128.981V98.93H127.981ZM126.791 106.93L126.731 106.3L127.161 106.26C127.775 106.207 128.081 105.837 128.081 105.15V100.14H128.891V105.07C128.891 105.65 128.755 106.09 128.481 106.39C128.208 106.69 127.788 106.86 127.221 106.9L126.791 106.93ZM132.635 105.09C132.161 105.09 131.751 104.987 131.405 104.78C131.058 104.573 130.788 104.283 130.595 103.91C130.408 103.53 130.315 103.083 130.315 102.57C130.315 102.057 130.408 101.613 130.595 101.24C130.788 100.86 131.058 100.567 131.405 100.36C131.751 100.153 132.161 100.05 132.635 100.05C133.101 100.05 133.508 100.153 133.855 100.36C134.208 100.567 134.478 100.86 134.665 101.24C134.858 101.613 134.955 102.057 134.955 102.57C134.955 103.083 134.858 103.53 134.665 103.91C134.478 104.283 134.208 104.573 133.855 104.78C133.508 104.987 133.101 105.09 132.635 105.09ZM132.635 104.44C133.088 104.44 133.451 104.28 133.725 103.96C133.998 103.633 134.135 103.17 134.135 102.57C134.135 101.963 133.998 101.5 133.725 101.18C133.451 100.86 133.088 100.7 132.635 100.7C132.175 100.7 131.808 100.86 131.535 101.18C131.268 101.5 131.135 101.963 131.135 102.57C131.135 103.17 131.268 103.633 131.535 103.96C131.808 104.28 132.175 104.44 132.635 104.44ZM141.33 105.09C140.563 105.09 139.956 104.867 139.51 104.42C139.063 103.967 138.84 103.353 138.84 102.58C138.84 102.08 138.94 101.64 139.14 101.26C139.34 100.873 139.613 100.577 139.96 100.37C140.313 100.157 140.72 100.05 141.18 100.05C141.84 100.05 142.356 100.263 142.73 100.69C143.103 101.11 143.29 101.69 143.29 102.43V102.74H139.63C139.656 103.293 139.816 103.717 140.11 104.01C140.403 104.297 140.81 104.44 141.33 104.44C141.623 104.44 141.903 104.397 142.17 104.31C142.436 104.217 142.69 104.067 142.93 103.86L143.21 104.43C142.99 104.637 142.71 104.8 142.37 104.92C142.03 105.033 141.683 105.09 141.33 105.09ZM141.2 100.65C140.74 100.65 140.376 100.793 140.11 101.08C139.843 101.367 139.686 101.743 139.64 102.21H142.59C142.57 101.717 142.44 101.333 142.2 101.06C141.966 100.787 141.633 100.65 141.2 100.65ZM149.15 105.09C147.984 105.09 147.4 104.447 147.4 103.16V100.14H148.21V103.15C148.21 103.583 148.297 103.903 148.47 104.11C148.65 104.317 148.93 104.42 149.31 104.42C149.724 104.42 150.06 104.283 150.32 104.01C150.58 103.73 150.71 103.36 150.71 102.9V100.14H151.52V105H150.73V104.18C150.577 104.473 150.36 104.7 150.08 104.86C149.807 105.013 149.497 105.09 149.15 105.09ZM153.256 105V100.14H154.046V100.96C154.193 100.667 154.396 100.443 154.656 100.29C154.916 100.13 155.219 100.05 155.566 100.05C156.326 100.05 156.813 100.38 157.026 101.04C157.173 100.733 157.389 100.493 157.676 100.32C157.963 100.14 158.293 100.05 158.666 100.05C159.746 100.05 160.286 100.69 160.286 101.97V105H159.476V102.01C159.476 101.563 159.396 101.237 159.236 101.03C159.083 100.817 158.826 100.71 158.466 100.71C158.073 100.71 157.759 100.85 157.526 101.13C157.293 101.41 157.176 101.783 157.176 102.25V105H156.366V102.01C156.366 101.563 156.286 101.237 156.126 101.03C155.973 100.817 155.716 100.71 155.356 100.71C154.956 100.71 154.639 100.85 154.406 101.13C154.179 101.41 154.066 101.783 154.066 102.25V105H153.256ZM163.53 105.09C163.197 105.09 162.897 105.027 162.63 104.9C162.37 104.767 162.164 104.587 162.01 104.36C161.857 104.133 161.78 103.88 161.78 103.6C161.78 103.247 161.87 102.967 162.05 102.76C162.237 102.553 162.54 102.407 162.96 102.32C163.387 102.227 163.967 102.18 164.7 102.18H165.02V101.87C165.02 101.457 164.934 101.16 164.76 100.98C164.594 100.793 164.324 100.7 163.95 100.7C163.657 100.7 163.374 100.743 163.1 100.83C162.827 100.91 162.547 101.043 162.26 101.23L161.98 100.64C162.234 100.46 162.54 100.317 162.9 100.21C163.267 100.103 163.617 100.05 163.95 100.05C164.577 100.05 165.04 100.203 165.34 100.51C165.647 100.817 165.8 101.293 165.8 101.94V105H165.04V104.16C164.914 104.447 164.717 104.673 164.45 104.84C164.19 105.007 163.884 105.09 163.53 105.09ZM163.66 104.48C164.06 104.48 164.387 104.343 164.64 104.07C164.894 103.79 165.02 103.437 165.02 103.01V102.71H164.71C164.17 102.71 163.744 102.737 163.43 102.79C163.124 102.837 162.907 102.923 162.78 103.05C162.66 103.17 162.6 103.337 162.6 103.55C162.6 103.823 162.694 104.047 162.88 104.22C163.074 104.393 163.334 104.48 163.66 104.48ZM170.291 105V100.14H171.081V100.96C171.228 100.667 171.431 100.443 171.691 100.29C171.951 100.13 172.255 100.05 172.601 100.05C173.361 100.05 173.848 100.38 174.061 101.04C174.208 100.733 174.425 100.493 174.711 100.32C174.998 100.14 175.328 100.05 175.701 100.05C176.781 100.05 177.321 100.69 177.321 101.97V105H176.511V102.01C176.511 101.563 176.431 101.237 176.271 101.03C176.118 100.817 175.861 100.71 175.501 100.71C175.108 100.71 174.795 100.85 174.561 101.13C174.328 101.41 174.211 101.783 174.211 102.25V105H173.401V102.01C173.401 101.563 173.321 101.237 173.161 101.03C173.008 100.817 172.751 100.71 172.391 100.71C171.991 100.71 171.675 100.85 171.441 101.13C171.215 101.41 171.101 101.783 171.101 102.25V105H170.291ZM181.056 105.09C180.583 105.09 180.173 104.987 179.826 104.78C179.479 104.573 179.209 104.283 179.016 103.91C178.829 103.53 178.736 103.083 178.736 102.57C178.736 102.057 178.829 101.613 179.016 101.24C179.209 100.86 179.479 100.567 179.826 100.36C180.173 100.153 180.583 100.05 181.056 100.05C181.523 100.05 181.929 100.153 182.276 100.36C182.629 100.567 182.899 100.86 183.086 101.24C183.279 101.613 183.376 102.057 183.376 102.57C183.376 103.083 183.279 103.53 183.086 103.91C182.899 104.283 182.629 104.573 182.276 104.78C181.929 104.987 181.523 105.09 181.056 105.09ZM181.056 104.44C181.509 104.44 181.873 104.28 182.146 103.96C182.419 103.633 182.556 103.17 182.556 102.57C182.556 101.963 182.419 101.5 182.146 101.18C181.873 100.86 181.509 100.7 181.056 100.7C180.596 100.7 180.229 100.86 179.956 101.18C179.689 101.5 179.556 101.963 179.556 102.57C179.556 103.17 179.689 103.633 179.956 103.96C180.229 104.28 180.596 104.44 181.056 104.44ZM186.852 105.09C186.366 105.09 185.946 104.987 185.592 104.78C185.239 104.567 184.966 104.27 184.772 103.89C184.586 103.503 184.492 103.053 184.492 102.54C184.492 101.767 184.702 101.16 185.122 100.72C185.542 100.273 186.119 100.05 186.852 100.05C187.152 100.05 187.449 100.103 187.742 100.21C188.036 100.317 188.279 100.467 188.472 100.66L188.192 101.25C187.999 101.063 187.786 100.927 187.552 100.84C187.326 100.753 187.109 100.71 186.902 100.71C186.396 100.71 186.006 100.87 185.732 101.19C185.459 101.503 185.322 101.957 185.322 102.55C185.322 103.13 185.459 103.59 185.732 103.93C186.006 104.263 186.396 104.43 186.902 104.43C187.109 104.43 187.326 104.387 187.552 104.3C187.786 104.213 187.999 104.073 188.192 103.88L188.472 104.47C188.279 104.663 188.032 104.817 187.732 104.93C187.439 105.037 187.146 105.09 186.852 105.09ZM189.621 105V97.95H190.431V100.94C190.591 100.647 190.815 100.427 191.101 100.28C191.395 100.127 191.721 100.05 192.081 100.05C193.235 100.05 193.811 100.69 193.811 101.97V105H193.001V102.02C193.001 101.567 192.911 101.237 192.731 101.03C192.558 100.817 192.278 100.71 191.891 100.71C191.445 100.71 191.088 100.85 190.821 101.13C190.561 101.403 190.431 101.77 190.431 102.23V105H189.621ZM195.405 98.93V98.02H196.405V98.93H195.405ZM195.505 105V100.14H196.315V105H195.505ZM199.519 105.09C199.026 105.09 198.653 104.947 198.399 104.66C198.153 104.367 198.029 103.943 198.029 103.39V97.95H198.839V103.33C198.839 104.043 199.123 104.4 199.689 104.4C199.856 104.4 200.006 104.38 200.139 104.34L200.119 105.02C199.913 105.067 199.713 105.09 199.519 105.09ZM202.718 105.09C202.385 105.09 202.085 105.027 201.818 104.9C201.558 104.767 201.352 104.587 201.198 104.36C201.045 104.133 200.968 103.88 200.968 103.6C200.968 103.247 201.058 102.967 201.238 102.76C201.425 102.553 201.728 102.407 202.148 102.32C202.575 102.227 203.155 102.18 203.888 102.18H204.208V101.87C204.208 101.457 204.122 101.16 203.948 100.98C203.782 100.793 203.512 100.7 203.138 100.7C202.845 100.7 202.562 100.743 202.288 100.83C202.015 100.91 201.735 101.043 201.448 101.23L201.168 100.64C201.422 100.46 201.728 100.317 202.088 100.21C202.455 100.103 202.805 100.05 203.138 100.05C203.765 100.05 204.228 100.203 204.528 100.51C204.835 100.817 204.988 101.293 204.988 101.94V105H204.228V104.16C204.102 104.447 203.905 104.673 203.638 104.84C203.378 105.007 203.072 105.09 202.718 105.09ZM202.848 104.48C203.248 104.48 203.575 104.343 203.828 104.07C204.082 103.79 204.208 103.437 204.208 103.01V102.71H203.898C203.358 102.71 202.932 102.737 202.618 102.79C202.312 102.837 202.095 102.923 201.968 103.05C201.848 103.17 201.788 103.337 201.788 103.55C201.788 103.823 201.882 104.047 202.068 104.22C202.262 104.393 202.522 104.48 202.848 104.48ZM211.649 105.09C210.883 105.09 210.276 104.867 209.829 104.42C209.383 103.967 209.159 103.353 209.159 102.58C209.159 102.08 209.259 101.64 209.459 101.26C209.659 100.873 209.933 100.577 210.279 100.37C210.633 100.157 211.039 100.05 211.499 100.05C212.159 100.05 212.676 100.263 213.049 100.69C213.423 101.11 213.609 101.69 213.609 102.43V102.74H209.949C209.976 103.293 210.136 103.717 210.429 104.01C210.723 104.297 211.129 104.44 211.649 104.44C211.943 104.44 212.223 104.397 212.489 104.31C212.756 104.217 213.009 104.067 213.249 103.86L213.529 104.43C213.309 104.637 213.029 104.8 212.689 104.92C212.349 105.033 212.003 105.09 211.649 105.09ZM211.519 100.65C211.059 100.65 210.696 100.793 210.429 101.08C210.163 101.367 210.006 101.743 209.959 102.21H212.909C212.889 101.717 212.759 101.333 212.519 101.06C212.286 100.787 211.953 100.65 211.519 100.65ZM219.94 105.09C219.173 105.09 218.567 104.867 218.12 104.42C217.673 103.967 217.45 103.353 217.45 102.58C217.45 102.08 217.55 101.64 217.75 101.26C217.95 100.873 218.223 100.577 218.57 100.37C218.923 100.157 219.33 100.05 219.79 100.05C220.45 100.05 220.967 100.263 221.34 100.69C221.713 101.11 221.9 101.69 221.9 102.43V102.74H218.24C218.267 103.293 218.427 103.717 218.72 104.01C219.013 104.297 219.42 104.44 219.94 104.44C220.233 104.44 220.513 104.397 220.78 104.31C221.047 104.217 221.3 104.067 221.54 103.86L221.82 104.43C221.6 104.637 221.32 104.8 220.98 104.92C220.64 105.033 220.293 105.09 219.94 105.09ZM219.81 100.65C219.35 100.65 218.987 100.793 218.72 101.08C218.453 101.367 218.297 101.743 218.25 102.21H221.2C221.18 101.717 221.05 101.333 220.81 101.06C220.577 100.787 220.243 100.65 219.81 100.65ZM224.992 105.09C223.826 105.09 223.242 104.447 223.242 103.16V100.14H224.052V103.15C224.052 103.583 224.139 103.903 224.312 104.11C224.492 104.317 224.772 104.42 225.152 104.42C225.566 104.42 225.902 104.283 226.162 104.01C226.422 103.73 226.552 103.36 226.552 102.9V100.14H227.362V105H226.572V104.18C226.419 104.473 226.202 104.7 225.922 104.86C225.649 105.013 225.339 105.09 224.992 105.09ZM233.276 105L231.186 100.14H232.066L233.676 104.08L235.306 100.14H236.136L234.036 105H233.276ZM239.144 105.09C238.671 105.09 238.261 104.987 237.914 104.78C237.567 104.573 237.297 104.283 237.104 103.91C236.917 103.53 236.824 103.083 236.824 102.57C236.824 102.057 236.917 101.613 237.104 101.24C237.297 100.86 237.567 100.567 237.914 100.36C238.261 100.153 238.671 100.05 239.144 100.05C239.611 100.05 240.017 100.153 240.364 100.36C240.717 100.567 240.987 100.86 241.174 101.24C241.367 101.613 241.464 102.057 241.464 102.57C241.464 103.083 241.367 103.53 241.174 103.91C240.987 104.283 240.717 104.573 240.364 104.78C240.017 104.987 239.611 105.09 239.144 105.09ZM239.144 104.44C239.597 104.44 239.961 104.28 240.234 103.96C240.507 103.633 240.644 103.17 240.644 102.57C240.644 101.963 240.507 101.5 240.234 101.18C239.961 100.86 239.597 100.7 239.144 100.7C238.684 100.7 238.317 100.86 238.044 101.18C237.777 101.5 237.644 101.963 237.644 102.57C237.644 103.17 237.777 103.633 238.044 103.96C238.317 104.28 238.684 104.44 239.144 104.44ZM244.601 105.09C243.434 105.09 242.851 104.447 242.851 103.16V100.14H243.661V103.15C243.661 103.583 243.747 103.903 243.921 104.11C244.101 104.317 244.381 104.42 244.761 104.42C245.174 104.42 245.511 104.283 245.771 104.01C246.031 103.73 246.161 103.36 246.161 102.9V100.14H246.971V105H246.181V104.18C246.027 104.473 245.811 104.7 245.531 104.86C245.257 105.013 244.947 105.09 244.601 105.09ZM91.0814 115V110.77H90.1214V110.14H91.0814V109.97C91.0814 109.323 91.2414 108.833 91.5614 108.5C91.8881 108.167 92.3881 107.98 93.0614 107.94L93.4514 107.92L93.5214 108.54L93.0614 108.57C92.6481 108.603 92.3481 108.727 92.1614 108.94C91.9814 109.153 91.8914 109.463 91.8914 109.87V110.14H93.2914V110.77H91.8914V115H91.0814ZM95.8327 115.09C95.4993 115.09 95.1993 115.027 94.9327 114.9C94.6727 114.767 94.466 114.587 94.3127 114.36C94.1593 114.133 94.0827 113.88 94.0827 113.6C94.0827 113.247 94.1727 112.967 94.3527 112.76C94.5393 112.553 94.8427 112.407 95.2627 112.32C95.6893 112.227 96.2693 112.18 97.0027 112.18H97.3227V111.87C97.3227 111.457 97.236 111.16 97.0627 110.98C96.896 110.793 96.626 110.7 96.2527 110.7C95.9593 110.7 95.676 110.743 95.4027 110.83C95.1293 110.91 94.8493 111.043 94.5627 111.23L94.2827 110.64C94.536 110.46 94.8427 110.317 95.2027 110.21C95.5693 110.103 95.9193 110.05 96.2527 110.05C96.8793 110.05 97.3427 110.203 97.6427 110.51C97.9493 110.817 98.1027 111.293 98.1027 111.94V115H97.3427V114.16C97.216 114.447 97.0193 114.673 96.7527 114.84C96.4927 115.007 96.186 115.09 95.8327 115.09ZM95.9627 114.48C96.3627 114.48 96.6893 114.343 96.9427 114.07C97.196 113.79 97.3227 113.437 97.3227 113.01V112.71H97.0127C96.4727 112.71 96.046 112.737 95.7327 112.79C95.426 112.837 95.2093 112.923 95.0827 113.05C94.9627 113.17 94.9027 113.337 94.9027 113.55C94.9027 113.823 94.996 114.047 95.1827 114.22C95.376 114.393 95.636 114.48 95.9627 114.48ZM99.5954 115V114.46L102.375 110.77H99.5954V110.14H103.275V110.68L100.495 114.37H103.385V115H99.5954ZM106.727 115.09C105.96 115.09 105.353 114.867 104.907 114.42C104.46 113.967 104.237 113.353 104.237 112.58C104.237 112.08 104.337 111.64 104.537 111.26C104.737 110.873 105.01 110.577 105.357 110.37C105.71 110.157 106.117 110.05 106.577 110.05C107.237 110.05 107.753 110.263 108.127 110.69C108.5 111.11 108.687 111.69 108.687 112.43V112.74H105.027C105.053 113.293 105.213 113.717 105.507 114.01C105.8 114.297 106.207 114.44 106.727 114.44C107.02 114.44 107.3 114.397 107.567 114.31C107.833 114.217 108.087 114.067 108.327 113.86L108.607 114.43C108.387 114.637 108.107 114.8 107.767 114.92C107.427 115.033 107.08 115.09 106.727 115.09ZM106.597 110.65C106.137 110.65 105.773 110.793 105.507 111.08C105.24 111.367 105.083 111.743 105.037 112.21H107.987C107.967 111.717 107.837 111.333 107.597 111.06C107.363 110.787 107.03 110.65 106.597 110.65ZM110.059 115V110.14H110.849V111.01C111.109 110.423 111.642 110.1 112.449 110.04L112.739 110.01L112.799 110.71L112.289 110.77C111.829 110.81 111.479 110.957 111.239 111.21C110.999 111.457 110.879 111.797 110.879 112.23V115H110.059ZM118.141 115.09C117.808 115.09 117.508 115.027 117.241 114.9C116.981 114.767 116.775 114.587 116.621 114.36C116.468 114.133 116.391 113.88 116.391 113.6C116.391 113.247 116.481 112.967 116.661 112.76C116.848 112.553 117.151 112.407 117.571 112.32C117.998 112.227 118.578 112.18 119.311 112.18H119.631V111.87C119.631 111.457 119.545 111.16 119.371 110.98C119.205 110.793 118.935 110.7 118.561 110.7C118.268 110.7 117.985 110.743 117.711 110.83C117.438 110.91 117.158 111.043 116.871 111.23L116.591 110.64C116.845 110.46 117.151 110.317 117.511 110.21C117.878 110.103 118.228 110.05 118.561 110.05C119.188 110.05 119.651 110.203 119.951 110.51C120.258 110.817 120.411 111.293 120.411 111.94V115H119.651V114.16C119.525 114.447 119.328 114.673 119.061 114.84C118.801 115.007 118.495 115.09 118.141 115.09ZM118.271 114.48C118.671 114.48 118.998 114.343 119.251 114.07C119.505 113.79 119.631 113.437 119.631 113.01V112.71H119.321C118.781 112.71 118.355 112.737 118.041 112.79C117.735 112.837 117.518 112.923 117.391 113.05C117.271 113.17 117.211 113.337 117.211 113.55C117.211 113.823 117.305 114.047 117.491 114.22C117.685 114.393 117.945 114.48 118.271 114.48ZM122.014 108.93V108.02H123.014V108.93H122.014ZM122.114 115V110.14H122.924V115H122.114ZM124.638 115V110.14H125.428V110.97C125.588 110.663 125.815 110.433 126.108 110.28C126.402 110.127 126.732 110.05 127.098 110.05C128.252 110.05 128.828 110.69 128.828 111.97V115H128.018V112.02C128.018 111.567 127.928 111.237 127.748 111.03C127.575 110.817 127.295 110.71 126.908 110.71C126.462 110.71 126.105 110.85 125.838 111.13C125.578 111.403 125.448 111.77 125.448 112.23V115H124.638ZM132.372 115.09C131.938 115.09 131.558 114.987 131.232 114.78C130.912 114.573 130.662 114.283 130.482 113.91C130.308 113.53 130.222 113.083 130.222 112.57C130.222 112.05 130.308 111.603 130.482 111.23C130.662 110.85 130.912 110.56 131.232 110.36C131.558 110.153 131.938 110.05 132.372 110.05C132.752 110.05 133.085 110.133 133.372 110.3C133.665 110.467 133.882 110.697 134.022 110.99V107.95H134.832V115H134.042V114.11C133.902 114.417 133.685 114.657 133.392 114.83C133.098 115.003 132.758 115.09 132.372 115.09ZM132.542 114.44C132.995 114.44 133.358 114.28 133.632 113.96C133.905 113.633 134.042 113.17 134.042 112.57C134.042 111.963 133.905 111.5 133.632 111.18C133.358 110.86 132.995 110.7 132.542 110.7C132.082 110.7 131.715 110.86 131.442 111.18C131.175 111.5 131.042 111.963 131.042 112.57C131.042 113.17 131.175 113.633 131.442 113.96C131.715 114.28 132.082 114.44 132.542 114.44ZM138.082 115.09C137.749 115.09 137.449 115.027 137.182 114.9C136.922 114.767 136.715 114.587 136.562 114.36C136.409 114.133 136.332 113.88 136.332 113.6C136.332 113.247 136.422 112.967 136.602 112.76C136.789 112.553 137.092 112.407 137.512 112.32C137.939 112.227 138.519 112.18 139.252 112.18H139.572V111.87C139.572 111.457 139.485 111.16 139.312 110.98C139.145 110.793 138.875 110.7 138.502 110.7C138.209 110.7 137.925 110.743 137.652 110.83C137.379 110.91 137.099 111.043 136.812 111.23L136.532 110.64C136.785 110.46 137.092 110.317 137.452 110.21C137.819 110.103 138.169 110.05 138.502 110.05C139.129 110.05 139.592 110.203 139.892 110.51C140.199 110.817 140.352 111.293 140.352 111.94V115H139.592V114.16C139.465 114.447 139.269 114.673 139.002 114.84C138.742 115.007 138.435 115.09 138.082 115.09ZM138.212 114.48C138.612 114.48 138.939 114.343 139.192 114.07C139.445 113.79 139.572 113.437 139.572 113.01V112.71H139.262C138.722 112.71 138.295 112.737 137.982 112.79C137.675 112.837 137.459 112.923 137.332 113.05C137.212 113.17 137.152 113.337 137.152 113.55C137.152 113.823 137.245 114.047 137.432 114.22C137.625 114.393 137.885 114.48 138.212 114.48ZM144.843 115V110.14H145.633V110.96C145.78 110.667 145.983 110.443 146.243 110.29C146.503 110.13 146.806 110.05 147.153 110.05C147.913 110.05 148.4 110.38 148.613 111.04C148.76 110.733 148.976 110.493 149.263 110.32C149.55 110.14 149.88 110.05 150.253 110.05C151.333 110.05 151.873 110.69 151.873 111.97V115H151.063V112.01C151.063 111.563 150.983 111.237 150.823 111.03C150.67 110.817 150.413 110.71 150.053 110.71C149.66 110.71 149.346 110.85 149.113 111.13C148.88 111.41 148.763 111.783 148.763 112.25V115H147.953V112.01C147.953 111.563 147.873 111.237 147.713 111.03C147.56 110.817 147.303 110.71 146.943 110.71C146.543 110.71 146.226 110.85 145.993 111.13C145.766 111.41 145.653 111.783 145.653 112.25V115H144.843ZM155.117 115.09C154.784 115.09 154.484 115.027 154.217 114.9C153.957 114.767 153.751 114.587 153.597 114.36C153.444 114.133 153.367 113.88 153.367 113.6C153.367 113.247 153.457 112.967 153.637 112.76C153.824 112.553 154.127 112.407 154.547 112.32C154.974 112.227 155.554 112.18 156.287 112.18H156.607V111.87C156.607 111.457 156.521 111.16 156.347 110.98C156.181 110.793 155.911 110.7 155.537 110.7C155.244 110.7 154.961 110.743 154.687 110.83C154.414 110.91 154.134 111.043 153.847 111.23L153.567 110.64C153.821 110.46 154.127 110.317 154.487 110.21C154.854 110.103 155.204 110.05 155.537 110.05C156.164 110.05 156.627 110.203 156.927 110.51C157.234 110.817 157.387 111.293 157.387 111.94V115H156.627V114.16C156.501 114.447 156.304 114.673 156.037 114.84C155.777 115.007 155.471 115.09 155.117 115.09ZM155.247 114.48C155.647 114.48 155.974 114.343 156.227 114.07C156.481 113.79 156.607 113.437 156.607 113.01V112.71H156.297C155.757 112.71 155.331 112.737 155.017 112.79C154.711 112.837 154.494 112.923 154.367 113.05C154.247 113.17 154.187 113.337 154.187 113.55C154.187 113.823 154.281 114.047 154.467 114.22C154.661 114.393 154.921 114.48 155.247 114.48ZM158.99 108.93V108.02H159.99V108.93H158.99ZM159.09 115V110.14H159.9V115H159.09ZM163.254 115.09C162.874 115.09 162.514 115.037 162.174 114.93C161.834 114.823 161.554 114.673 161.334 114.48L161.594 113.91C161.834 114.103 162.098 114.247 162.384 114.34C162.678 114.427 162.974 114.47 163.274 114.47C163.654 114.47 163.941 114.4 164.134 114.26C164.328 114.12 164.424 113.93 164.424 113.69C164.424 113.503 164.361 113.357 164.234 113.25C164.108 113.137 163.908 113.05 163.634 112.99L162.724 112.79C161.898 112.61 161.484 112.183 161.484 111.51C161.484 111.07 161.658 110.717 162.004 110.45C162.358 110.183 162.818 110.05 163.384 110.05C163.718 110.05 164.034 110.103 164.334 110.21C164.641 110.31 164.894 110.46 165.094 110.66L164.824 111.23C164.631 111.05 164.404 110.913 164.144 110.82C163.891 110.72 163.638 110.67 163.384 110.67C163.011 110.67 162.728 110.743 162.534 110.89C162.341 111.037 162.244 111.23 162.244 111.47C162.244 111.843 162.491 112.083 162.984 112.19L163.894 112.38C164.321 112.473 164.644 112.623 164.864 112.83C165.084 113.03 165.194 113.303 165.194 113.65C165.194 114.097 165.018 114.45 164.664 114.71C164.311 114.963 163.841 115.09 163.254 115.09ZM166.45 115V113.98H167.47V115H166.45ZM175.154 115.09C174.02 115.09 173.157 114.77 172.564 114.13C171.97 113.49 171.674 112.607 171.674 111.48C171.674 110.733 171.807 110.09 172.074 109.55C172.34 109.01 172.724 108.593 173.224 108.3C173.724 108.007 174.327 107.86 175.034 107.86C175.534 107.86 175.994 107.937 176.414 108.09C176.834 108.237 177.19 108.453 177.484 108.74L177.164 109.4C176.844 109.12 176.514 108.917 176.174 108.79C175.834 108.663 175.45 108.6 175.024 108.6C174.224 108.6 173.61 108.853 173.184 109.36C172.757 109.86 172.544 110.567 172.544 111.48C172.544 112.413 172.764 113.127 173.204 113.62C173.644 114.113 174.3 114.36 175.174 114.36C175.74 114.36 176.284 114.263 176.804 114.07V111.98H175.014V111.33H177.514V114.59C177.327 114.69 177.1 114.777 176.834 114.85C176.574 114.923 176.297 114.98 176.004 115.02C175.71 115.067 175.427 115.09 175.154 115.09ZM181.3 115.09C180.826 115.09 180.416 114.987 180.07 114.78C179.723 114.573 179.453 114.283 179.26 113.91C179.073 113.53 178.98 113.083 178.98 112.57C178.98 112.057 179.073 111.613 179.26 111.24C179.453 110.86 179.723 110.567 180.07 110.36C180.416 110.153 180.826 110.05 181.3 110.05C181.766 110.05 182.173 110.153 182.52 110.36C182.873 110.567 183.143 110.86 183.33 111.24C183.523 111.613 183.62 112.057 183.62 112.57C183.62 113.083 183.523 113.53 183.33 113.91C183.143 114.283 182.873 114.573 182.52 114.78C182.173 114.987 181.766 115.09 181.3 115.09ZM181.3 114.44C181.753 114.44 182.116 114.28 182.39 113.96C182.663 113.633 182.8 113.17 182.8 112.57C182.8 111.963 182.663 111.5 182.39 111.18C182.116 110.86 181.753 110.7 181.3 110.7C180.84 110.7 180.473 110.86 180.2 111.18C179.933 111.5 179.8 111.963 179.8 112.57C179.8 113.17 179.933 113.633 180.2 113.96C180.473 114.28 180.84 114.44 181.3 114.44ZM186.676 115.09C186.296 115.09 185.936 115.037 185.596 114.93C185.256 114.823 184.976 114.673 184.756 114.48L185.016 113.91C185.256 114.103 185.52 114.247 185.806 114.34C186.1 114.427 186.396 114.47 186.696 114.47C187.076 114.47 187.363 114.4 187.556 114.26C187.75 114.12 187.846 113.93 187.846 113.69C187.846 113.503 187.783 113.357 187.656 113.25C187.53 113.137 187.33 113.05 187.056 112.99L186.146 112.79C185.32 112.61 184.906 112.183 184.906 111.51C184.906 111.07 185.08 110.717 185.426 110.45C185.78 110.183 186.24 110.05 186.806 110.05C187.14 110.05 187.456 110.103 187.756 110.21C188.063 110.31 188.316 110.46 188.516 110.66L188.246 111.23C188.053 111.05 187.826 110.913 187.566 110.82C187.313 110.72 187.06 110.67 186.806 110.67C186.433 110.67 186.15 110.743 185.956 110.89C185.763 111.037 185.666 111.23 185.666 111.47C185.666 111.843 185.913 112.083 186.406 112.19L187.316 112.38C187.743 112.473 188.066 112.623 188.286 112.83C188.506 113.03 188.616 113.303 188.616 113.65C188.616 114.097 188.44 114.45 188.086 114.71C187.733 114.963 187.263 115.09 186.676 115.09ZM191.952 115.09C191.379 115.09 190.949 114.94 190.662 114.64C190.375 114.333 190.232 113.893 190.232 113.32V110.77H189.282V110.14H190.232V108.65H191.042V110.14H192.582V110.77H191.042V113.24C191.042 113.62 191.122 113.91 191.282 114.11C191.442 114.303 191.702 114.4 192.062 114.4C192.169 114.4 192.275 114.387 192.382 114.36C192.489 114.333 192.585 114.307 192.672 114.28L192.812 114.9C192.725 114.947 192.599 114.99 192.432 115.03C192.265 115.07 192.105 115.09 191.952 115.09ZM195.839 115.09C195.072 115.09 194.466 114.867 194.019 114.42C193.572 113.967 193.349 113.353 193.349 112.58C193.349 112.08 193.449 111.64 193.649 111.26C193.849 110.873 194.122 110.577 194.469 110.37C194.822 110.157 195.229 110.05 195.689 110.05C196.349 110.05 196.866 110.263 197.239 110.69C197.612 111.11 197.799 111.69 197.799 112.43V112.74H194.139C194.166 113.293 194.326 113.717 194.619 114.01C194.912 114.297 195.319 114.44 195.839 114.44C196.132 114.44 196.412 114.397 196.679 114.31C196.946 114.217 197.199 114.067 197.439 113.86L197.719 114.43C197.499 114.637 197.219 114.8 196.879 114.92C196.539 115.033 196.192 115.09 195.839 115.09ZM195.709 110.65C195.249 110.65 194.886 110.793 194.619 111.08C194.352 111.367 194.196 111.743 194.149 112.21H197.099C197.079 111.717 196.949 111.333 196.709 111.06C196.476 110.787 196.142 110.65 195.709 110.65ZM199.071 108.93V108.02H200.071V108.93H199.071ZM199.171 115V110.14H199.981V115H199.171ZM204.484 115V110.14H205.274V110.96C205.421 110.667 205.624 110.443 205.884 110.29C206.144 110.13 206.447 110.05 206.794 110.05C207.554 110.05 208.041 110.38 208.254 111.04C208.401 110.733 208.617 110.493 208.904 110.32C209.191 110.14 209.521 110.05 209.894 110.05C210.974 110.05 211.514 110.69 211.514 111.97V115H210.704V112.01C210.704 111.563 210.624 111.237 210.464 111.03C210.311 110.817 210.054 110.71 209.694 110.71C209.301 110.71 208.987 110.85 208.754 111.13C208.521 111.41 208.404 111.783 208.404 112.25V115H207.594V112.01C207.594 111.563 207.514 111.237 207.354 111.03C207.201 110.817 206.944 110.71 206.584 110.71C206.184 110.71 205.867 110.85 205.634 111.13C205.407 111.41 205.294 111.783 205.294 112.25V115H204.484ZM214.948 115.09C213.782 115.09 213.198 114.447 213.198 113.16V110.14H214.008V113.15C214.008 113.583 214.095 113.903 214.268 114.11C214.448 114.317 214.728 114.42 215.108 114.42C215.522 114.42 215.858 114.283 216.118 114.01C216.378 113.73 216.508 113.36 216.508 112.9V110.14H217.318V115H216.528V114.18C216.375 114.473 216.158 114.7 215.878 114.86C215.605 115.013 215.295 115.09 214.948 115.09ZM218.934 108.93V108.02H219.934V108.93H218.934ZM219.034 115V110.14H219.844V115H219.034ZM223.508 115.09C222.935 115.09 222.505 114.94 222.218 114.64C221.931 114.333 221.788 113.893 221.788 113.32V110.77H220.838V110.14H221.788V108.65H222.598V110.14H224.138V110.77H222.598V113.24C222.598 113.62 222.678 113.91 222.838 114.11C222.998 114.303 223.258 114.4 223.618 114.4C223.725 114.4 223.831 114.387 223.938 114.36C224.045 114.333 224.141 114.307 224.228 114.28L224.368 114.9C224.281 114.947 224.155 114.99 223.988 115.03C223.821 115.07 223.661 115.09 223.508 115.09ZM227.225 115.09C226.752 115.09 226.342 114.987 225.995 114.78C225.649 114.573 225.379 114.283 225.185 113.91C224.999 113.53 224.905 113.083 224.905 112.57C224.905 112.057 224.999 111.613 225.185 111.24C225.379 110.86 225.649 110.567 225.995 110.36C226.342 110.153 226.752 110.05 227.225 110.05C227.692 110.05 228.099 110.153 228.445 110.36C228.799 110.567 229.069 110.86 229.255 111.24C229.449 111.613 229.545 112.057 229.545 112.57C229.545 113.083 229.449 113.53 229.255 113.91C229.069 114.283 228.799 114.573 228.445 114.78C228.099 114.987 227.692 115.09 227.225 115.09ZM227.225 114.44C227.679 114.44 228.042 114.28 228.315 113.96C228.589 113.633 228.725 113.17 228.725 112.57C228.725 111.963 228.589 111.5 228.315 111.18C228.042 110.86 227.679 110.7 227.225 110.7C226.765 110.7 226.399 110.86 226.125 111.18C225.859 111.5 225.725 111.963 225.725 112.57C225.725 113.17 225.859 113.633 226.125 113.96C226.399 114.28 226.765 114.44 227.225 114.44ZM235.58 115.09C235.147 115.09 234.767 114.987 234.44 114.78C234.12 114.573 233.87 114.283 233.69 113.91C233.517 113.53 233.43 113.083 233.43 112.57C233.43 112.05 233.517 111.603 233.69 111.23C233.87 110.85 234.12 110.56 234.44 110.36C234.767 110.153 235.147 110.05 235.58 110.05C235.96 110.05 236.294 110.133 236.58 110.3C236.874 110.467 237.09 110.697 237.23 110.99V107.95H238.04V115H237.25V114.11C237.11 114.417 236.894 114.657 236.6 114.83C236.307 115.003 235.967 115.09 235.58 115.09ZM235.75 114.44C236.204 114.44 236.567 114.28 236.84 113.96C237.114 113.633 237.25 113.17 237.25 112.57C237.25 111.963 237.114 111.5 236.84 111.18C236.567 110.86 236.204 110.7 235.75 110.7C235.29 110.7 234.924 110.86 234.65 111.18C234.384 111.5 234.25 111.963 234.25 112.57C234.25 113.17 234.384 113.633 234.65 113.96C234.924 114.28 235.29 114.44 235.75 114.44ZM241.95 115.09C241.184 115.09 240.577 114.867 240.13 114.42C239.684 113.967 239.46 113.353 239.46 112.58C239.46 112.08 239.56 111.64 239.76 111.26C239.96 110.873 240.234 110.577 240.58 110.37C240.934 110.157 241.34 110.05 241.8 110.05C242.46 110.05 242.977 110.263 243.35 110.69C243.724 111.11 243.91 111.69 243.91 112.43V112.74H240.25C240.277 113.293 240.437 113.717 240.73 114.01C241.024 114.297 241.43 114.44 241.95 114.44C242.244 114.44 242.524 114.397 242.79 114.31C243.057 114.217 243.31 114.067 243.55 113.86L243.83 114.43C243.61 114.637 243.33 114.8 242.99 114.92C242.65 115.033 242.304 115.09 241.95 115.09ZM241.82 110.65C241.36 110.65 240.997 110.793 240.73 111.08C240.464 111.367 240.307 111.743 240.26 112.21H243.21C243.19 111.717 243.06 111.333 242.82 111.06C242.587 110.787 242.254 110.65 241.82 110.65ZM248.311 115V110.77H247.351V110.14H248.311V109.97C248.311 109.323 248.471 108.833 248.791 108.5C249.118 108.167 249.618 107.98 250.291 107.94L250.661 107.92L250.711 108.55L250.291 108.57C249.878 108.597 249.578 108.72 249.391 108.94C249.211 109.153 249.121 109.463 249.121 109.87V110.14H252.121V115H251.311V110.77H249.121V115H248.311ZM251.221 108.93V108.02H252.211V108.93H251.221ZM255.897 115.09C255.41 115.09 254.99 114.987 254.637 114.78C254.284 114.567 254.01 114.27 253.817 113.89C253.63 113.503 253.537 113.053 253.537 112.54C253.537 111.767 253.747 111.16 254.167 110.72C254.587 110.273 255.164 110.05 255.897 110.05C256.197 110.05 256.494 110.103 256.787 110.21C257.08 110.317 257.324 110.467 257.517 110.66L257.237 111.25C257.044 111.063 256.83 110.927 256.597 110.84C256.37 110.753 256.154 110.71 255.947 110.71C255.44 110.71 255.05 110.87 254.777 111.19C254.504 111.503 254.367 111.957 254.367 112.55C254.367 113.13 254.504 113.59 254.777 113.93C255.05 114.263 255.44 114.43 255.947 114.43C256.154 114.43 256.37 114.387 256.597 114.3C256.83 114.213 257.044 114.073 257.237 113.88L257.517 114.47C257.324 114.663 257.077 114.817 256.777 114.93C256.484 115.037 256.19 115.09 255.897 115.09ZM260.157 115.09C259.824 115.09 259.524 115.027 259.257 114.9C258.997 114.767 258.79 114.587 258.637 114.36C258.484 114.133 258.407 113.88 258.407 113.6C258.407 113.247 258.497 112.967 258.677 112.76C258.864 112.553 259.167 112.407 259.587 112.32C260.014 112.227 260.594 112.18 261.327 112.18H261.647V111.87C261.647 111.457 261.56 111.16 261.387 110.98C261.22 110.793 260.95 110.7 260.577 110.7C260.284 110.7 260 110.743 259.727 110.83C259.454 110.91 259.174 111.043 258.887 111.23L258.607 110.64C258.86 110.46 259.167 110.317 259.527 110.21C259.894 110.103 260.244 110.05 260.577 110.05C261.204 110.05 261.667 110.203 261.967 110.51C262.274 110.817 262.427 111.293 262.427 111.94V115H261.667V114.16C261.54 114.447 261.344 114.673 261.077 114.84C260.817 115.007 260.51 115.09 260.157 115.09ZM260.287 114.48C260.687 114.48 261.014 114.343 261.267 114.07C261.52 113.79 261.647 113.437 261.647 113.01V112.71H261.337C260.797 112.71 260.37 112.737 260.057 112.79C259.75 112.837 259.534 112.923 259.407 113.05C259.287 113.17 259.227 113.337 259.227 113.55C259.227 113.823 259.32 114.047 259.507 114.22C259.7 114.393 259.96 114.48 260.287 114.48ZM264.13 115V110.14H264.92V111.01C265.18 110.423 265.713 110.1 266.52 110.04L266.81 110.01L266.87 110.71L266.36 110.77C265.9 110.81 265.55 110.957 265.31 111.21C265.07 111.457 264.95 111.797 264.95 112.23V115H264.13ZM92.3514 125.09C92.0181 125.09 91.7181 125.027 91.4514 124.9C91.1914 124.767 90.9847 124.587 90.8314 124.36C90.6781 124.133 90.6014 123.88 90.6014 123.6C90.6014 123.247 90.6914 122.967 90.8714 122.76C91.0581 122.553 91.3614 122.407 91.7814 122.32C92.2081 122.227 92.7881 122.18 93.5214 122.18H93.8414V121.87C93.8414 121.457 93.7547 121.16 93.5814 120.98C93.4147 120.793 93.1447 120.7 92.7714 120.7C92.4781 120.7 92.1947 120.743 91.9214 120.83C91.6481 120.91 91.3681 121.043 91.0814 121.23L90.8014 120.64C91.0547 120.46 91.3614 120.317 91.7214 120.21C92.0881 120.103 92.4381 120.05 92.7714 120.05C93.3981 120.05 93.8614 120.203 94.1614 120.51C94.4681 120.817 94.6214 121.293 94.6214 121.94V125H93.8614V124.16C93.7347 124.447 93.5381 124.673 93.2714 124.84C93.0114 125.007 92.7047 125.09 92.3514 125.09ZM92.4814 124.48C92.8814 124.48 93.2081 124.343 93.4614 124.07C93.7147 123.79 93.8414 123.437 93.8414 123.01V122.71H93.5314C92.9914 122.71 92.5647 122.737 92.2514 122.79C91.9447 122.837 91.7281 122.923 91.6014 123.05C91.4814 123.17 91.4214 123.337 91.4214 123.55C91.4214 123.823 91.5147 124.047 91.7014 124.22C91.8947 124.393 92.1547 124.48 92.4814 124.48ZM99.8241 126.8V124.15C99.6841 124.437 99.4675 124.667 99.1741 124.84C98.8875 125.007 98.5541 125.09 98.1741 125.09C97.7408 125.09 97.3608 124.987 97.0341 124.78C96.7141 124.573 96.4641 124.283 96.2841 123.91C96.1108 123.53 96.0241 123.083 96.0241 122.57C96.0241 122.05 96.1108 121.603 96.2841 121.23C96.4641 120.85 96.7141 120.56 97.0341 120.36C97.3608 120.153 97.7408 120.05 98.1741 120.05C98.5608 120.05 98.9008 120.137 99.1941 120.31C99.4875 120.483 99.7041 120.72 99.8441 121.02V120.14H100.634V126.8H99.8241ZM98.3441 124.44C98.7975 124.44 99.1608 124.28 99.4341 123.96C99.7075 123.633 99.8441 123.17 99.8441 122.57C99.8441 121.963 99.7075 121.5 99.4341 121.18C99.1608 120.86 98.7975 120.7 98.3441 120.7C97.8841 120.7 97.5175 120.86 97.2441 121.18C96.9775 121.5 96.8441 121.963 96.8441 122.57C96.8441 123.17 96.9775 123.633 97.2441 123.96C97.5175 124.28 97.8841 124.44 98.3441 124.44ZM104.074 125.09C102.908 125.09 102.324 124.447 102.324 123.16V120.14H103.134V123.15C103.134 123.583 103.221 123.903 103.394 124.11C103.574 124.317 103.854 124.42 104.234 124.42C104.648 124.42 104.984 124.283 105.244 124.01C105.504 123.73 105.634 123.36 105.634 122.9V120.14H106.444V125H105.654V124.18C105.501 124.473 105.284 124.7 105.004 124.86C104.731 125.013 104.421 125.09 104.074 125.09ZM108.06 118.93V118.02H109.06V118.93H108.06ZM108.16 125V120.14H108.97V125H108.16ZM110.554 125V123.98H111.574V125H110.554ZM113.239 120.72L113.029 117.95H113.979L113.789 120.72H113.239ZM114.949 120.72L114.739 117.95H115.689L115.499 120.72H114.949Z" fill="#5F5F7E"/>
<path d="M94.0454 153V144.54H95.2934V148.188H100.033V144.54H101.269V153H100.033V149.232H95.2934V153H94.0454ZM105.861 153.108C104.901 153.108 104.145 152.84 103.593 152.304C103.041 151.76 102.765 151.02 102.765 150.084C102.765 149.484 102.885 148.956 103.125 148.5C103.373 148.036 103.713 147.676 104.145 147.42C104.577 147.164 105.073 147.036 105.633 147.036C106.441 147.036 107.077 147.296 107.541 147.816C108.005 148.328 108.237 149.036 108.237 149.94V150.348H103.941C104.029 151.564 104.673 152.172 105.873 152.172C106.209 152.172 106.537 152.12 106.857 152.016C107.185 151.912 107.493 151.74 107.781 151.5L108.141 152.34C107.877 152.58 107.537 152.768 107.121 152.904C106.705 153.04 106.285 153.108 105.861 153.108ZM105.681 147.888C105.177 147.888 104.777 148.044 104.481 148.356C104.185 148.668 104.005 149.084 103.941 149.604H107.217C107.193 149.06 107.049 148.64 106.785 148.344C106.521 148.04 106.153 147.888 105.681 147.888ZM111.466 153.108C110.826 153.108 110.346 152.928 110.026 152.568C109.714 152.208 109.558 151.68 109.558 150.984V144.54H110.77V150.912C110.77 151.704 111.094 152.1 111.742 152.1C111.838 152.1 111.926 152.096 112.006 152.088C112.094 152.08 112.182 152.064 112.27 152.04L112.246 153.012C111.974 153.076 111.714 153.108 111.466 153.108ZM115.915 153.108C114.955 153.108 114.199 152.84 113.647 152.304C113.095 151.76 112.819 151.02 112.819 150.084C112.819 149.484 112.939 148.956 113.179 148.5C113.427 148.036 113.767 147.676 114.199 147.42C114.631 147.164 115.127 147.036 115.687 147.036C116.495 147.036 117.131 147.296 117.595 147.816C118.059 148.328 118.291 149.036 118.291 149.94V150.348H113.995C114.083 151.564 114.727 152.172 115.927 152.172C116.263 152.172 116.591 152.12 116.911 152.016C117.239 151.912 117.547 151.74 117.835 151.5L118.195 152.34C117.931 152.58 117.591 152.768 117.175 152.904C116.759 153.04 116.339 153.108 115.915 153.108ZM115.735 147.888C115.231 147.888 114.831 148.044 114.535 148.356C114.239 148.668 114.059 149.084 113.995 149.604H117.271C117.247 149.06 117.103 148.64 116.839 148.344C116.575 148.04 116.207 147.888 115.735 147.888ZM119.613 153V147.144H120.789V148.116C120.989 147.764 121.261 147.496 121.605 147.312C121.957 147.128 122.349 147.036 122.781 147.036C124.165 147.036 124.857 147.82 124.857 149.388V153H123.645V149.46C123.645 148.956 123.545 148.588 123.345 148.356C123.153 148.124 122.849 148.008 122.433 148.008C121.945 148.008 121.553 148.164 121.257 148.476C120.969 148.78 120.825 149.184 120.825 149.688V153H119.613ZM128.399 153.108C127.991 153.108 127.627 153.028 127.307 152.868C126.987 152.708 126.731 152.492 126.539 152.22C126.355 151.948 126.263 151.64 126.263 151.296C126.263 150.864 126.371 150.524 126.587 150.276C126.811 150.028 127.175 149.848 127.679 149.736C128.191 149.624 128.879 149.568 129.743 149.568H130.151V149.256C130.151 148.8 130.055 148.472 129.863 148.272C129.671 148.072 129.355 147.972 128.915 147.972C128.579 147.972 128.243 148.024 127.907 148.128C127.571 148.224 127.227 148.38 126.875 148.596L126.503 147.744C126.807 147.528 127.187 147.356 127.643 147.228C128.099 147.1 128.535 147.036 128.951 147.036C129.751 147.036 130.343 147.228 130.727 147.612C131.111 147.988 131.303 148.58 131.303 149.388V153H130.163V152.028C130.019 152.364 129.795 152.628 129.491 152.82C129.187 153.012 128.823 153.108 128.399 153.108ZM128.639 152.244C129.071 152.244 129.431 152.092 129.719 151.788C130.007 151.484 130.151 151.1 130.151 150.636V150.312H129.755C129.171 150.312 128.711 150.34 128.375 150.396C128.047 150.452 127.811 150.548 127.667 150.684C127.531 150.812 127.463 150.992 127.463 151.224C127.463 151.528 127.567 151.776 127.775 151.968C127.983 152.152 128.271 152.244 128.639 152.244Z" fill="#5F5F7E"/>
<defs>
<filter id="filter0_d_130_559" x="0" y="0.561523" width="346.061" height="229.374" filterUnits="userSpaceOnUse" color-interpolation-filters="sRGB">
<feFlood flood-opacity="0" result="BackgroundImageFix"/>
<feColorMatrix in="SourceAlpha" type="matrix" values="0 0 0 0 0 0 0 0 0 0 0 0 0 0 0 0 0 0 127 0" result="hardAlpha"/>
<feOffset dx="2" dy="4"/>
<feGaussianBlur stdDeviation="30"/>
<feColorMatrix type="matrix" values="0 0 0 0 0.160784 0 0 0 0 0.172549 0 0 0 0 0.486275 0 0 0 0.1 0"/>
<feBlend mode="normal" in2="BackgroundImageFix" result="effect1_dropShadow_130_559"/>
<feBlend mode="normal" in="SourceGraphic" in2="effect1_dropShadow_130_559" result="shape"/>
</filter>
<filter id="filter1_d_130_559" x="0.0614014" y="1" width="136" height="229" filterUnits="userSpaceOnUse" color-interpolation-filters="sRGB">
<feFlood flood-opacity="0" result="BackgroundImageFix"/>
<feColorMatrix in="SourceAlpha" type="matrix" values="0 0 0 0 0 0 0 0 0 0 0 0 0 0 0 0 0 0 127 0" result="hardAlpha"/>
<feOffset dx="2" dy="4"/>
<feGaussianBlur stdDeviation="30"/>
<feColorMatrix type="matrix" values="0 0 0 0 0.160784 0 0 0 0 0.172549 0 0 0 0 0.486275 0 0 0 0.1 0"/>
<feBlend mode="normal" in2="BackgroundImageFix" result="effect1_dropShadow_130_559"/>
<feBlend mode="normal" in="SourceGraphic" in2="effect1_dropShadow_130_559" result="shape"/>
</filter>
</defs>
</svg>
