<svg width="23" height="24" viewBox="0 0 23 24" fill="none" xmlns="http://www.w3.org/2000/svg">
<path d="M11.5 0C5.14886 0 0 5.37218 0 12C0 18.6278 5.14886 24 11.5 24C17.8511 24 23 18.6278 23 12C23 5.37218 17.8511 0 11.5 0ZM17.1106 17.2987C16.9259 17.64 16.5861 17.832 16.2359 17.832C16.0721 17.832 15.9031 17.7893 15.748 17.6993C14.3123 16.8593 12.7476 16.3447 11.094 16.17C9.43698 15.9967 7.80083 16.1722 6.22917 16.6958C5.7047 16.8705 5.14016 16.5682 4.97289 16.02C4.80387 15.4709 5.09485 14.8838 5.62106 14.7082C7.45409 14.0971 9.36552 13.8893 11.2961 14.094C13.2232 14.2987 15.0493 14.8987 16.7255 15.8791C17.2082 16.1595 17.3807 16.7955 17.1106 17.2987ZM18.4871 13.6538C18.3094 14.0107 17.9609 14.2155 17.6002 14.2155C17.4434 14.2155 17.2866 14.178 17.1385 14.0971C15.3734 13.1378 13.4672 12.5438 11.4686 12.3322C9.45438 12.1171 7.45932 12.3045 5.53569 12.8835C5.00425 13.0409 4.45016 12.7238 4.29857 12.1695C4.14523 11.616 4.45189 11.0378 4.98158 10.878C7.15265 10.2247 9.40386 10.0155 11.6708 10.2555C13.922 10.4947 16.0721 11.1638 18.0637 12.2467C18.5516 12.5131 18.7433 13.1429 18.4871 13.6538ZM18.9854 10.6215C18.8356 10.6215 18.684 10.5862 18.5394 10.512C16.445 9.42218 14.192 8.74346 11.8415 8.49455C9.48749 8.24327 7.14568 8.43746 4.87879 9.06909C4.34561 9.21673 3.79848 8.88673 3.6556 8.32945C3.51272 7.77291 3.82986 7.20073 4.36478 7.05218C6.86516 6.35546 9.45091 6.14327 12.0454 6.41855C14.6364 6.69218 17.1211 7.44145 19.4315 8.64382C19.9264 8.90091 20.1267 9.528 19.8811 10.0433C19.7068 10.41 19.3531 10.6215 18.9854 10.6215Z" fill="#333333"/>
</svg>
