<svg width="23" height="24" viewBox="0 0 23 24" fill="none" xmlns="http://www.w3.org/2000/svg">
<path fill-rule="evenodd" clip-rule="evenodd" d="M23 12C23 18.6274 17.8513 24 11.5 24C5.14873 24 0 18.6274 0 12C0 5.37258 5.14873 0 11.5 0C17.8513 0 23 5.37258 23 12ZM11.9121 8.85893C10.7936 9.3444 8.55805 10.3492 5.20556 11.8733C4.66117 12.0992 4.376 12.3202 4.35004 12.5363C4.30616 12.9015 4.74443 13.0453 5.34125 13.2411C5.42243 13.2678 5.50654 13.2954 5.59277 13.3246C6.17994 13.5238 6.96979 13.7568 7.3804 13.766C7.75286 13.7744 8.16857 13.6142 8.62753 13.2853C11.7599 11.079 13.3768 9.96381 13.4783 9.93977C13.5499 9.92281 13.6492 9.90148 13.7164 9.96385C13.7836 10.0262 13.777 10.1443 13.7699 10.176C13.7265 10.3691 12.0061 12.0381 11.1158 12.9018C10.8383 13.171 10.6414 13.362 10.6012 13.4056C10.511 13.5033 10.4191 13.5958 10.3308 13.6846C9.78532 14.2333 9.37625 14.6448 10.3535 15.3168C10.8231 15.6397 11.1989 15.9067 11.5737 16.1731C11.9832 16.4641 12.3915 16.7543 12.9199 17.1157C13.0545 17.2077 13.1831 17.3034 13.3083 17.3965C13.7847 17.751 14.2128 18.0694 14.7416 18.0186C15.0489 17.9891 15.3664 17.6876 15.5276 16.7884C15.9085 14.6631 16.6574 10.0585 16.8305 8.16097C16.8456 7.99473 16.8265 7.78197 16.8112 7.68857C16.7959 7.59518 16.7639 7.46211 16.6476 7.3636C16.5098 7.24694 16.2971 7.22234 16.2019 7.22408C15.7694 7.23203 15.1058 7.47282 11.9121 8.85893Z" fill="#333333"/>
</svg>
