<svg width="23" height="18" viewBox="0 0 23 18" fill="none" xmlns="http://www.w3.org/2000/svg">
<path d="M22.7709 4.1998C22.7709 4.1998 22.5463 2.54512 21.8545 1.81855C20.9785 0.862305 19.9992 0.857617 19.55 0.801367C16.3336 0.557617 11.5045 0.557617 11.5045 0.557617H11.4955C11.4955 0.557617 6.66641 0.557617 3.45 0.801367C3.00078 0.857617 2.02148 0.862305 1.14551 1.81855C0.453711 2.54512 0.233594 4.1998 0.233594 4.1998C0.233594 4.1998 0 6.14512 0 8.08574V9.90449C0 11.8451 0.229102 13.7904 0.229102 13.7904C0.229102 13.7904 0.453711 15.4451 1.14102 16.1717C2.01699 17.1279 3.16699 17.0951 3.6791 17.1982C5.5209 17.3811 11.5 17.4373 11.5 17.4373C11.5 17.4373 16.3336 17.4279 19.55 17.1889C19.9992 17.1326 20.9785 17.1279 21.8545 16.1717C22.5463 15.4451 22.7709 13.7904 22.7709 13.7904C22.7709 13.7904 23 11.8498 23 9.90449V8.08574C23 6.14512 22.7709 4.1998 22.7709 4.1998ZM9.12363 12.1123V5.36699L15.3363 8.75137L9.12363 12.1123Z" fill="#333333"/>
</svg>
